<?xml version="1.0" encoding="UTF-8" standalone="no"?>
<svg
   xmlns:dc="http://purl.org/dc/elements/1.1/"
   xmlns:cc="http://creativecommons.org/ns#"
   xmlns:rdf="http://www.w3.org/1999/02/22-rdf-syntax-ns#"
   xmlns:svg="http://www.w3.org/2000/svg"
   xmlns="http://www.w3.org/2000/svg"
   xmlns:xlink="http://www.w3.org/1999/xlink"
   xmlns:sodipodi="http://sodipodi.sourceforge.net/DTD/sodipodi-0.dtd"
   xmlns:inkscape="http://www.inkscape.org/namespaces/inkscape"
   version="1.1"
   id="svg2"
   width="492.61325"
   height="481.98734"
   viewBox="0 0 492.61325 481.98734"
   sodipodi:docname="coding-group-logo.svg"
   inkscape:version="1.0.1 (3bc2e813f5, 2020-09-07)"
   inkscape:export-filename="/home/agustina/Github/logo/coding-group-logo.png"
   inkscape:export-xdpi="200"
   inkscape:export-ydpi="200">
  <metadata
     id="metadata8">
    <rdf:RDF>
      <cc:Work
         rdf:about="">
        <dc:format>image/svg+xml</dc:format>
        <dc:type
           rdf:resource="http://purl.org/dc/dcmitype/StillImage" />
        <dc:title></dc:title>
      </cc:Work>
    </rdf:RDF>
  </metadata>
  <defs
     id="defs6">
    <linearGradient
       id="linearGradient8272"
       gradientTransform="matrix(0.67480193,0,0,0.4850473,137.92743,173.97999)"
       x1="295.4772"
       y1="341.90472"
       x2="323.45535"
       y2="341.90472"
       gradientUnits="userSpaceOnUse">
      <stop
         offset="0%"
         stop-color="#67306c"
         stop-opacity="1.0000"
         id="stop8268" />
      <stop
         offset="100%"
         stop-color="#f2e8f2"
         stop-opacity="1.0000"
         id="stop8270" />
    </linearGradient>
    <linearGradient
       id="linearGradient8266"
       gradientTransform="matrix(0.67480193,0,0,0.4850473,137.92743,173.97999)"
       x1="295.4772"
       y1="341.90472"
       x2="323.45535"
       y2="341.90472"
       gradientUnits="userSpaceOnUse">
      <stop
         offset="0%"
         stop-color="#67306c"
         stop-opacity="1.0000"
         id="stop8262" />
      <stop
         offset="100%"
         stop-color="#f2e8f2"
         stop-opacity="1.0000"
         id="stop8264" />
    </linearGradient>
    <linearGradient
       id="linearGradient8260"
       gradientTransform="matrix(0.67480193,0,0,0.4850473,137.92743,173.97999)"
       x1="295.4772"
       y1="341.90472"
       x2="323.45535"
       y2="341.90472"
       gradientUnits="userSpaceOnUse">
      <stop
         offset="0%"
         stop-color="#67306c"
         stop-opacity="1.0000"
         id="stop8256" />
      <stop
         offset="100%"
         stop-color="#f2e8f2"
         stop-opacity="1.0000"
         id="stop8258" />
    </linearGradient>
    <linearGradient
       id="linearGradient8242"
       gradientTransform="matrix(0.67480193,0,0,0.4850473,137.92743,173.97999)"
       x1="295.4772"
       y1="341.90472"
       x2="323.45535"
       y2="341.90472"
       gradientUnits="userSpaceOnUse">
      <stop
         offset="0%"
         stop-color="#67306c"
         stop-opacity="1.0000"
         id="stop8238" />
      <stop
         offset="100%"
         stop-color="#f2e8f2"
         stop-opacity="1.0000"
         id="stop8240" />
    </linearGradient>
    <rect
       x="367.08511"
       y="138.55112"
       width="920.23694"
       height="363.13275"
       id="rect2368" />
    <filter
       inkscape:collect="always"
       style="color-interpolation-filters:sRGB"
       id="filter1373"
       x="-0.0167989"
       width="1.0335978"
       y="-0.0093336729"
       height="1.0186673">
      <feGaussianBlur
         inkscape:collect="always"
         stdDeviation="0.40262445"
         id="feGaussianBlur1375" />
    </filter>
    <filter
       inkscape:collect="always"
       style="color-interpolation-filters:sRGB"
       id="filter1433"
       x="-0.023319976"
       width="1.04664"
       y="-0.032059107"
       height="1.0641181">
      <feGaussianBlur
         inkscape:collect="always"
         stdDeviation="0.40845174"
         id="feGaussianBlur1435" />
    </filter>
    <filter
       inkscape:collect="always"
       style="color-interpolation-filters:sRGB"
       id="filter1541"
       x="-0.012407684"
       width="1.0248154"
       y="-0.011618255"
       height="1.0232365">
      <feGaussianBlur
         inkscape:collect="always"
         stdDeviation="0.3920375"
         id="feGaussianBlur1543" />
    </filter>
    <filter
       inkscape:collect="always"
       style="color-interpolation-filters:sRGB"
       id="filter1553"
       x="-0.027471231"
       width="1.0549425"
       y="-0.066495501"
       height="1.132991">
      <feGaussianBlur
         inkscape:collect="always"
         stdDeviation="0.22843084"
         id="feGaussianBlur1555" />
    </filter>
    <linearGradient
       id="grad1">
      <stop
         offset="0%"
         stop-color="#67306c"
         stop-opacity="1.0000"
         id="stop1754" />
      <stop
         offset="100%"
         stop-color="#f2e8f2"
         stop-opacity="1.0000"
         id="stop1756" />
    </linearGradient>
    <filter
       inkscape:collect="always"
       style="color-interpolation-filters:sRGB"
       id="filter2211"
       x="-0.021009611"
       width="1.0420192"
       y="-0.26020896"
       height="1.5204179">
      <feGaussianBlur
         inkscape:collect="always"
         stdDeviation="0.89766452"
         id="feGaussianBlur2213" />
    </filter>
    <rect
       x="367.08511"
       y="138.55112"
       width="920.23694"
       height="363.13275"
       id="rect2368-3" />
    <rect
       x="367.08511"
       y="138.55112"
       width="920.23694"
       height="363.13275"
       id="rect2589" />
    <rect
       x="367.08511"
       y="138.55112"
       width="920.23694"
       height="363.13275"
       id="rect2368-6" />
    <rect
       x="367.08511"
       y="138.55112"
       width="920.23694"
       height="363.13275"
       id="rect3192" />
    <defs
       id="defs2315">
      <linearGradient
         id="linearGradient2313">
        <stop
           offset="0%"
           stop-color="#67306c"
           stop-opacity="1.0000"
           id="stop2309" />
        <stop
           offset="100%"
           stop-color="#f2e8f2"
           stop-opacity="1.0000"
           id="stop2311" />
      </linearGradient>
    </defs>
    <defs
       id="defs2325">
      <linearGradient
         id="linearGradient2323">
        <stop
           offset="0%"
           stop-color="#67306c"
           stop-opacity="1.0000"
           id="stop2319" />
        <stop
           offset="100%"
           stop-color="#f2e8f2"
           stop-opacity="1.0000"
           id="stop2321" />
      </linearGradient>
    </defs>
    <linearGradient
       id="grad1-2"
       gradientTransform="matrix(1.1794865,0,0,0.84782656,-252.90899,65.907835)"
       x1="295.4772"
       y1="341.90472"
       x2="323.45535"
       y2="341.90472"
       gradientUnits="userSpaceOnUse">
      <stop
         offset="0%"
         stop-color="#67306c"
         stop-opacity="1.0000"
         id="stop1981" />
      <stop
         offset="100%"
         stop-color="#f2e8f2"
         stop-opacity="1.0000"
         id="stop1983" />
    </linearGradient>
    <linearGradient
       id="grad2"
       gradientTransform="matrix(1.1971379,0,0,0.83532568,-252.90899,65.907835)"
       x1="297.5983"
       y1="362.02802"
       x2="307.72113"
       y2="362.02802"
       gradientUnits="userSpaceOnUse">
      <stop
         offset="0%"
         stop-color="#67306c"
         stop-opacity="1.0000"
         id="stop1990" />
      <stop
         offset="100%"
         stop-color="#f2e8f2"
         stop-opacity="1.0000"
         id="stop1992" />
    </linearGradient>
    <linearGradient
       id="grad1-26"
       gradientTransform="matrix(0.67480193,0,0,0.4850473,137.92743,173.97999)"
       x1="295.4772"
       y1="341.90472"
       x2="323.45535"
       y2="341.90472"
       gradientUnits="userSpaceOnUse">
      <stop
         offset="0%"
         stop-color="#67306c"
         stop-opacity="1.0000"
         id="stop1981-4" />
      <stop
         offset="100%"
         stop-color="#f2e8f2"
         stop-opacity="1.0000"
         id="stop1983-1" />
    </linearGradient>
    <linearGradient
       id="grad2-2"
       gradientTransform="matrix(0.68490056,0,0,0.47789546,137.92743,173.97999)"
       x1="297.5983"
       y1="362.02802"
       x2="307.72113"
       y2="362.02802"
       gradientUnits="userSpaceOnUse">
      <stop
         offset="0%"
         stop-color="#67306c"
         stop-opacity="1.0000"
         id="stop1990-8" />
      <stop
         offset="100%"
         stop-color="#f2e8f2"
         stop-opacity="1.0000"
         id="stop1992-8" />
    </linearGradient>
    <linearGradient
       inkscape:collect="always"
       xlink:href="#grad1-26"
       id="linearGradient6492"
       x1="351.67664"
       y1="291.27988"
       x2="372.00079"
       y2="308.43161"
       gradientUnits="userSpaceOnUse"
       gradientTransform="translate(-280.32713,-8.13745)" />
    <linearGradient
       id="linearGradient6873"
       gradientTransform="scale(1.1794865,0.84782656)"
       x1="295.4772"
       y1="341.90472"
       x2="323.45535"
       y2="341.90472"
       gradientUnits="userSpaceOnUse">
      <stop
         offset="0%"
         stop-color="#67306c"
         stop-opacity="1.0000"
         id="stop6291-7" />
      <stop
         offset="100%"
         stop-color="#f2e8f2"
         stop-opacity="1.0000"
         id="stop6293-0" />
    </linearGradient>
    <linearGradient
       id="linearGradient6877"
       gradientTransform="scale(1.1971379,0.83532568)"
       x1="297.5983"
       y1="362.02802"
       x2="307.72113"
       y2="362.02802"
       gradientUnits="userSpaceOnUse">
      <stop
         offset="0%"
         stop-color="#67306c"
         stop-opacity="1.0000"
         id="stop6299-1" />
      <stop
         offset="100%"
         stop-color="#f2e8f2"
         stop-opacity="1.0000"
         id="stop6301-9" />
    </linearGradient>
    <linearGradient
       inkscape:collect="always"
       xlink:href="#grad1-26"
       id="linearGradient199"
       gradientUnits="userSpaceOnUse"
       x1="630.67517"
       y1="298.65683"
       x2="649.36407"
       y2="312.13721"
       gradientTransform="translate(-280.32713,-8.13745)" />
    <linearGradient
       inkscape:collect="always"
       xlink:href="#grad1-26"
       id="linearGradient201"
       gradientUnits="userSpaceOnUse"
       x1="630.67517"
       y1="298.65683"
       x2="649.36407"
       y2="312.13721"
       gradientTransform="translate(-280.32713,-8.13745)" />
  </defs>
  <sodipodi:namedview
     pagecolor="#827981"
     bordercolor="#666666"
     borderopacity="1"
     objecttolerance="10"
     gridtolerance="10"
     guidetolerance="10"
     inkscape:pageopacity="0"
     inkscape:pageshadow="2"
     inkscape:window-width="1920"
     inkscape:window-height="1002"
     id="namedview4"
     showgrid="false"
     inkscape:zoom="0.70710678"
     inkscape:cx="565.92158"
     inkscape:cy="554.70108"
     inkscape:window-x="0"
     inkscape:window-y="0"
     inkscape:window-maximized="1"
     inkscape:current-layer="g10"
     fit-margin-top="0"
     fit-margin-left="0"
     fit-margin-right="0"
     fit-margin-bottom="0"
     showguides="false"
     inkscape:document-rotation="0" />
  <g
     inkscape:groupmode="layer"
     inkscape:label="Image"
     id="g10"
     transform="translate(-373.35592,750.70051)">
    <g
       id="g7934"
       inkscape:export-xdpi="200"
       inkscape:export-ydpi="200">
      <path
         id="path1907-3"
         style="font-variation-settings:normal;opacity:1;vector-effect:none;fill:#ffffff;fill-opacity:1;fill-rule:evenodd;stroke:#ffffff;stroke-width:1;stroke-linecap:butt;stroke-linejoin:miter;stroke-miterlimit:4;stroke-dasharray:none;stroke-dashoffset:0;stroke-opacity:1;stop-color:#000000;stop-opacity:1"
         d="m -266.31641,-13.716797 c -6.6627,0.173954 -13.78803,2.86284 -17.39648,8.763672 -0.40651,0.6510501 -0.75535,1.3337929 -1.05664,2.0371094 -3.00696,-2.553965 -6.99429,-3.9172806 -10.94336,-3.7929688 -6.60743,0.089372 -12.73412,3.722178 -16.86914,8.7304688 -1.41447,1.45297 -2.82524,2.908831 -4.24219,4.359375 0.006,0.018896 0.0131,0.037742 0.0195,0.056641 -2.48315,-1.3615374 -5.33802,-2.0433602 -8.16797,-1.9648438 -4.65497,0.2037383 -9.26964,2.0301108 -12.64843,5.2675782 -3.22692,-0.2942406 -6.22472,1.5739222 -8.16407,4.0273432 -1.51785,1.567285 -3.35413,2.728243 -5.18554,3.886719 -1.23406,-4.708156 -5.72859,-8.4440247 -10.6836,-8.3593747 -0.26232,7.376e-4 -0.52494,-0.015298 -0.78711,-0.00586 -6.97768,0.076454 -12.36689,7.9410367 -10.14843,14.4999997 0.69277,2.187969 2.03175,4.169973 3.86328,5.560547 -0.43425,0.356138 -0.86848,0.712222 -1.30274,1.06836 -1.12746,-1.684266 -2.20764,-3.399862 -3.31445,-5.097657 -3.49463,-0.0423 -6.98972,-0.08103 -10.48437,-0.11914 -1.82107,4.334715 -4.00524,8.497796 -6.40235,12.541016 -1.10556,0.990251 0.0572,1.794088 0.71094,2.640624 1.4098,1.731111 2.81425,3.466989 4.21289,5.207032 -0.36149,0.578567 -0.72245,1.157821 -1.08398,1.736328 -0.73269,-0.08048 -1.47062,-0.116087 -2.20704,-0.0918 -8.29476,0.372745 -15.35138,6.993715 -17.63281,14.759766 -0.87489,2.725505 -1.75173,5.449751 -2.625,8.175781 2.47273,2.548898 4.85982,5.176326 7.23633,7.814453 -1.65516,2.042704 -3.31015,4.085461 -4.9668,6.126953 1.56275,2.126334 3.15001,4.237226 4.69141,6.378906 -0.71958,1.057827 -1.5123,2.063644 -2.30859,3.064454 -5.24676,-4.238529 -10.50541,-8.463982 -15.66993,-12.802735 1.2186,-1.489739 2.43688,-2.97964 3.65625,-4.46875 -4.65313,-3.830124 -9.30464,-7.660695 -13.95508,-11.494141 -0.41988,0.548502 -0.83986,1.097986 -1.25976,1.646485 -6.14633,8.35573 -12.87675,16.251976 -19.67383,24.080078 4.65144,3.794379 9.30334,7.590322 13.95313,11.386718 1.22652,-1.49587 2.44794,-2.994197 3.67187,-4.492187 2.0778,1.638307 4.13613,3.299727 6.1875,4.970707 -1.07635,-0.14079 -2.16259,-0.21792 -3.25195,-0.19141 -8.25359,0.19 -15.58222,6.16455 -18.61133,13.66016 -2.22065,4.99576 -2.45575,10.88295 -0.73047,16.07031 -6.69568,1.75365 -12.09101,7.73003 -13.43555,14.52344 -1.27355,5.57707 -0.49193,11.80502 2.48829,16.70898 -4.84386,-1.47763 -9.74901,-2.93585 -14.14063,-5.51562 -0.63762,-0.0631 -1.28137,-0.22016 -1.92187,-0.11133 h -0.002 c -2.22158,0.30311 -3.47784,2.36398 -4.16797,4.29883 -3.61495,6.7374 -7.09016,13.78179 -7.98437,21.47656 -1.33482,8.6361 0.34061,18.09491 6.14258,24.86328 8.07928,9.74926 22.91178,13.11607 34.36718,7.75586 a 216.62329,224.07402 0 0 0 -1.61132,27.26953 216.62329,224.07402 0 0 0 25.98242,106.40625 c -0.31925,-0.0505 -0.63914,-0.10149 -0.95703,-0.16601 -5.14531,-0.82072 -10.29531,-1.62253 -15.48633,-2.09766 -4.6124,-0.48133 -9.23911,-0.87186 -13.80664,-1.69922 -2.09422,-0.35117 -4.21994,-0.52251 -6.33985,-0.44531 -0.70663,0.0257 -1.41306,0.0784 -2.11718,0.16211 -4.88862,0.43399 -9.76099,2.2484 -13.33985,5.68359 -3.47477,3.0427 -6.44652,6.91201 -7.48242,11.49219 -1.79033,6.80554 -1.27884,14.40664 2.36524,20.5332 2.26765,3.82767 5.2891,7.20292 8.74414,9.9961 4.27889,3.34338 9.16249,5.77588 13.81836,8.5332 12.07074,6.83948 24.56047,12.96343 37.4414,18.12305 3.36701,1.28852 6.7988,2.39564 10.2168,3.53906 -0.6968,9.38814 5.1035,18.85913 13.7793,22.50781 3.5162,1.4902 7.40819,1.43548 11.15429,1.63086 5.5925,0.29472 11.30279,-0.31542 16.52539,-2.42383 2.0867,-0.73602 4.06688,-1.85127 6.30078,-2.08007 4.6379,-0.87196 9.27605,-2.01481 14.02735,-1.94141 3.50059,-0.066 7.00696,-0.42521 10.39648,-1.32617 v -0.66797 a 216.62329,224.07402 0 0 0 105.40039,28.31445 216.62329,224.07402 0 0 0 162.851566,-76.3164 c 3.583511,2.02304 7.274709,3.85372 11.070312,5.44921 4.47583,1.8181 9.207972,3.28807 14.076172,3.35157 3.54692,-0.004 7.350641,-1.44212 9.238281,-4.59961 1.98478,-3.22672 1.58636,-7.39855 -0.0625,-10.67774 -2.15037,-4.71111 -5.734502,-8.55109 -9.326172,-12.19922 0.124522,-4.22197 -1.00819,-8.42949 -3.097656,-12.08789 a 216.62329,224.07402 0 0 0 31.595703,-105.6582 c 0.928127,-1.12038 1.776444,-2.3499 1.910156,-3.83789 0.931842,-4.50625 1.863072,-9.01328 2.794922,-13.51953 1.46395,-1.10019 2.6252422,-2.54169 3.4824222,-4.15235 1.0307403,-1.65102 2.0610669,-3.30209 3.0917969,-4.95312 1.70745,-0.88158 2.4032213,-2.79028 3.5195313,-4.23828 1.21879,-1.87406 2.58912993,-3.68111 3.65625,-5.63477 0.25316,-2.49521 1.0035412,-4.96693 0.8320312,-7.48633 -0.36362,-2.57737 -0.4707931,-5.2214 -1.1269531,-7.73828 -0.97323,-1.43394 -1.94290566,-2.87065 -2.9160156,-4.30468 -1.54996,-0.31916 -3.1002707,-0.63666 -4.6503907,-0.95508 -1.35922,-1.84939 -2.5688396,-3.90308 -4.5312502,-5.1875 -1.68058,-1.30972 -3.360055,-2.62046 -5.041015,-3.92969 l -2.144532,-0.0312 c -0.71166,-1.73676 -3.373101,-2.59095 -5.875,-2.94726 A 216.62329,224.07402 0 0 0 -233.5293,19.115234 a 216.62329,224.07402 0 0 0 -0.3789,0 216.62329,224.07402 0 0 0 -15.41016,0.597657 c 2.21433,-4.91144 2.175,-10.8653159 -0.85742,-15.4277348 -0.42229,-0.9031477 -1.43377,-1.4928963 -1.70703,-2.4121093 -0.50602,-3.2705714 -0.84285,-6.5681967 -1.12891,-9.8574219 -0.76687,-3.448767 -4.42536,-5.253534 -7.70703,-5.361328 -1.84736,-0.307943 -3.72656,-0.4065 -5.59766,-0.371094 z M -426.99219,125.12695 c 0.34803,0.21337 0.68772,0.44051 1.00977,0.69336 -0.66606,-0.0615 -1.328,-0.18099 -1.97852,-0.3457 a 4.8399515,1.782961 0 0 0 0.96875,-0.34766 z"
         transform="translate(863.33979,-736.47685)" />
      <g
         id="g6308"
         transform="matrix(1.7479003,0,0,1.7479255,381.22926,-742.83222)"
         style="stroke-width:0.572111">
        <g
           id="Layer1000"
           transform="translate(-129.11131,-84.696092)"
           style="stroke-width:0.572111">
          <path
             d="M 278.7214,110.0984 A 17.6213,120.2714 0 0 1 296.3427,230.3699 17.6213,120.2714 0 1 1 278.7214,110.0984 Z"
             style="fill:none;fill-opacity:0;stroke:#d0b4cc;stroke-width:0.810853;stroke-linecap:butt;stroke-linejoin:miter;stroke-dasharray:none"
             id="path1896" />
          <path
             d="M 278.7214,110.0984 A 41.2421,120.2714 0 0 1 319.9635,230.3699 41.2421,120.2714 0 1 1 278.7214,110.0984 Z"
             style="fill:none;fill-opacity:0;stroke:#d0b4cc;stroke-width:0.810853;stroke-linecap:butt;stroke-linejoin:miter;stroke-dasharray:none"
             id="path1898" />
        </g>
        <g
           id="Layer1001"
           transform="translate(-129.11131,-84.696092)"
           style="stroke-width:0.572111">
          <path
             d="M 277.3553,107.8684 A 111.2863,120.2714 0 0 1 388.6416,228.1398 111.2863,120.2714 0 1 1 277.3553,107.8684 Z"
             style="fill:none;fill-opacity:0;stroke:#d0b4cc;stroke-width:0.810853;stroke-linecap:butt;stroke-linejoin:miter;stroke-dasharray:none"
             id="path1901" />
          <path
             d="m 277.4137,107.8684 a 90.369,120.2714 0 0 1 90.369,120.2714 90.369,120.2714 0 1 1 -90.369,-120.2714 z"
             style="fill:none;fill-opacity:0;stroke:#d0b4cc;stroke-width:0.810853;stroke-linecap:butt;stroke-linejoin:miter;stroke-dasharray:none"
             id="path1903" />
          <path
             d="M 272.8141,107.8684 A 62.8083,120.2714 0 0 1 335.6224,228.1398 62.8083,120.2714 0 1 1 272.8141,107.8684 Z"
             style="fill:none;fill-opacity:0;stroke:#d0b4cc;stroke-width:0.810853;stroke-linecap:butt;stroke-linejoin:miter;stroke-dasharray:none"
             id="path1905" />
          <g
             id="Layer1002"
             style="stroke-width:0.572111">
            <path
               id="path1907"
               style="font-variation-settings:normal;opacity:1;vector-effect:none;fill:#d0b4cc;fill-opacity:1;fill-rule:evenodd;stroke-width:0.572111;stroke-linecap:butt;stroke-linejoin:miter;stroke-miterlimit:4;stroke-dasharray:none;stroke-dashoffset:0;stroke-opacity:1;stop-color:#000000;stop-opacity:1"
               d="m -135.96094,315.57617 -3.26367,2.48047 -1.91601,-0.125 -0.26758,0.68359 -1.23047,-0.26562 -0.81641,0.68945 -0.94922,1.3711 0.002,0.27343 0.14648,1.0918 -2.72266,1.93164 0.28125,1.36524 -2.33789,-2.44532 -2.19336,-0.94336 -1.50195,-0.1289 -0.68164,0.41406 0.006,0.82031 -0.13477,0.41211 0.004,0.68164 2.04297,-1.10547 1.375,1.35743 0.68359,-0.13868 -0.67773,1.09571 2.33984,2.85547 -0.51562,4.92187 1.0957,0.67578 -0.13086,0.54883 -1.35547,2.05859 -1.77148,0.55664 0.14258,1.36719 -1.08985,0.27735 0.14453,1.23046 -2.18359,0.56055 0.041,6.83203 0.27148,-0.27539 0.2793,0.81836 -0.53711,1.64453 0.0449,7.24024 2.20508,3.1289 1.66211,3.81836 1.24609,2.72461 3.16992,4.35547 -0.40234,1.09375 0.9668,1.63477 1.64843,1.6289 7.53907,3.91797 2.33789,2.30859 0.29296,3.2793 0.0195,3.00781 -1.20508,4.24219 0.29687,3.68555 -2.27929,7.12109 0.41992,1.91016 -0.13477,0.13867 -0.8125,1.23242 0.0371,5.74024 -2.83398,6.4375 -0.95313,0.41992 0.84375,3.81836 -1.34961,2.74219 0.82422,0.95117 -0.54297,0.27929 1.36328,-0.41992 0.54688,0.13282 0.54492,-0.27735 -0.95117,0.96289 0.82422,0.4043 -0.27149,0.54883 -0.54882,-0.40625 0.54882,0.54297 -0.54687,-0.13477 -0.39844,1.64258 0.55078,0.67969 -0.95508,0.41601 1.09766,0.67969 -1.49609,1.10156 1.23242,0.26563 -1.09375,0.14453 -0.13281,0.54883 0.54492,-0.2793 -0.9375,3.14844 13.91211,-15.60157 a 9.201849,14.493455 0 0 0 0.002,0.002 l -13.91406,15.59961 0.82422,0.67968 -0.6836,-0.13281 0.41211,0.54102 -1.77929,-0.39649 1.09765,0.53906 -0.81836,0.41602 0.54883,0.13281 -0.54102,1.09766 0.54493,-0.41406 0.55078,0.8164 -0.95703,-0.13086 0.27539,0.54493 h 0.002 v -0.002 l 1.08594,-0.006 -1.08594,0.008 0.27539,0.54296 -0.13476,0.13868 0.004,0.68359 0.54297,-0.6875 0.41211,0.41016 -1.22656,0.41797 0.68359,0.26367 -0.4043,0.68945 0.82227,0.67773 -0.004,-0.68164 0.2793,0.67969 -0.2793,-0.81836 0.95899,0.4043 -1.09571,-0.53906 0.67969,-0.41797 -0.26953,0.55078 0.82227,0.4043 -0.54102,0.96093 0.26953,-0.68554 -0.40625,0.55273 -0.002,-0.41211 h -0.13672 l -0.27539,0.002 -0.54687,0.004 0.008,1.0918 1.09179,-0.41602 1.7754,-0.0117 0.14062,0.81836 -0.81445,0.69141 0.82226,0.4043 0.67383,-1.64454 2.32031,-0.69726 1.08985,0.13281 -0.6875,-1.0918 -0.55078,-0.68359 1.63281,-1.37305 -0.27735,-0.27148 -0.13867,-0.41016 0.27539,0.40821 0.13672,0.13671 0.54688,-0.14062 0.67382,-1.50781 2.85938,-1.6543 0.13086,-1.23437 -1.36914,-0.26368 -1.10352,-1.49609 1.22071,-1.37305 2.18554,-0.56054 0.53321,-2.05274 1.76953,-1.10351 -0.96094,-0.54297 0.95703,-0.2793 0.41406,0.68359 0.81641,-0.55078 -0.14258,-0.82031 -1.22461,0.55078 -0.82617,-0.67578 0.39649,-2.32617 1.91796,0.80859 2.32032,-0.42383 0.53125,-2.73828 0.4082,0.13672 -0.2793,-1.09179 1.91602,0.39843 1.91211,-0.28711 -0.002,-0.54687 0.13282,-0.27149 -0.002,-0.41211 0.13477,-0.27343 -0.004,-0.54492 0.13672,-0.2754 -0.006,-0.54687 0.13672,-0.27539 -0.004,-0.4082 0.13476,-0.27344 -0.002,-0.54688 0.13476,-0.27343 -0.002,-0.27344 0.13281,-0.27539 -0.004,-0.54688 0.13671,-0.13672 -0.002,-0.54687 0.13281,-0.27149 -0.002,-0.54882 0.13477,-0.27344 -0.002,-0.25586 a 9.201849,14.493455 0 0 0 0.006,-0.0156 l 0.002,0.27149 -0.13672,0.27344 0.004,0.54882 -0.13476,0.27149 0.002,0.54687 -0.13672,0.13672 0.004,0.54688 -0.13086,0.27539 0.002,0.27344 -0.13672,0.27343 0.002,0.54688 -0.13282,0.27344 0.002,0.4082 -0.13477,0.27539 0.004,0.54687 -0.13477,0.27344 0.004,0.54688 -0.13672,0.27343 0.002,0.41016 -0.13281,0.27344 0.004,0.54687 2.45508,-0.42382 1.63671,-0.83008 1.89844,-2.06055 0.13086,-1.0918 -0.96094,-0.68164 0.67578,-1.23242 -2.06054,-1.62891 0.40625,-0.95898 0.82617,1.08984 2.60156,0.93946 3.41406,-0.42969 3.25977,-3.02539 1.2168,-2.33399 2.578122,-2.74609 -0.273438,-0.68164 1.095704,0.94922 -3.259768,3.16406 2.583986,-1.92969 1.628906,-2.06054 h -0.0039 l 0.947266,-1.3711 2.041016,-1.3789 1.076171,-2.74024 -0.283203,-1.77539 1.083985,-1.37304 -0.546875,-0.4043 0.818359,0.13086 1.494141,-1.51367 2.314453,-1.51758 1.638672,-0.01 2.175781,-1.79101 1.36914,0.40429 0.953126,-0.82812 -0.134766,0.68554 1.777344,0.125 0.267578,-0.95703 1.90625,-0.9707 -0.0039,-1.0918 2.439453,-3.15625 0.134765,-0.41211 -0.002,-0.27343 0.134766,-0.27344 -0.002,-0.27344 0.134765,-0.27344 -0.0039,-0.68164 0.134766,-0.27734 -0.002,-0.27344 0.134765,-0.27344 -0.002,-0.41015 0.134766,-0.27344 -0.0039,-0.54492 0.134766,-0.27734 -0.002,-0.40821 0.134766,-0.27539 -0.0039,-0.54492 0.134766,-0.41211 -0.0039,-0.54687 0.136718,-0.27344 -0.002,-0.27539 0.13086,-0.40821 -0.0039,-0.54687 0.136719,-0.27539 -0.0039,-0.68359 0.134766,-0.27149 -0.0059,-0.68555 0.136719,-0.27148 -0.0039,-0.55078 0.132812,-0.41016 -0.002,-0.54297 0.134766,-0.27539 -0.0039,-0.68359 0.132813,-0.27539 -0.0039,-0.68164 0.134765,-0.27344 -0.0059,-0.95703 0.134766,-0.27539 -0.0039,-0.54492 0.134766,-0.41211 -0.0059,-0.81836 0.134765,-0.41211 -0.0039,-0.81836 0.132812,-0.41211 -0.0059,-0.95703 0.134766,-0.27344 -0.0059,-0.95508 h 0.0059 l 0.0059,0.95508 -0.134766,0.27148 0.0059,0.95899 -0.134766,0.41211 0.0059,0.81836 -0.134765,0.41211 0.0039,0.81836 -0.132812,0.41211 0.0039,0.54492 -0.134766,0.27539 0.0059,0.95703 -0.134766,0.27148 0.0039,0.6836 -0.132812,0.27539 0.0039,0.68359 -0.134766,0.27539 0.002,0.54297 -0.132812,0.41016 0.0039,0.55078 -0.136718,0.27148 0.0059,0.68555 -0.134766,0.27149 0.0039,0.68359 -0.136719,0.27539 0.0039,0.54687 -0.130859,0.40821 0.002,0.27344 -0.136719,0.27539 0.0039,0.54687 -0.134765,0.41211 0.0039,0.54492 -0.134766,0.27539 0.002,0.40821 -0.134765,0.27734 0.0039,0.54492 -0.134766,0.27344 0.002,0.41015 -0.134765,0.27149 0.002,0.27539 -0.134766,0.27539 0.0039,0.68164 -0.134766,0.27539 0.002,0.27344 -0.134766,0.27344 0.002,0.27343 -0.140625,0.41211 0.542968,-0.6875 0.667969,-2.46289 1.083984,-1.375 2.123047,-10.25976 0.271485,-0.41407 0.277344,0.81836 0.814453,-0.6875 3.195312,-5.11914 0.191406,-0.36718 0.410157,0.13476 2.302734,-3.43164 0.392578,-2.59766 -0.429687,-3.55078 -0.552735,-0.8164 -2.597656,-0.53321 -2.068359,-2.85546 -2.609375,-2.03321 h -0.138672 l -3.960938,-0.11328 -2.058594,-1.21484 -2.583984,2.06445 0.125,-1.64062 0.681641,-0.55274 -1.091797,0.14453 0.953125,-0.6875 -0.693359,-1.49804 -0.675782,0.95703 -0.28125,-1.22461 -0.271484,0.41015 0.134766,-0.41015 -0.546876,0.27539 -0.550781,-0.81641 -0.271484,0.54883 -0.0039,-0.95703 -0.40625,0.54883 -1.785157,-1.21875 -0.134765,0.41015 L -87,343.97656 l -0.810547,1.7793 0.822266,0.13281 -0.81836,0.41406 -0.414062,-0.67968 -1.626953,2.05859 0.40039,-1.50586 -2.183593,0.42383 3.001953,-0.83789 0.939453,-2.46484 -3.693359,-0.66211 -0.945313,1.91796 -0.140625,-0.95507 -0.814453,0.96093 -0.0059,-1.09179 -0.8125,0.96093 0.804687,-1.91796 2.71875,-2.61329 -0.544922,0.004 0.402344,-1.0957 -1.646485,-0.81055 -1.121093,-4.63672 -0.548828,-0.41015 -0.13086,0.82226 -1.386719,-1.89844 -3.505859,-1.93164 -0.925781,1.76367 1.072266,3.26563 5.578124,0.14453 -5.529296,0.006 -0.04883,-0.15039 -0.986329,2.05469 -0.691406,-0.48047 -2.14453,0.0703 0.0644,1.42188 -2.71679,-0.25782 -2.93164,1.67383 -2.18555,-1.49414 -0.41211,-2.02344 0.89063,-2.42382 -1.29493,-1.14454 0.10743,7.38477 0.23437,15.84961 -0.13476,0.27539 0.0234,3.68945 -0.13672,0.27344 0.13477,-0.27344 -0.0215,-3.68945 0.13281,-0.27539 -0.23242,-15.84961 -0.10938,-7.38477 -0.0371,-0.0332 -0.0312,-1.41211 -1.23633,-0.16211 -1.38867,-1.46484 0.48242,-1.49219 1.75196,-0.71875 -0.94336,-1.06641 1.29297,-1.07421 -0.0156,-1.04297 -0.4082,-0.26953 -1.36914,0.14453 -0.01,-1.77735 -1.64648,-0.94531 -1.50196,0.14649 -0.27343,-0.41016 -0.82618,-0.81445 2.04493,-0.69336 -4.91993,0.0293 1.23243,0.40039 -2.86328,0.8379 -2.4668,-1.2129 -3.96289,0.29688 -0.55664,-1.36524 -2.60156,-0.66601 -1.08985,-0.13086 -2.54492,2.41406 0.375,0.74219 0.2793,0.68359 0.004,0.82032 -1.36133,0.55273 -0.96875,-1.63281 0.27149,-0.41406 0.94922,-1.36915 -0.83203,-1.77343 1.77148,-1.10352 z m 24.52735,9.36524 0.10937,7.42382 h 0.002 l -0.10937,-7.42578 z m 0.002,-0.002 0.54297,-0.45117 -0.5586,-0.58984 z m -26.88281,119.79102 0.26953,-0.54688 -0.81836,0.27539 z m -1.10157,-1.49805 -0.67968,0.68946 0.54882,0.13085 z m -14.02343,-103.08789 -0.27149,0.13867 0.27735,0.81641 z m 0.01,1.50195 -1.08593,1.10157 0.41406,0.54297 -1.36133,0.83007 0.15234,2.86719 1.37305,0.81055 0.53906,-0.82227 z m -0.50781,6.15235 0.27734,0.54492 0.26954,-0.27344 0.13476,-0.27343 h -0.13672 z m 0.55273,1.36523 -2.71875,1.92774 0.97266,3 -0.67773,0.6875 2.46875,1.625 z m 81.060551,3.87891 -0.130859,0.41015 0.01367,2.45899 -0.01563,-2.45899 z m -0.621093,9.8418 -0.136719,0.27343 0.0078,1.22852 -0.0098,-1.22852 z m -38.400388,0.23437 0.002,0.27344 h -0.002 l 0.0156,2.45898 -0.13086,0.41016 0.0117,2.1875 -0.13476,0.27344 0.0117,1.91406 -0.13476,0.27344 0.0117,1.91406 -0.13672,0.27148 0.0117,1.91407 -0.13281,0.27539 0.008,1.50195 -0.13477,0.41016 0.01,1.50585 -0.13477,0.27344 0.008,1.22852 -0.13671,0.27734 0.008,1.22852 -0.13281,0.41015 0.008,1.23047 -0.13477,0.27344 0.006,1.23047 -0.13476,0.27344 0.008,1.22851 -0.13477,0.27735 0.008,1.22851 -0.13477,0.27344 0.006,0.95508 -0.13477,0.27539 0.008,1.23047 -0.13672,0.27343 0.006,0.82032 -0.13282,0.4082 0.004,0.82031 -0.13672,0.27735 0.006,0.95507 -0.13476,0.27344 0.006,0.95899 -0.13671,0.27148 0.006,0.82031 -0.13282,0.27539 0.006,0.95508 -0.13672,0.27344 0.004,0.54687 -0.13477,0.27344 0.006,0.95899 -0.13281,0.27539 0.004,0.82031 -0.13672,0.27148 0.004,0.6836 -0.13477,0.27539 0.002,0.54492 -0.13281,0.27539 0.006,0.81836 -0.13477,0.27344 0.004,0.68359 -0.008,0.13477 -0.041,0.20312 -0.0508,0.35742 -0.0156,0.13867 a 9.201849,14.493455 0 0 0 -0.002,-0.0195 l 0.0176,-0.11914 0.0293,-0.24804 0.0215,-0.10938 0.0488,-0.33789 h -0.006 l -0.004,-0.68359 0.13477,-0.27344 -0.006,-0.81836 0.13281,-0.27539 -0.002,-0.54688 0.13477,-0.27343 -0.004,-0.6836 0.13477,-0.27148 -0.004,-0.82031 0.13476,-0.27539 -0.006,-0.95899 0.13476,-0.27344 -0.004,-0.54687 0.13672,-0.27344 -0.006,-0.95703 0.13282,-0.27539 -0.006,-0.82031 0.13672,-0.26953 -0.006,-0.95899 0.13476,-0.27344 -0.006,-0.95507 0.13672,-0.27735 -0.004,-0.82031 0.13282,-0.4082 -0.006,-0.82227 0.13476,-0.27148 -0.006,-1.23047 0.13477,-0.27539 -0.006,-0.95508 0.13281,-0.27539 -0.006,-1.22656 0.13477,-0.27735 -0.008,-1.22851 0.13476,-0.27344 -0.006,-1.23047 0.13477,-0.27344 -0.008,-1.23047 0.13281,-0.41211 -0.008,-1.22851 0.13672,-0.27539 -0.008,-1.23047 0.13477,-0.27344 -0.01,-1.5039 0.13477,-0.41016 -0.01,-1.50195 0.13477,-0.27539 -0.0117,-1.91407 0.13672,-0.27343 -0.0117,-1.91211 0.13477,-0.27539 -0.0117,-1.91407 0.13476,-0.27148 -0.0137,-2.1875 0.13281,-0.41016 -0.0156,-2.45898 h 0.006 z m -26.64649,0.0234 0.27344,0.13672 -0.27539,-0.13477 -9.29102,0.0566 -0.4082,0.13867 0.4082,-0.14062 z m 22.95899,0.13476 0.27343,0.13477 3.39454,-0.0195 -3.39454,0.0215 z m 6.01172,0.0996 0.41015,0.13282 h -0.006 z m 4.91406,0.10547 h 0.006 l 0.27539,0.13672 h -0.006 z m 4.374998,0.11133 h 0.0039 l 0.273438,0.13477 h -0.0039 z m 3.826172,0.11328 h 0.0059 l 0.273438,0.13672 h -0.0039 z m 3.691406,0.11524 h 0.0059 l 0.273437,0.13281 h -0.0059 z m 3.279297,0.11328 h 0.0059 l 0.138672,0.13867 h -0.0059 z m 3.144531,0.12109 h 0.0059 l 0.27539,0.13281 h -0.0059 z m 2.597657,0.11914 h 0.0059 l 0.273438,0.13672 h -0.0059 z m 2.871093,0.11914 h 0.0059 l 0.273437,0.13477 h -0.0059 z m 2.597657,0.1211 h 0.0039 l 0.275391,0.13476 h -0.0059 z m 2.322265,0.12304 h 0.0059 l 0.273437,0.13477 h -0.0039 z m -35.142576,40.11719 h 0.006 l 0.27344,0.13477 h -0.006 z m 4.64648,0.10742 h 0.004 l 0.27344,0.13672 h -0.004 z m 4.10156,0.11328 h 0.004 l 0.27539,0.13477 h -0.006 z m 3.552739,0.11328 h 0.0039 l 0.27539,0.13672 h -0.0059 z m -42.451169,30.1875 -0.81836,0.41602 0.95703,-0.008 z m 3.4414,4.21485 -2.45312,0.0156 1.63476,0.26368 -1.64257,-0.26368 h 0.008 l -0.006,-0.002 z m -2.59765,0.0156 h 0.002 l 0.41602,1.0918 z"
               transform="translate(466.70083,-149.70622)" />
            <path
               d="m 274.6596,133.7389 -2.2551,1.7317 -1.3832,-0.8063 -0.1249,-1.6418 -0.5738,-0.8246 -1.2156,-1.2726 -2.714,0.0803 -0.5918,0.8219 -3.904,0.2437 -4.7025,-1.8541 -3.1396,0.4756 -0.167,4.2161 1.3665,-0.008 0.2731,-0.1376 0.2731,-0.002 0.6631,-3.284 2.1922,1.0794 -0.1241,2.0511 0.8204,-0.005 0.4091,-0.14 z m 33.0141,14.5065 v 0 l 0.9564,-0.2787 -0.2776,-0.5454 -0.5473,-0.1328 z m 6.1311,-3.0436 v 0 l -2.1895,-0.3966 -5.7318,0.9916 -0.6759,1.3703 -1.2268,0.2802 1.7757,-0.0103 2.5869,-1.6556 1.7765,-0.0106 0.4139,0.4089 -1.0943,0.1434 0.686,0.4059 3.5568,0.66 z m 18.6369,8.632 v 0 l 4.2412,0.5202 0.5416,-0.8227 -2.6023,-0.9402 0.9553,-0.4166 -1.2321,0.008 -0.551,-0.8156 z m 9.5737,1.0348 v 0 l 0.6777,-0.8232 -3.279,0.0196 0.1432,0.8187 z m 9.1811,4.044 v 0 l 0.8174,-0.5505 -0.6878,-0.5422 -0.6803,0.4115 z m -23.8389,-9.9667 v 0 l 0.2683,-0.6865 -1.3626,0.5558 z m -13.6753,-1.5569 v 0 l 2.4627,0.3956 1.2395,1.6314 1.7767,0.1254 0.2787,0.6825 -1.2242,0.9648 5.4651,-0.171 1.7712,-0.6933 -3.2846,-0.801 0.1342,-0.8196 -2.4645,-0.3964 -5.6194,-2.9709 -0.4129,-0.1347 z m 18.7594,6.4448 v 0 l 4.2412,0.5202 0.5416,-0.8227 -2.6023,-0.9402 0.9553,-0.4166 -1.2321,0.008 -0.551,-0.8156 -5.6669,-0.4117 -1.0661,0.5478 1.1823,0.2707 -0.1745,0.745 0.7771,1.2451 -3.5367,-0.2293 -0.3919,0.381 1.1518,0.7045 3.5086,-0.432 1.4869,1.2258 z m 9.5737,1.0348 v 0 l 0.6777,-0.8232 -3.279,0.0196 0.1432,0.8187 z m 9.1811,4.044 v 0 l 0.8174,-0.5505 -0.6878,-0.5422 -0.6803,0.4115 z m -23.8389,-9.9667 v 0 l 0.2683,-0.6865 -1.3626,0.5558 z m 5.0859,4.8879 v 0 l 4.2394,0.5202 0.5416,-0.8227 -2.6023,-0.9402 0.9553,-0.4166 -1.2321,0.008 -0.551,-0.8156 -3.7268,-0.3012 z m -18.7612,-6.4448 v 0 l 0.1215,-2.1866 z m 28.3331,7.4796 v 0 l 0.6777,-0.8232 -3.279,0.0196 0.1424,0.8187 z m 9.1811,4.044 v 0 l 0.8166,-0.5515 -0.6878,-0.5414 -0.6795,0.4117 z m -23.8389,-9.9667 v 0 l 0.2683,-0.6865 -1.3626,0.5558 z m -73.4695,-14.0371 v 0 l 0.002,0.4104 1.6543,2.175 -0.8122,1.0984 0.4113,0.4084 -1.5036,0.008 1.3774,1.6327 0.8166,-0.5523 0.9664,1.6338 -0.6705,2.3274 2.3375,2.1718 0.1434,1.229 1.0906,-0.6897 -0.148,-1.5012 -1.2313,-0.5404 -0.0247,-3.9628 -1.2432,-2.0421 0.1299,-1.2313 -1.383,-2.7233 z m 4.6439,-0.3015 v 0 l 0.0109,1.7756 0.9673,1.7704 0.9582,-0.006 -0.4054,1.0956 1.7884,1.7661 -0.813,1.0982 1.7831,1.0823 0.005,0.6836 2.4783,3.1286 0.8365,2.7257 -0.9481,1.3734 0.5499,0.2699 -0.9564,0.4166 0.2787,0.6819 2.89,3.2618 2.7358,0.529 1.3758,1.3591 1.9164,0.6718 z m -0.3982,1.7775 v 0 l 0.1397,0.4096 0.2676,-0.8208 z m 0.1397,0.4096 v 0 l 0.2676,-0.8208 -0.4073,0.4112 z m 1.488,-2.3319 v 0 l -0.4091,0.14 -0.8204,0.005 0.0109,1.7756 0.9673,1.7704 0.9582,-0.006 -0.4054,1.0956 1.7884,1.7661 -0.813,1.0982 1.7831,1.0823 0.005,0.6836 2.4783,3.1286 0.8365,2.7257 -0.9481,1.3734 0.5499,0.2699 -0.9564,0.4166 0.2787,0.6819 2.89,3.2618 2.7358,0.529 1.3758,1.3591 1.9164,0.6718 -0.004,-0.4109 0.1352,-0.2737 3.4344,-19.6992 -0.002,-0.2731 0.1333,-0.2749 -0.003,-0.5462 0.1341,-0.2742 -3.4198,-1.9798 0.1353,-0.2736 -0.003,-0.2726 0.135,-0.2742 z m -5.8734,0.4463 v 0 l 0.002,0.4104 1.6543,2.175 -0.8122,1.0984 0.4113,0.4084 -1.5036,0.008 1.3774,1.6327 0.8166,-0.5523 0.9664,1.6338 -0.6705,2.3274 2.3375,2.1718 0.1434,1.229 1.0906,-0.6897 -0.148,-1.5012 -1.2313,-0.5404 -0.0247,-3.9628 -1.2432,-2.0421 0.1299,-1.2313 -1.383,-2.7233 -0.2731,0.002 -0.2731,0.1376 z m 4.2457,1.476 v 0 l 0.1397,0.4096 0.2676,-0.8208 z m 44.6239,34.85 v 0 l -0.548,-0.5444 0.959,0.5417 3.8265,-0.0238 -1.7924,-2.722 1.5996,-6.1584 -0.4194,-1.912 -3.2891,-1.3458 -6.2809,0.7212 -1.5063,-0.4012 -0.5955,0.007 0.5372,-3.8459 1.064,-1.2655 0.5581,0.0594 0.5865,-0.8437 0.2813,1.2289 1.0778,-2.7413 -0.6859,-0.1315 2.1675,-3.2928 -2.5997,-0.3942 -4.2301,1.1191 -1.2074,3.423 -1.7667,1.7868 -1.5054,-0.4012 -4.0912,1.3926 -1.3734,-1.2213 -1.2287,0.007 -2.7734,-6.4063 -0.005,-0.9548 0.6613,-3.6948 0.2633,-1.3678 0.8182,-0.2787 -0.2694,0.6843 0.9474,-1.7812 -3.1425,-0.6994 -0.5032,-2.1259 -2.0817,-3.6227 -1.5502,-0.2906 -0.135,0.2742 0.003,0.2726 -0.1353,0.2736 3.4198,1.9798 -0.1341,0.2742 0.003,0.5462 -0.1333,0.2749 0.002,0.2731 -3.4344,19.6992 -0.1352,0.2737 0.004,0.4109 6.1638,2.1472 4.5013,-1.12 5.6276,4.2012 5.612,1.4707 -0.5488,-0.272 2.732,-0.4258 0.1424,1.0926 -0.8193,0.005 3.9835,3.6648 -0.5425,0.4128 0.548,0.2705 0.008,1.5044 z m 10.4169,4.9907 v 0 l -0.9646,-1.4959 0.9527,-0.5536 -0.004,-0.6814 0.1345,-0.411 -0.006,-0.8211 -2.3155,1.3819 -1.7812,-0.8092 0.2768,0.5424 -0.9564,-0.1288 -1.5163,-2.0405 -3.8265,0.0238 0.1371,0.1342 2.3348,1.9 0.008,1.2284 0.6825,-0.005 -0.2768,-0.6796 1.1027,1.4962 0.2694,-0.684 2.0496,0.2603 0.5554,1.0879 0.9519,-0.551 0.2832,1.4997 0.9571,-0.005 z m -11.7834,-4.9825 v 0 l 0.003,0.2731 1.0964,0.6758 0.5443,-0.5499 -0.2768,-0.4072 z"
               style="fill:#d0b4cc;fill-rule:evenodd;stroke-width:0.572111"
               id="path1909" />
          </g>
          <g
             id="Layer1003"
             style="stroke-width:0.572111">
            <path
               d="m 356.3417,315.0403 c -15.074,15.4685 -34.5153,26.7253 -55.5464,32.3735 -10.5277,2.791 -21.4584,4.1332 -32.3867,3.9628 -10.9305,-0.162 -21.8456,-1.931 -32.3175,-5.1554 -20.9655,-6.4156 -40.0427,-18.949 -54.3477,-35.6545 -14.3351,-16.7002 -23.7617,-37.4533 -27.3563,-59.1334 -3.572,-21.6999 -1.2822,-44.3094 6.4996,-64.8432 7.7789,-20.4928 20.7816,-39.0821 37.6999,-53.0058 8.4329,-6.9774 17.7614,-12.8687 27.7114,-17.3809 9.9466,-4.5138 20.478,-7.711 31.2364,-9.4221 21.5197,-3.393 43.9054,-0.718 63.7547,7.8188 -10.1363,-3.7035 -20.6849,-6.2161 -31.3812,-7.1592 -10.6907,-0.9524 -21.4861,-0.3956 -31.9855,1.5922 -21.0295,3.8811 -40.8514,13.5024 -56.9927,27.3336 -8.0659,6.9243 -15.2235,14.8834 -21.276,23.6007 -6.0415,8.7191 -10.9717,18.2154 -14.6327,28.1676 -7.3894,19.871 -9.5486,41.652 -6.0377,62.5401 3.3774,20.8969 12.4314,40.8725 26.113,57.0411 6.8106,8.1015 14.7693,15.2428 23.5737,21.1428 8.8114,5.8866 18.4256,10.6062 28.5178,13.9091 20.1923,6.6176 42.2643,7.4169 63.0549,2.4426 10.4085,-2.4317 20.5095,-6.2737 29.9556,-11.3755 4.7249,-2.5479 9.2822,-5.4167 13.6456,-8.5629 4.3772,-3.1291 8.5532,-6.5504 12.4978,-10.232 z"
               style="fill:#67306c;fill-rule:evenodd;stroke-width:0.572111"
               id="path1912" />
          </g>
          <g
             id="Layer1004"
             style="stroke-width:0.572111">
            <g
               id="g6403" />
            <path
               d="m 174.2612,148.2653 c 0.7244,-0.802 1.4085,-1.5919 2.0504,-2.3788 1.3054,-1.5914 2.2871,-2.8788 2.9333,-3.851 0.4397,-0.685 0.8543,-1.431 1.2224,-2.2417 l -2.3638,-3.207 0.6562,-0.8092 c 1.4354,1.5221 2.7953,2.9071 4.097,4.1655 -0.5029,0.862 -1.2935,1.9505 -2.378,3.2728 l -5.0307,5.9667 c -0.6752,0.8115 -1.6574,2.1103 -2.9792,3.9028 l -0.6752,-0.55 c 0.2608,-0.913 0.2682,-1.5718 0.0307,-1.9687 -0.2423,-0.4006 -1.529,-1.5554 -3.8695,-3.462 l -6.9695,-5.691 c -2.5393,-2.0689 -3.9958,-3.16 -4.3869,-3.2797 -0.3893,-0.1134 -0.8166,0.1083 -1.2822,0.6723 l -1.1326,1.3863 -0.8052,-0.6551 c 1.6978,-1.9783 2.8167,-3.2853 3.3576,-3.9467 0.7199,-0.8847 1.6664,-2.0911 2.8395,-3.6457 l 0.8057,0.6615 -1.2819,1.5681 c -0.3636,0.446 -0.4667,0.8419 -0.3055,1.1659 0.1625,0.3284 1.1818,1.2655 3.0659,2.8016 l 8.0773,6.5953 3.6115,2.8854 z"
               style="fill:#67306c;fill-rule:evenodd;stroke:#67306c;stroke-width:0.405455;stroke-linecap:butt;stroke-linejoin:miter;stroke-dasharray:none"
               id="path1915" />
            <path
               d="m 177.7235,128.9329 -0.7314,-0.8213 -0.7838,-0.8211 0.6263,-1.9584 c 0.2854,-0.8858 0.594,-1.595 0.9206,-2.1349 0.3317,-0.5375 0.7466,-1.0414 1.2492,-1.5079 1.1043,-1.0266 2.225,-1.6027 3.3685,-1.7324 1.1402,-0.1298 2.1291,0.1305 2.9816,0.7713 0.6244,0.4926 2.0086,1.8741 4.1435,4.1396 2.006,2.1376 3.1528,3.2773 3.4409,3.4367 0.2859,0.1498 0.5871,0.0777 0.9103,-0.2196 l 0.9323,-0.8663 0.7265,0.7915 c -0.9582,0.7965 -1.6215,1.3591 -1.9775,1.6928 -0.4582,0.4181 -1.0377,1.001 -1.7459,1.7438 l -0.973,-1.0813 c -0.3182,-0.338 -0.6429,-0.6871 -0.9772,-1.0306 l -0.736,4.2109 c -0.0652,0.3718 -0.1786,0.6979 -0.3369,0.9638 -0.1488,0.2642 -0.4228,0.579 -0.8039,0.9222 -1.0395,0.9659 -2.0638,1.4397 -3.0849,1.4339 -1.0131,-0.002 -1.9209,-0.4382 -2.711,-1.3015 -0.7415,-0.8083 -1.2076,-1.6965 -1.3789,-2.6573 -0.1733,-0.9688 -0.0309,-1.9333 0.4239,-2.8794 0.4492,-0.9558 1.7647,-2.8767 3.9564,-5.7539 -0.9502,-1.0021 -1.8817,-1.5517 -2.7747,-1.6606 -1.132,-0.1274 -2.2068,0.2748 -3.217,1.2071 -0.3819,0.3536 -0.7037,0.7384 -0.9577,1.139 -0.2481,0.4064 -0.4318,0.8401 -0.5483,1.2972 0.3018,0.787 0.5983,1.5364 0.8929,2.2383 z m 8.0997,-3.9456 v 0 c -1.7842,2.5432 -2.7881,4.3005 -2.9953,5.2764 -0.2162,0.9788 0.0811,1.9074 0.9027,2.795 0.5467,0.5962 1.1596,0.9104 1.8318,0.9526 0.6733,0.0365 1.2832,-0.1992 1.8258,-0.7018 0.6109,-0.5513 1.0295,-1.2587 1.2713,-2.0953 0.2323,-0.8435 0.2941,-1.8321 0.1784,-2.9634 l -2.4869,-2.6478 z"
               style="fill:#67306c;fill-rule:evenodd;stroke:#67306c;stroke-width:0.405455;stroke-linecap:butt;stroke-linejoin:miter;stroke-dasharray:none"
               id="path1917" />
            <path
               d="m 193.1841,113.5851 3.8798,5.134 c 1.0137,1.335 1.6997,2.1526 2.0683,2.4637 0.3729,0.3102 0.7764,0.4669 1.1958,0.4777 0.422,0.0106 0.8385,-0.1424 1.2486,-0.4524 0.2532,-0.1926 0.468,-0.431 0.626,-0.7013 0.1686,-0.2814 0.2939,-0.6102 0.3814,-0.9865 l 0.7245,0.1713 -0.1392,2.4684 c -0.2112,0.3018 -0.4316,0.5795 -0.6551,0.8303 -0.2252,0.2494 -0.4677,0.4762 -0.7095,0.654 -0.6488,0.4847 -1.2782,0.7843 -1.9093,0.9014 -0.6152,0.106 -1.177,0.0486 -1.6563,-0.1757 -0.4799,-0.2122 -1.0119,-0.6961 -1.57,-1.449 l -1.8593,-2.5672 -3.7654,-4.9818 c -0.6741,0.5064 -1.3511,1.0584 -2.0252,1.6551 l -0.4144,-0.5476 c 0.5449,-0.8435 1.019,-1.6669 1.4307,-2.4464 -0.9463,-1.2402 -2.0118,-2.5625 -3.1727,-3.9734 0.6887,-1.1955 1.1723,-2.099 1.4188,-2.6999 l 0.5433,0.006 c 0.445,0.7294 1.5872,2.3876 3.4298,4.9921 1.0655,-0.8073 1.9219,-1.4743 2.571,-2.0036 l 1.0155,-0.8348 0.8498,1.4164 -0.5417,0.3893 -2.5041,1.9071 z"
               style="fill:#67306c;fill-rule:evenodd;stroke:#67306c;stroke-width:0.405455;stroke-linecap:butt;stroke-linejoin:miter;stroke-dasharray:none"
               id="path1919" />
            <path
               d="m 196.9796,98.4784 c 0.4284,-0.2576 0.8953,-0.3285 1.3892,-0.2072 0.4963,0.1248 0.8776,0.4067 1.1397,0.8446 0.2683,0.4418 0.3388,0.9016 0.2136,1.3947 -0.1253,0.4953 -0.4091,0.8708 -0.8322,1.1276 -0.441,0.263 -0.9138,0.3425 -1.4013,0.2217 -0.499,-0.1189 -0.8745,-0.3985 -1.1363,-0.84 -0.2648,-0.4324 -0.3396,-0.8959 -0.2106,-1.4011 0.1146,-0.4908 0.4006,-0.8713 0.8379,-1.1403 z m 4.8259,5.5193 v 0 l 0.4658,0.0108 c 0.3631,0.732 0.7896,1.534 1.2809,2.3873 1.5868,2.7633 2.772,4.7941 3.5556,6.0972 0.7415,1.2153 1.4119,2.234 2.0046,3.0429 0.2458,0.3115 0.4783,0.4902 0.6955,0.5367 0.2175,0.0457 0.6099,-0.0568 1.1849,-0.3126 l 1.0322,-0.4461 0.4857,0.8047 c -1.4087,0.7721 -2.6729,1.4893 -3.7971,2.1735 -1.108,0.6646 -2.2128,1.372 -3.3016,2.1085 l -0.4862,-0.8028 1.1313,-0.8605 c 0.4534,-0.3237 0.6886,-0.5826 0.7182,-0.7925 0.0206,-0.1908 -0.1797,-0.6849 -0.6186,-1.4719 -0.6715,-1.2208 -1.6363,-2.8761 -2.8968,-4.9664 -0.8749,-1.4592 -1.5773,-2.5649 -2.1043,-3.3265 -0.1902,-0.2753 -0.3905,-0.431 -0.6146,-0.4637 -0.2204,-0.0352 -0.5848,0.1009 -1.0961,0.4032 l -1.0484,0.6382 -0.4907,-0.7996 c 1.0393,-0.8581 1.7859,-1.5192 2.2438,-1.9867 0.4506,-0.4675 1.0042,-1.1226 1.6559,-1.9737 z"
               style="fill:#67306c;fill-rule:evenodd;stroke:#67306c;stroke-width:0.405455;stroke-linecap:butt;stroke-linejoin:miter;stroke-dasharray:none"
               id="path1921" />
            <path
               d="m 212.849,101.3221 1.3078,-3.0509 c 0.1466,-0.3554 0.3472,-0.6646 0.5903,-0.9098 0.5523,-0.5238 1.1548,-0.9381 1.7986,-1.241 1.0646,-0.4991 2.0762,-0.7134 3.0442,-0.6397 0.9714,0.069 1.7882,0.3723 2.4512,0.899 0.6546,0.5269 1.3221,1.5279 2.0121,2.9945 l 2.128,4.7004 c 0.7592,1.6214 1.2608,2.5114 1.5103,2.6925 0.3445,0.2312 0.7761,0.2211 1.3284,-0.0296 l 1.0636,-0.5085 0.3974,0.8541 c -1.0903,0.4331 -2.021,0.8348 -2.7889,1.1984 -0.7524,0.347 -1.5486,0.7605 -2.3812,1.2277 -0.7133,-2.017 -1.8453,-4.6657 -3.3785,-7.9504 -0.6245,-1.3138 -1.1815,-2.2009 -1.6635,-2.646 -0.4902,-0.4394 -1.0948,-0.7023 -1.7941,-0.7848 -0.705,-0.0801 -1.4346,0.0647 -2.2068,0.4196 -0.9481,0.4461 -1.6476,1.0661 -2.0897,1.8591 -0.4403,0.8065 -0.6017,1.5232 -0.4794,2.1841 0.083,0.4296 0.5029,1.4621 1.2661,3.0949 0.8464,1.8057 1.6518,3.4853 2.41,5.0198 0.2217,0.4596 0.4276,0.7127 0.6152,0.7759 0.3591,0.1131 0.8205,0.0267 1.3879,-0.2378 l 1.0681,-0.4963 0.3972,0.8498 c -1.7122,0.7294 -3.0691,1.3216 -4.0609,1.7922 -1.0607,0.4939 -2.2496,1.0866 -3.5661,1.7756 l -0.3982,-0.8467 1.0742,-0.5074 c 0.7375,-0.347 1.0905,-0.7182 1.0546,-1.1075 -0.0367,-0.3974 -0.9339,-2.488 -2.6983,-6.2407 -0.7862,-1.6888 -1.4288,-3.003 -1.9151,-3.9453 -0.1707,-0.3063 -0.3448,-0.486 -0.5433,-0.5346 -0.1939,-0.0558 -0.6136,0.0732 -1.2674,0.375 l -1.0678,0.4994 -0.4001,-0.8527 c 0.8047,-0.4934 1.5002,-0.9881 2.0974,-1.4738 0.5954,-0.4894 1.2322,-1.0993 1.9124,-1.8469 0.0751,-0.0882 0.1464,-0.1443 0.2307,-0.1807 0.1557,-0.0708 0.2899,0.0018 0.3951,0.2286 l 0.2481,0.5745 z"
               style="fill:#67306c;fill-rule:evenodd;stroke:#67306c;stroke-width:0.405455;stroke-linecap:butt;stroke-linejoin:miter;stroke-dasharray:none"
               id="path1923" />
            <path
               d="m 229.5164,95.3409 -0.2944,-1.0615 -0.3443,-1.0824 1.4344,-1.4735 c 0.6408,-0.6757 1.2327,-1.1759 1.7657,-1.5155 0.5312,-0.3391 1.1239,-0.6104 1.783,-0.7983 1.4428,-0.4289 2.7078,-0.4561 3.7836,-0.0695 1.0829,0.3839 1.8622,1.0591 2.3368,2.0112 0.3414,0.7122 0.9793,2.5601 1.895,5.5304 0.8596,2.8056 1.3865,4.3425 1.5742,4.6078 0.1889,0.2571 0.4941,0.3256 0.9185,0.1977 l 1.2145,-0.3539 0.3055,1.0277 c -1.215,0.292 -2.054,0.5063 -2.5265,0.6437 -0.5949,0.1763 -1.3641,0.4411 -2.3316,0.8007 l -0.3977,-1.4024 c -0.135,-0.4436 -0.2753,-0.899 -0.4228,-1.3569 l -2.5181,3.4522 c -0.2204,0.2994 -0.4709,0.5457 -0.7298,0.7156 -0.2458,0.1731 -0.6335,0.3351 -1.1334,0.4781 -1.3491,0.4104 -2.4803,0.3837 -3.3947,-0.073 -0.9074,-0.4521 -1.53,-1.2454 -1.8627,-2.3635 -0.3116,-1.0578 -0.3377,-2.0577 -0.0629,-3.0046 0.2772,-0.941 0.8284,-1.7388 1.6537,-2.3915 0.8203,-0.6556 2.8511,-1.7948 6.0908,-3.4224 -0.4151,-1.3123 -1.0049,-2.2195 -1.7692,-2.7118 -0.9563,-0.6077 -2.0884,-0.7261 -3.4102,-0.3342 -0.5071,0.1487 -0.9611,0.3493 -1.363,0.6003 -0.4025,0.2609 -0.7547,0.5645 -1.0605,0.9252 -0.0806,0.8414 -0.1474,1.6437 -0.1939,2.4005 z m 9.009,0.0351 v 0 c -2.725,1.4944 -4.3967,2.6291 -5.0174,3.4116 -0.6268,0.7814 -0.7679,1.7525 -0.4215,2.9079 0.2257,0.7668 0.6453,1.3281 1.2304,1.6682 0.5858,0.3309 1.2343,0.3877 1.9468,0.171 0.789,-0.2297 1.4758,-0.676 2.0643,-1.3258 0.5835,-0.6614 1.0711,-1.5076 1.4667,-2.5775 l -1.0674,-3.4763 z"
               style="fill:#67306c;fill-rule:evenodd;stroke:#67306c;stroke-width:0.405455;stroke-linecap:butt;stroke-linejoin:miter;stroke-dasharray:none"
               id="path1925" />
            <path
               d="m 248.0992,96.7985 0.1945,1.0499 c 0.1545,0.8382 0.3226,1.3443 0.5142,1.5208 0.3433,0.2904 0.955,0.5259 1.8276,0.6961 0.8757,0.1781 1.7348,0.1807 2.6056,0.0219 1.1075,-0.2016 1.9568,-0.6672 2.549,-1.3992 0.5909,-0.7201 0.8123,-1.4963 0.6611,-2.3276 -0.1234,-0.6517 -0.4199,-1.1379 -0.905,-1.4666 -0.4752,-0.3163 -1.3166,-0.4908 -2.5099,-0.514 -2.2137,-0.0341 -3.6906,-0.1546 -4.4321,-0.3573 -0.7526,-0.1892 -1.3493,-0.5325 -1.7914,-1.0005 -0.4456,-0.4788 -0.7341,-1.0942 -0.8771,-1.8593 -0.2603,-1.4275 0.0513,-2.6856 0.9249,-3.7704 0.8786,-1.0829 2.2721,-1.8067 4.171,-2.1523 1.5158,-0.277 3.0738,-0.2529 4.6847,0.0866 0.0452,0.7466 0.1908,1.9791 0.4429,3.712 l -0.9547,0.1737 c -0.1964,-0.9371 -0.4167,-1.5359 -0.6607,-1.8078 -0.3107,-0.3517 -0.8279,-0.6308 -1.5511,-0.8348 -0.7133,-0.2022 -1.4344,-0.2294 -2.1786,-0.0959 -0.9909,0.1828 -1.7253,0.5776 -2.2205,1.1807 -0.4939,0.6099 -0.6702,1.2903 -0.5367,2.0392 0.1311,0.7188 0.4638,1.2222 0.9991,1.5018 0.5254,0.2949 1.8829,0.4551 4.0553,0.4918 1.607,0.0243 2.6775,0.1252 3.2197,0.2989 0.5483,0.1826 1.02,0.5153 1.4212,1.0062 0.3977,0.4902 0.6704,1.0925 0.7983,1.7991 0.2664,1.459 -0.1266,2.818 -1.168,4.0968 -1.0528,1.2795 -2.6114,2.1116 -4.685,2.4961 -1.3295,0.2431 -2.8408,0.3055 -4.5645,0.1863 -0.301,-0.0166 -0.4725,-0.0993 -0.5026,-0.2505 l 0.0127,-0.2394 c 0.014,-0.163 0.001,-0.4585 -0.0386,-0.8726 -0.0957,-1.0633 -0.2009,-1.8817 -0.3,-2.4631 l -0.1598,-0.7613 z"
               style="fill:#67306c;fill-rule:evenodd;stroke:#67306c;stroke-width:0.405455;stroke-linecap:butt;stroke-linejoin:miter;stroke-dasharray:none"
               id="path1927" />
            <path
               d="m 147.3431,186.6929 c 0.8712,0.3478 1.771,0.621 2.7051,0.8203 0.9847,0.2103 2.1112,0.367 3.3767,0.4743 0.2571,1.5433 0.3618,3.2393 0.319,5.1028 -0.0405,1.8617 -0.2331,3.6023 -0.5716,5.241 -0.5378,2.5173 -1.4968,4.6321 -2.891,6.3228 -1.3889,1.7016 -3.0754,2.8778 -5.0536,3.5294 -1.9761,0.6483 -4.0698,0.7384 -6.3107,0.2685 -2.3056,-0.4907 -4.2466,-1.4785 -5.8084,-2.9596 -1.5731,-1.4801 -2.6433,-3.3083 -3.2297,-5.4812 -0.5774,-2.177 -0.5515,-4.7707 0.0912,-7.785 0.2576,-1.2225 0.5758,-2.3405 0.9545,-3.3474 0.3747,-1.0004 0.9877,-2.2786 1.8194,-3.8446 l 0.6469,-1.2899 c 1.0752,0.5389 2.6076,1.1015 4.597,1.695 l -0.2143,1.0224 -1.0565,-0.2257 c -1.0462,-0.2204 -1.6794,-0.2677 -1.8985,-0.1292 -0.4051,0.2384 -1.0057,1.0068 -1.8011,2.2676 -0.801,1.2711 -1.3892,2.7903 -1.7605,4.5621 -0.6625,3.1325 -0.3298,5.7127 1.0068,7.7327 1.4505,2.1959 3.6917,3.6197 6.7137,4.2661 2.9073,0.6099 5.5282,0.3113 7.8629,-0.9059 2.7539,-1.4211 4.481,-3.8008 5.1921,-7.1309 0.3618,-1.7272 0.3782,-3.689 0.0458,-5.8649 -0.8853,-0.2521 -1.8398,-0.4942 -2.8566,-0.7127 -1.3216,-0.2759 -2.0808,-0.4152 -2.2906,-0.4115 -0.2127,-0.004 -0.3488,0.0492 -0.4374,0.1438 -0.0824,0.1039 -0.2737,0.649 -0.5665,1.6323 l -0.5703,1.8672 -1.0182,-0.2095 c 0.629,-2.4306 1.0761,-4.245 1.3242,-5.4257 0.2199,-1.0333 0.3541,-1.9257 0.3977,-2.6857 l 0.7867,0.1647 z"
               style="fill:#67306c;fill-rule:evenodd;stroke:#67306c;stroke-width:0.405455;stroke-linecap:butt;stroke-linejoin:miter;stroke-dasharray:none"
               id="path1943" />
            <path
               d="m 150.127,179.4882 c 2.011,0.7674 3.7339,0.8903 5.1691,0.3467 1.4307,-0.5351 2.4753,-1.5884 3.128,-3.1581 0.2923,-0.7074 0.4672,-1.4592 0.5187,-2.2448 0.0532,-0.7939 -5e-4,-1.6353 -0.1923,-2.5118 l 0.3424,-0.1578 1.0637,1.0127 c 0.1361,1.0332 0.1358,2.0482 0.0142,3.0297 -0.1234,0.9896 -0.3815,1.9592 -0.7716,2.8949 -0.8512,2.0485 -2.1909,3.425 -4.0053,4.1433 -1.8215,0.7092 -3.8375,0.608 -6.0626,-0.3097 -1.6907,-0.7019 -3.0125,-1.6659 -3.958,-2.8931 -0.6281,-0.8057 -1.02,-1.9737 -1.1984,-3.5141 -0.185,-1.5329 -0.0209,-2.8986 0.472,-4.0759 0.7362,-1.7853 1.8527,-2.976 3.3357,-3.5822 1.4869,-0.6054 3.1657,-0.518 5.0626,0.2666 l 0.8852,0.4017 c -0.1236,0.7364 -0.2817,1.4108 -0.4746,2.0318 -0.3797,1.1152 -0.9632,2.6283 -1.7567,4.5392 z m -1.0938,-0.5034 v 0 c 0.7104,-1.5332 1.4614,-3.2474 2.2409,-5.1392 0.315,-0.751 0.5885,-1.5013 0.8042,-2.2414 l -0.8412,-0.3478 c -0.8934,-0.3705 -1.8069,-0.5462 -2.7461,-0.5206 -0.5949,0.018 -1.1585,0.2294 -1.7256,0.6461 -0.5491,0.4207 -0.9846,0.9971 -1.2927,1.7227 -0.4691,1.1297 -0.4308,2.202 0.121,3.2337 0.547,1.014 1.6886,1.9026 3.4395,2.6465 z"
               style="fill:#67306c;fill-rule:evenodd;stroke:#67306c;stroke-width:0.405455;stroke-linecap:butt;stroke-linejoin:miter;stroke-dasharray:none"
               id="path1945" />
            <path
               d="m 155.6925,166.6964 c -1.33,-0.7148 -2.3675,-1.6624 -3.1108,-2.8524 -0.7418,-1.1905 -1.117,-2.5073 -1.1316,-3.9416 -0.009,-1.4384 0.3557,-2.864 1.1186,-4.2807 1.0977,-2.0483 2.5807,-3.3717 4.4572,-3.9533 1.8744,-0.5795 3.8172,-0.3382 5.8483,0.7505 2.3852,1.2732 3.8528,3.0981 4.3967,5.4513 0.4939,2.1183 0.2061,4.1753 -0.8633,6.1765 -1.0367,1.9233 -2.5224,3.1457 -4.4546,3.661 -1.9521,0.5108 -4.0312,0.1768 -6.2605,-1.0113 z m 0.4389,-3.2691 v 0 c 1.9851,1.0604 3.9036,1.5612 5.7463,1.502 1.8506,-0.0565 3.1795,-0.8512 4.0013,-2.3846 0.6221,-1.1612 0.681,-2.3355 0.1816,-3.5323 -0.5045,-1.1895 -1.6498,-2.2708 -3.4562,-3.2301 -1.45,-0.7851 -2.8233,-1.2449 -4.1174,-1.3878 -1.2933,-0.1451 -2.3669,-0.005 -3.2186,0.4275 -0.8568,0.431 -1.5208,1.0808 -1.9788,1.9312 -0.4075,0.7677 -0.5808,1.556 -0.5253,2.3767 0.056,0.8142 0.3414,1.5391 0.8289,2.1762 0.6565,0.8675 1.5113,1.5765 2.5382,2.1212 z"
               style="fill:#67306c;fill-rule:evenodd;stroke:#67306c;stroke-width:0.405455;stroke-linecap:butt;stroke-linejoin:miter;stroke-dasharray:none"
               id="path1947" />
          </g>
          <g
             id="Layer1005"
             style="stroke-width:0.572111">
            <g
               id="Layer1006"
               style="stroke-width:0.572111">
              <path
                 d="m 294.3151,318.5603 c -0.066,-0.041 -0.0687,-0.0903 0.002,-0.1488 0.0226,-0.0201 0.0602,-0.0393 0.1088,-0.057 z m -49.1242,-102.135 v 0 c -4.3677,0.2927 -5.3269,0.0444 -9.8859,0.8629 -10.5943,1.9018 -15.0246,9.993 -17.0902,10.979 -3.1963,1.5253 -5.5972,13.8631 -4.7539,16.8426 0.6017,2.1266 0.8384,4.4638 -0.4605,6.0241 -3.456,4.1502 -2.1581,-0.9758 -6.3081,7.0545 -0.8937,1.7312 -8.9046,5.5268 -4.4849,13.1131 3.6276,6.2282 1.7493,5.1427 7.7492,9.7236 3.12,2.3826 1.6139,10.1376 12.9637,10.4078 4.3748,0.1036 8.7097,-2.2528 12.0184,-4.9813 1.5122,-1.2469 2.4924,-6.2016 5.9979,-1.7353 1.0221,1.3037 5.2265,1.9115 6.5333,4.7313 0.0241,0.051 1.178,1.461 1.4542,1.9351 1.7312,2.972 4.7474,11.6244 1.5438,13.8145 -3.2897,2.2497 -5.8219,4.8085 -10.0461,7.0111 -0.007,0.003 -1.9545,1.3054 -0.804,1.1238 1.8773,3.2228 3.7383,-0.5879 8.4801,-0.685 6.0792,-0.1235 14.0087,-2.2583 20.4292,0.8222 0.1828,0.0878 0.2877,-0.1498 0.578,0.1966 1.6615,0.4405 3.2776,0.1874 5.6714,0.8762 3.4303,0.9884 4.1745,1.394 8.0111,1.5445 2.5387,0.1005 5.0442,2.0948 8.6366,2.0807 0.0702,0 1.7914,0.1403 3.2412,0.2658 -2.9827,-0.5896 7.4676,-9.9461 4.6939,-12.2441 -2.2496,-2.2938 -12.4807,-2.522 -17.0215,-7.6113 -2.1392,-2.3975 -7.6072,-9.5675 -5.4255,-12.9182 1.6374,-2.5154 -0.0117,-6.9991 8.9568,-9.9068 2.3406,-0.7593 10.5976,-1.3472 5.6228,-6.3846 -2.0229,-2.0489 -4.324,-2.7472 -1.684,-6.7527 2.4132,-3.6626 -9.3107,-1.2433 -3.6017,-4.569 4.4896,-2.6159 1.5319,-3.8468 -0.7804,-5.2733 -0.9942,-1.0637 -3.0186,0.6304 0.276,-7.1824 1.3933,-3.3031 -4.8718,-1.4659 -8.44,-4.7942 -1.419,-1.3229 -2.3147,-1.235 -3.6106,-3.4611 0.0335,-1.0981 -7.6048,-14.1833 -9.4022,-16.0683 -1.8135,-1.9016 -2.6341,-2.0261 -5.9263,-3.8692 z"
                 style="fill:#d0b4cc;fill-rule:evenodd;stroke-width:0.572111"
                 id="path1956" />
              <path
                 d="m 294.3151,318.5603 c -0.066,-0.041 -0.0687,-0.0903 0.002,-0.1488 0.0226,-0.0201 0.0602,-0.0393 0.1088,-0.057"
                 style="fill:none;stroke:#d0b4cc;stroke-width:0.286055;stroke-linecap:butt;stroke-linejoin:miter;stroke-dasharray:none"
                 id="path1958" />
              <path
                 d="m 245.1909,216.4253 c -4.3677,0.2927 -5.3269,0.0444 -9.8859,0.8629 -10.5943,1.9018 -15.0246,9.993 -17.0902,10.979 -3.1963,1.5253 -5.5972,13.8631 -4.7539,16.8426 0.6017,2.1266 0.8384,4.4638 -0.4605,6.0241 -3.456,4.1502 -2.1581,-0.9758 -6.3081,7.0545 -0.8937,1.7312 -8.9046,5.5268 -4.4849,13.1131 3.6276,6.2282 1.7493,5.1427 7.7492,9.7236 3.12,2.3826 1.6139,10.1376 12.9637,10.4078 4.3748,0.1036 8.7097,-2.2528 12.0184,-4.9813 1.5122,-1.2469 2.4924,-6.2016 5.9979,-1.7353 1.0221,1.3037 5.2265,1.9115 6.5333,4.7313 0.0241,0.051 1.178,1.461 1.4542,1.9351 1.7312,2.972 4.7474,11.6244 1.5438,13.8145 -3.2897,2.2497 -5.8219,4.8085 -10.0461,7.0111 -0.007,0.003 -1.9545,1.3054 -0.804,1.1238 1.8773,3.2228 3.7383,-0.5879 8.4801,-0.685 6.0792,-0.1235 14.0087,-2.2583 20.4292,0.8222 0.1828,0.0878 0.2877,-0.1498 0.578,0.1966 1.6615,0.4405 3.2776,0.1874 5.6714,0.8762 3.4303,0.9884 4.1745,1.394 8.0111,1.5445 2.5387,0.1005 5.0442,2.0948 8.6366,2.0807 0.0702,0 1.7914,0.1403 3.2412,0.2658 -2.9827,-0.5896 7.4676,-9.9461 4.6939,-12.2441 -2.2496,-2.2938 -12.4807,-2.522 -17.0215,-7.6113 -2.1392,-2.3975 -7.6072,-9.5675 -5.4255,-12.9182 1.6374,-2.5154 -0.0117,-6.9991 8.9568,-9.9068 2.3406,-0.7593 10.5976,-1.3472 5.6228,-6.3846 -2.0229,-2.0489 -4.324,-2.7472 -1.684,-6.7527 2.4132,-3.6626 -9.3107,-1.2433 -3.6017,-4.569 4.4896,-2.6159 1.5319,-3.8468 -0.7804,-5.2733 -1.1187,-1.0998 -3.0186,0.6304 0.276,-7.1824 1.3933,-3.3031 -4.8718,-1.4659 -8.44,-4.7942 -1.419,-1.3229 -2.3147,-1.235 -3.6106,-3.4611 0.0335,-1.0981 -7.3601,-13.2109 -9.4022,-16.0683 -1.2501,-1.7494 -3.7488,-2.7002 -5.9263,-3.8692"
                 style="fill:none;stroke:#d0b4cc;stroke-width:0.286055;stroke-linecap:butt;stroke-linejoin:miter;stroke-dasharray:none"
                 id="path1960" />
              <g
                 id="Layer1007"
                 style="stroke-width:0.572111">
                <path
                   d="m 262.4295,231.9341 c 3.4958,2.089 4.0764,5.5819 1.6569,9.8166 2.9576,2.8071 2.9147,6.3578 -0.1003,9.9886 2.3489,3.4329 1.7263,6.9492 -1.7394,9.8811 1.6821,3.9604 0.5204,7.3404 -3.2613,9.5046 0.9619,4.3651 -0.6974,7.5152 -4.6651,8.8515 0.1971,4.6352 -1.9166,7.4567 -5.9525,7.9276 -0.6044,4.7497 -3.1317,7.1472 -7.1191,6.7275 -1.4374,4.6944 -4.3361,6.5717 -8.1691,5.2581 -2.2935,4.4497 -5.3772,5.6362 -8.675,3.3676 -2.8324,3.9094 -5.8782,4.3643 -8.5706,1.3027 -3.2851,3.2774 -6.2165,3.0388 -8.2455,-0.6573 -3.6415,2.5599 -6.3814,1.6608 -7.7036,-2.5195 -3.8876,1.7627 -6.3591,0.2408 -6.9431,-4.2816 -4.0114,0.8957 -6.1357,-1.2124 -5.9661,-5.9347 -3.9961,-0.0425 -5.6974,-2.7002 -4.7711,-7.4934 -3.8274,-1.0394 -5.0296,-4.2128 -3.3565,-8.9468 -3.4968,-2.0924 -4.0769,-5.5836 -1.6571,-9.82 -2.9574,-2.8062 -2.9152,-6.3568 0.099,-9.9871 -2.3482,-3.4327 -1.7256,-6.9489 1.7406,-9.8826 -1.6816,-3.9594 -0.5206,-7.3387 3.2614,-9.5012 -0.9622,-4.3677 0.6969,-7.5162 4.6646,-8.8532 -0.1971,-4.6344 1.917,-7.4559 5.9522,-7.9283 0.6049,-4.7481 3.1317,-7.1448 7.1196,-6.7258 1.4379,-4.6947 4.3359,-6.5727 8.1693,-5.26 2.2938,-4.4478 5.377,-5.6353 8.6755,-3.3657 2.8314,-3.9087 5.8777,-4.3643 8.5696,-1.303 3.2856,-3.2771 6.2166,-3.038 8.2461,0.6573 3.6417,-2.5606 6.3804,-1.6625 7.7033,2.5195 3.8873,-1.7627 6.3593,-0.2417 6.9428,4.2799 4.0107,-0.8957 6.1363,1.2124 5.9661,5.9357 3.9964,0.0425 5.6977,2.7002 4.7716,7.4927 3.8267,1.0401 5.0297,4.2138 3.3568,8.9492 z"
                   style="fill:#d0b4cc;fill-rule:evenodd;stroke-width:0.572111"
                   id="path1962" />
              </g>
            </g>
            <g
               id="Layer1008"
               style="stroke-width:0.572111">
              <path
                 d="m 280.5826,322.6644 c -0.0653,-0.04 -0.0687,-0.0893 10e-4,-0.1488 0.0225,-0.0192 0.0602,-0.0393 0.1087,-0.0568 z m 0.3503,-0.1262 v 0 c -2.9829,-0.5903 7.4676,-9.9469 4.6937,-12.2448 -2.2494,-2.2931 -12.4805,-2.5223 -17.0213,-7.6114 -2.139,-2.3967 -7.6072,-9.5675 -5.4255,-12.9174 1.6372,-2.5161 -0.0119,-6.9991 8.957,-9.9076 2.3404,-0.7585 10.5974,-1.3464 5.6226,-6.3848 -2.0229,-2.0479 -4.3245,-2.746 -1.6843,-6.7515 2.4135,-3.6638 -9.3102,-1.2445 -3.6012,-4.5694 4.4894,-2.6157 1.5312,-3.8466 -0.7803,-5.2741 -1.6448,-1.2928 -3.0184,0.6306 0.2759,-7.1815 1.3931,-3.303 -4.8713,-1.4658 -8.44,-4.7941 -1.4192,-1.3237 -2.3144,-1.2351 -3.6108,-3.4621 0.0335,-1.0979 -6.93,-15.2486 -9.4022,-16.0674 -2.0409,-0.6765 -10.7331,-5.4012 -19.0583,-4.8425 -4.3675,0.2935 -5.3268,0.0452 -9.886,0.8639 -10.5942,1.9016 -15.0246,9.9928 -17.09,10.9788 -3.1965,1.5253 -5.5973,13.8621 -4.7536,16.8426 0.6015,2.1266 0.8379,4.4638 -0.4607,6.0234 -3.456,4.1509 -2.1584,-0.9761 -6.3076,7.0545 -0.8945,1.7309 -8.9051,5.5274 -4.4857,13.1138 3.6276,6.2272 1.7494,5.142 7.7494,9.7235 3.1201,2.3824 1.614,10.137 12.9638,10.4079 4.3748,0.1036 8.7097,-2.2528 12.0186,-4.9814 1.512,-1.2476 2.4921,-6.2025 5.9977,-1.736 1.0221,1.3035 5.2267,1.9125 6.5333,4.7321 0.0238,0.0502 1.1778,1.461 1.4542,1.935 1.7309,2.9713 4.7474,11.6247 1.5438,13.8146 -3.2897,2.2496 -5.8219,4.8083 -10.0462,7.011 -0.006,0.003 -1.9547,1.3054 -0.8041,1.1232 1.8775,3.2237 3.7385,-0.5872 8.4803,-0.685 6.0789,-0.1238 14.0085,-2.2586 20.4292,0.8228 0.183,0.0869 0.2876,-0.1497 0.5779,0.1966 1.6615,0.4406 3.2776,0.1865 5.6712,0.8763 3.4308,0.9877 4.175,1.394 8.0116,1.5445 2.5392,0.1005 5.044,2.094 8.6364,2.0807 0.0701,0 1.7911,0.1403 3.2412,0.2658 z"
                 style="fill:#ffffff;fill-rule:evenodd;stroke-width:0.572111"
                 id="path1966" />
              <path
                 d="m 280.5826,322.6644 c -0.0653,-0.04 -0.0687,-0.0893 10e-4,-0.1488 0.0225,-0.0192 0.0602,-0.0393 0.1087,-0.0568"
                 style="fill:none;stroke:#b082b1;stroke-width:0.286055;stroke-linecap:butt;stroke-linejoin:miter;stroke-dasharray:none"
                 id="path1968" />
              <path
                 d="m 280.9329,322.5382 c -2.9829,-0.5903 7.4676,-9.9469 4.6937,-12.2448 -2.2494,-2.2931 -12.4805,-2.5223 -17.0213,-7.6114 -2.139,-2.3967 -7.6072,-9.5675 -5.4255,-12.9174 1.6372,-2.5161 -0.0119,-6.9991 8.957,-9.9076 2.3404,-0.7585 10.5974,-1.3464 5.6226,-6.3848 -2.0229,-2.0479 -4.3245,-2.746 -1.6843,-6.7515 2.4135,-3.6638 -9.3102,-1.2445 -3.6012,-4.5694 4.4894,-2.6157 1.2902,-3.8056 -0.7803,-5.2741 -1.578,-1.1188 -3.0184,0.6306 0.2759,-7.1815 1.3931,-3.303 -4.8713,-1.4658 -8.44,-4.7941 -1.4192,-1.3237 -2.3144,-1.2351 -3.6108,-3.4621 0.0335,-1.0979 -6.93,-15.2486 -9.4022,-16.0674 -2.0409,-0.6765 -10.7331,-5.4012 -19.0583,-4.8425 -4.3675,0.2935 -5.3268,0.0452 -9.886,0.8639 -10.5942,1.9016 -15.0246,9.9928 -17.09,10.9788 -3.1965,1.5253 -5.5973,13.8621 -4.7536,16.8426 0.6015,2.1266 0.8379,4.4638 -0.4607,6.0234 -3.456,4.1509 -2.1584,-0.9761 -6.3076,7.0545 -0.8945,1.7309 -8.9051,5.5274 -4.4857,13.1138 3.6276,6.2272 1.7494,5.142 7.7494,9.7235 3.1201,2.3824 1.614,10.137 12.9638,10.4079 4.3748,0.1036 8.7097,-2.2528 12.0186,-4.9814 1.512,-1.2476 2.4921,-6.2025 5.9977,-1.736 1.0221,1.3035 5.2267,1.9125 6.5333,4.7321 0.0238,0.0502 1.1778,1.461 1.4542,1.935 1.7309,2.9713 4.7474,11.6247 1.5438,13.8146 -3.2897,2.2496 -5.8219,4.8083 -10.0462,7.011 -0.006,0.003 -1.9547,1.3054 -0.8041,1.1232 1.8775,3.2237 3.7385,-0.5872 8.4803,-0.685 6.0789,-0.1238 14.0085,-2.2586 20.4292,0.8228 0.183,0.0869 0.2876,-0.1497 0.5779,0.1966 1.6615,0.4406 3.2776,0.1865 5.6712,0.8763 3.4308,0.9877 4.175,1.394 8.0116,1.5445 2.5392,0.1005 5.044,2.094 8.6364,2.0807 0.0701,0 1.7911,0.1403 3.2412,0.2658 z"
                 style="fill:none;stroke:#b082b1;stroke-width:0.286055;stroke-linecap:butt;stroke-linejoin:miter;stroke-dasharray:none"
                 id="path1970" />
            </g>
            <g
               id="Layer1009"
               style="stroke-width:0.572111">
              <path
                 d="m 261.8197,330.4231 c -0.0655,-0.0413 -0.0684,-0.0903 0.002,-0.1498 0.0231,-0.0192 0.0595,-0.0393 0.1085,-0.057 z m 0.3505,-0.1275 v 0 c -2.9831,-0.59 7.4674,-9.9466 4.6937,-12.2448 -2.2494,-2.2928 -12.4812,-2.522 -17.0217,-7.6103 -2.139,-2.3975 -7.607,-9.5675 -5.4258,-12.918 1.6375,-2.5156 -0.0117,-6.9994 8.9575,-9.908 2.3407,-0.7583 10.5976,-1.3469 5.6224,-6.3846 -2.0229,-2.0479 -4.3248,-2.746 -1.6846,-6.7525 2.4142,-3.6623 -9.3099,-1.2435 -3.6009,-4.5692 4.4898,-2.6149 1.5316,-3.8458 -0.7809,-5.2733 -0.2274,-0.3287 -0.4099,-0.4532 -0.5366,-0.586 -0.7336,-0.7687 -0.8894,0.8683 1.8134,-5.8622 1.5008,-3.3749 -5.8326,-2.2256 -9.4408,-5.5275 -1.4183,-1.3228 -2.3142,-1.235 -3.6104,-3.4611 0.033,-1.0988 -6.9302,-15.2493 -9.4022,-16.0683 -2.0406,-0.6765 -4.5029,-1.679 -3.3574,-3.8698 1.1085,-2.1176 0.5364,-3.1051 -0.0442,-3.9621 -0.9292,-1.3691 -2.5824,-1.8674 -2.7074,-2.0312 -6.1773,3.5982 -4.6245,4.4621 -12.949,5.0206 -4.3682,0.2935 -5.3275,0.0452 -9.8862,0.8642 -10.5945,1.9013 -15.0248,9.9927 -17.0897,10.9784 -3.1966,1.5254 -5.5977,13.8622 -4.7542,16.8427 0.6017,2.1266 0.8384,4.4641 -0.46,6.0234 -3.4567,4.1509 -2.1586,-0.9758 -6.3083,7.0545 -0.894,1.7309 -8.9044,5.5274 -4.4852,13.1138 3.6276,6.2272 1.7496,5.1427 7.749,9.7228 3.12,2.3834 1.6144,10.1377 12.964,10.4086 4.3745,0.1029 8.7099,-2.2528 12.0184,-4.9814 1.5124,-1.2469 2.4923,-6.2025 5.9974,-1.736 1.0223,1.3037 5.2269,1.9123 6.534,4.7321 0.0238,0.0502 1.1778,1.461 1.4545,1.9353 1.7307,2.9707 4.7466,11.6244 1.543,13.8143 -3.2897,2.2496 -5.8221,4.8082 -10.0456,7.011 -0.007,0.004 -1.9548,1.3054 -0.8047,1.1231 1.8775,3.2238 3.7385,-0.5878 8.4808,-0.684 6.0789,-0.1245 14.008,-2.2596 20.429,0.8214 0.1832,0.0874 0.2871,-0.1492 0.5777,0.1971 1.6615,0.4408 3.2776,0.1865 5.6716,0.8763 3.4306,0.9877 4.1745,1.3933 8.0111,1.5445 2.5393,0.1005 5.0442,2.094 8.6371,2.0807 0.0697,0 1.7912,0.1396 3.2412,0.2655 z"
                 style="fill:#67306c;fill-rule:evenodd;stroke-width:0.572111"
                 id="path1973" />
              <path
                 d="m 261.8197,330.4231 c -0.0655,-0.0411 -0.0684,-0.0903 0.002,-0.1498 0.0231,-0.0192 0.0597,-0.0393 0.1088,-0.0568"
                 style="fill:none;stroke:#67306c;stroke-width:0.286055;stroke-linecap:butt;stroke-linejoin:miter;stroke-dasharray:none"
                 id="path1975" />
              <path
                 d="m 262.1702,330.2956 c -2.9831,-0.59 7.4674,-9.9466 4.6937,-12.2448 -2.2494,-2.2928 -12.4812,-2.522 -17.0217,-7.6103 -2.139,-2.3975 -7.607,-9.5675 -5.4258,-12.918 1.6375,-2.5156 -0.0117,-6.9994 8.9575,-9.908 2.3407,-0.7583 10.5976,-1.3469 5.6224,-6.3846 -2.0229,-2.0479 -4.3248,-2.746 -1.6846,-6.7525 2.4142,-3.6623 -9.3099,-1.2435 -3.6009,-4.5692 4.4898,-2.6149 1.5316,-3.8458 -0.7809,-5.2733 -0.1352,-0.3644 -0.3259,-0.5525 -0.4347,-0.7005 -0.5724,-0.7785 -0.616,0.6182 0.8209,-3.7298 0.2894,-0.8763 0.1063,-0.3455 1.0151,-2.2822 1.3695,-3.4203 -5.9966,-1.9348 -9.5653,-5.2632 -1.4183,-1.3228 -2.3142,-1.235 -3.6104,-3.4611 0.033,-1.0988 -6.9302,-15.2493 -9.4022,-16.0683 -2.0406,-0.6765 -4.5029,-1.679 -3.3574,-3.8698 1.1085,-2.1176 0.5364,-3.1051 -0.0442,-3.9621 -0.9292,-1.3691 -2.5824,-1.8674 -2.7074,-2.0312 -6.1773,3.5982 -4.6245,4.4621 -12.949,5.0206 -4.3682,0.2935 -5.3275,0.0452 -9.8862,0.8642 -10.5945,1.9013 -15.0248,9.9927 -17.0897,10.9784 -3.1966,1.5254 -5.5977,13.8622 -4.7542,16.8427 0.6017,2.1266 0.8384,4.4641 -0.46,6.0234 -3.4567,4.1509 -2.1586,-0.9758 -6.3083,7.0545 -0.894,1.7309 -8.9044,5.5274 -4.4852,13.1138 3.6276,6.2272 1.7496,5.1427 7.749,9.7228 3.12,2.3834 1.6144,10.1377 12.964,10.4086 4.3745,0.1029 8.7099,-2.2528 12.0184,-4.9814 1.5124,-1.2469 2.4923,-6.2025 5.9974,-1.736 1.0223,1.3037 5.2269,1.9123 6.534,4.7321 0.0238,0.0502 1.1778,1.461 1.4545,1.9353 1.7307,2.9707 4.7466,11.6244 1.543,13.8143 -3.2897,2.2496 -5.8221,4.8082 -10.0456,7.011 -0.007,0.004 -1.9548,1.3054 -0.8047,1.1231 1.8775,3.2238 3.7385,-0.5878 8.4808,-0.684 6.0789,-0.1245 14.008,-2.2596 20.429,0.8214 0.1832,0.0874 0.2871,-0.1492 0.5777,0.1971 1.6615,0.4408 3.2776,0.1865 5.6716,0.8763 3.4306,0.9877 4.1745,1.3933 8.0111,1.5445 2.5393,0.1005 5.0442,2.094 8.6371,2.0807 0.0697,0 1.7912,0.1396 3.2412,0.2655 z"
                 style="fill:none;stroke:#67306c;stroke-width:0.286055;stroke-linecap:butt;stroke-linejoin:miter;stroke-dasharray:none"
                 id="path1977" />
            </g>
          </g>
          <defs
             id="defs1986">
            <linearGradient
               id="linearGradient6295"
               gradientTransform="scale(1.1794865,0.84782656)"
               x1="295.4772"
               y1="341.90472"
               x2="323.45535"
               y2="341.90472"
               gradientUnits="userSpaceOnUse">
              <stop
                 offset="0%"
                 stop-color="#67306c"
                 stop-opacity="1.0000"
                 id="stop6291" />
              <stop
                 offset="100%"
                 stop-color="#f2e8f2"
                 stop-opacity="1.0000"
                 id="stop6293" />
            </linearGradient>
          </defs>
          <defs
             id="defs1995">
            <linearGradient
               id="linearGradient6303"
               gradientTransform="scale(1.1971379,0.83532568)"
               x1="297.5983"
               y1="362.02802"
               x2="307.72113"
               y2="362.02802"
               gradientUnits="userSpaceOnUse">
              <stop
                 offset="0%"
                 stop-color="#67306c"
                 stop-opacity="1.0000"
                 id="stop6299" />
              <stop
                 offset="100%"
                 stop-color="#f2e8f2"
                 stop-opacity="1.0000"
                 id="stop6301" />
            </linearGradient>
          </defs>
          <g
             id="g6490"
             style="fill:url(#linearGradient6492);fill-opacity:1">
            <path
               d="m 375.2295,302.6632 c 0.6276,-3.7029 -0.8948,-7.6008 -4.2119,-9.8374 -3.3164,-2.2359 -7.5007,-2.1837 -10.6975,-0.2129 -5.7143,-2.7356 -10.3083,-3.5824 -11.5095,-1.7986 -1.4946,2.2181 2.742,7.7667 9.7543,13.1433 0.0106,0.007 0.0211,0.0159 0.0319,0.0239 0.2321,0.1773 0.4671,0.3536 0.7038,0.5309 0.0337,0.0249 0.0656,0.0496 0.0993,0.0746 0.2129,0.1577 0.429,0.3139 0.6472,0.4734 0.0584,0.0399 0.1153,0.0832 0.1719,0.1249 0.2074,0.1482 0.4166,0.2961 0.6268,0.4433 0.07,0.0479 0.1367,0.0965 0.2064,0.1454 0.2784,0.1951 0.5605,0.3865 0.8458,0.5798 0.2854,0.1924 0.5718,0.3821 0.8564,0.5681 0.0569,0.0366 0.1117,0.071 0.1686,0.1084 0.2305,0.1497 0.4608,0.2987 0.6922,0.4438 0.0452,0.0294 0.0913,0.0569 0.1374,0.0862 0.2421,0.1516 0.4825,0.3014 0.7236,0.4486 0.0301,0.0185 0.0602,0.0355 0.0903,0.054 0.257,0.1559 0.5141,0.3103 0.7686,0.4611 0.0116,0.008 0.0239,0.0142 0.0353,0.0211 7.6142,4.4849 14.3473,6.3289 15.8418,4.1136 1.2022,-1.7848 -1.3064,-5.7244 -5.9827,-9.9955 z m -21.0972,-8.9093 v 0 c 0.4655,-0.6888 2.0833,-0.5097 4.3333,0.3387 -0.4158,0.4238 -0.8005,0.889 -1.1446,1.3998 -0.4876,0.7223 -0.8633,1.4884 -1.1373,2.2747 -1.7092,-1.8244 -2.5275,-3.3066 -2.0514,-4.0132 z m 22.3578,15.0732 v 0 c -0.4771,0.7067 -2.1569,0.5026 -4.4893,-0.3955 0.6266,-0.5496 1.195,-1.186 1.6824,-1.9093 0.3448,-0.5098 0.6312,-1.0409 0.8687,-1.5843 1.6286,1.7678 2.4034,3.2003 1.9382,3.8891 z"
               style="font-variation-settings:normal;opacity:1;vector-effect:none;fill:url(#linearGradient199);fill-opacity:1;stroke-width:0.572111;stroke-linecap:butt;stroke-linejoin:miter;stroke-miterlimit:4;stroke-dasharray:none;stroke-dashoffset:0;stroke-opacity:1;stop-color:#000000;stop-opacity:1"
               id="path1988"
               inkscape:export-xdpi="200"
               inkscape:export-ydpi="200" />
            <path
               d="m 356.2662,302.4113 c 0.3847,2.6587 1.8473,5.1496 4.2499,6.7684 2.4024,1.6206 5.2605,2.0416 7.8685,1.4016 -2.0177,-1.047 -4.1417,-2.3051 -6.2854,-3.751 -2.1435,-1.4441 -4.1061,-2.9422 -5.833,-4.419 z"
               style="fill:url(#linearGradient201);fill-opacity:1;stroke-width:0.572111"
               id="path1997"
               inkscape:export-xdpi="200"
               inkscape:export-ydpi="200" />
          </g>
        </g>
      </g>
      <g
         id="g2364"
         transform="matrix(1.2117372,0,0,1.2117372,-347.35933,-364.33142)"
         style="stroke-width:0.825262">
        <path
           style="fill:#4196b1;fill-opacity:1;stroke:none;stroke-width:0.825262px;stroke-linecap:butt;stroke-linejoin:miter;stroke-opacity:1"
           d="m 656.89667,-13.173043 c -1.95192,-0.17163 -3.92425,0.055 -5.8775,-0.10091 -3.54867,-0.28323 -7.03994,-1.06943 -10.57219,-1.51274 -4.27205,-0.53615 -8.55958,-0.94121 -12.84201,-1.38687 -3.09747,-0.32234 -6.19549,-1.22164 -9.29608,-0.93091 -2.32083,0.21762 -4.72579,0.75066 -6.7074,1.97818 -2.41009,1.49294 -4.61208,3.65246 -5.78738,6.2324 -1.39104,3.05353 -1.5887,6.69411 -1.07036,10.00928 0.34285,2.19279 1.35544,4.31894 2.69507,6.08847 3.02576,3.99674 7.49367,6.69229 11.58398,9.59031 4.41654,3.12916 9.11701,5.86468 13.91667,8.36683 5.30008,2.76303 10.83815,5.05505 16.37416,7.30843 4.25695,1.73275 8.48621,3.62274 12.93658,4.77091 4.46369,1.1516 9.095,1.53011 13.6708,2.08934 10.63489,1.29975 21.36448,1.70676 32.0074,2.93901 8.31787,0.96305 16.52037,3.99182 24.87813,3.47973 6.28093,-0.38484 12.29929,-2.79434 18.23701,-4.87798 7.74975,-2.71951 15.07826,-6.51836 22.56139,-9.90321 8.01534,-3.62557 16.23453,-6.86939 23.92305,-11.14456 4.49625,-2.50013 8.97793,-5.13746 12.91834,-8.44505 3.03163,-2.54474 6.64753,-4.98914 8.12146,-8.66256 1.21607,-3.03077004 1.14103,-6.70191 0.0978,-9.79643 -1.01863,-3.02155 -3.31056,-5.64981 -5.86726,-7.55524 -2.78505,-2.07561 -6.2748,-3.28209 -9.71345,-3.77236 -4.06813,-0.58002 -8.19287,0.6571 -12.28099,1.07354 -6.83583,0.69634 -13.63693,1.71332 -20.47547,2.38252 -27.68311,2.709 -55.39043,7.70476 -83.18408,6.60657 -10.20215,-0.40311 -20.07679,-3.93239 -30.24767,-4.8267 z"
           id="path61"
           sodipodi:nodetypes="aaaaaaaaaaaaaaaaaaaaaaaaaaaa" />
        <path
           style="fill:#f3a374;fill-opacity:1;stroke:none;stroke-width:0.825262px;stroke-linecap:butt;stroke-linejoin:miter;stroke-opacity:1"
           d="m 644.12617,-46.562023 -1.05377,3.55466 -0.19143,9.55893 1.25758,5.47539 2.55376,6.26838 c 0,0 2.16292,4.26758 3.36652,6.33336 1.19203,2.04592 2.26907,4.19811 3.81261,5.99373 1.65548,1.92584 3.7183,3.47308 5.74165,5.00785 2.06747,1.56825 4.02542,3.51852996 6.50906,4.27045996 30.66041,9.28254004 96.10172,0.70405 96.10172,0.70405 l 5.56834,-7.90878996 5.66463,-8.94936 3.79604,-5.67702 3.10019,-8.54363 0.82168,-3.93734 -0.49448,-8.72073 -2.36377,-5.08249 -35.91497,4.77532 z"
           id="path59"
           sodipodi:nodetypes="cccccaaaacccccccccc" />
        <path
           style="fill:#e47656;fill-opacity:1;stroke:none;stroke-width:0.825262px;stroke-linecap:butt;stroke-linejoin:miter;stroke-opacity:1"
           d="m 693.80755,27.511107 c 0,0 12.4899,7.30771 18.94437,10.56706 2.557,1.29122 5.05423,2.82386 7.82401,3.55452 5.42325,1.43063 11.24758,0.46253 16.75911,1.50243 1.71159,0.32294 3.77422,0.24123 5.01669,1.46193 1.72855,1.69826 3.18097,4.7461 2.15693,6.94231 -1.44033,3.08901 -6.04811,3.52851 -9.42987,3.95298 -2.25102,0.28254 -4.50161,-0.58556 -6.73242,-0.99835 -4.41203,-0.8164 -8.81563,-1.72427 -13.14008,-2.92079 -10.77274,-2.98069 -31.81813,-10.58464 -31.81813,-10.58464 z"
           id="path82"
           sodipodi:nodetypes="caaaaaaaacc" />
        <path
           style="fill:#000000;stroke:none;stroke-width:0.825262px;stroke-linecap:butt;stroke-linejoin:miter;stroke-opacity:1"
           d="m 731.39701,54.431997 c 1.24199,-0.27921 2.42569,-0.90635 3.4176,-1.70422 1.20571,-0.96983 2.3595,-2.16902 2.91374,-3.61371 0.54526,-1.42129 0.32571,-3.03996 0.24684,-4.56021 -0.0985,-1.89809 -0.89571,-5.63113 -0.89571,-5.63113 l 19.01689,-0.0376 c 0,0 1.02815,1.91319 1.2243,2.96401 0.3208,1.71857 0.3154,3.54991 -0.11863,5.24343 -0.38362,1.49686 -1.19957,2.8854 -2.13718,4.11366 -1.128,1.47767 -2.58021,2.70871 -4.09599,3.78495 -1.37023,0.9729 -2.85178,1.85106 -4.45087,2.36774 -1.4525,0.46932 -3.01124,0.57395 -4.53694,0.62152 -2.06383,0.0643 -4.14177,-0.11209 -6.17763,-0.45677 -1.70524,-0.28871 -3.35501,-0.84636 -5.01197,-1.34202 -0.94994,-0.28416 -3.38592,-1.65038 -4.56223,-2.04734 1.16059,-0.0196 3.23825,0.55313 5.16778,0.29769 z"
           id="path106"
           sodipodi:nodetypes="caaaccaaaaaaascc" />
        <path
           style="fill:#5e3631;fill-opacity:1;stroke:none;stroke-width:0.825262px;stroke-linecap:butt;stroke-linejoin:miter;stroke-opacity:1"
           d="m 671.17468,-112.08538 c -0.41014,-2.89036 3.62363,-4.75781 4.40135,-7.57162 0.67001,-2.42413 0.5888,-5.07811 0.0963,-7.54444 -0.5335,-2.67176 -3.0681,-4.78664 -3.23514,-7.50602 -0.19989,-3.2541 1.30514,-6.46211 2.74284,-9.38823 1.46155,-2.97468 4.43872,-5.04089 5.85091,-8.03933 0.94754,-2.01187 1.89399,-4.25085 1.65821,-6.46216 -0.32024,-3.00342 -3.42876,-5.14939 -4.05219,-8.10479 -0.70728,-3.35285 -0.35291,-6.94718 0.49146,-10.26816 0.86631,-3.4073 2.59771,-6.59902 4.58883,-9.49653 2.40414,-3.49854 5.4014,-6.63344 8.71794,-9.28302 2.36432,-1.88885 5.34319,-2.87113 7.8268,-4.60014 2.51232,-1.74899 4.3754,-4.4384 7.11223,-5.80972 3.43893,-1.72313 7.36334,-2.48059 11.19748,-2.7884 3.75809,-0.30169 7.667,-0.16041 11.27081,0.94719 5.87954,1.80702 11.58861,4.84823 16.08195,9.04873 3.27945,3.06571 5.81137,7.05969 7.37905,11.26632 2.02944,5.44569 1.53807,11.5209 2.32223,17.27931 0.43462,3.19157 -0.30389,6.79104 1.32061,9.57241 2.13976,3.66357 7.43418,4.43132 10.12757,7.70943 1.54045,1.87487 2.68593,4.16659 3.20199,6.53763 0.81828,3.75959 -0.42369,7.69275 -0.30955,11.53866 0.0567,1.91138 -0.31639,3.98321 0.49367,5.71538 1.29181,2.76231 4.89451,3.84877 6.49027,6.44736 2.47377,4.02839 3.81461,8.79875 4.3629,13.49416 0.48802,4.17935 1.5764,9.414337 -1.01155,12.582647 -4.32895,5.29972 -8.87005,9.76794 -13.9715,12.13985 -19.87198,9.23944 -45.35783,8.71962 -65.74127,0.67114 -12.60953,-4.97892 -27.5096,-14.66518 -29.4142,-28.087657 z"
           id="path14"
           sodipodi:nodetypes="aaaaaaaaaaaaaaaaaaaaaaaaassaa" />
        <path
           style="fill:#4c2028;fill-opacity:1;stroke:none;stroke-width:0.825262px;stroke-linecap:butt;stroke-linejoin:miter;stroke-opacity:1"
           d="m 686.02259,-121.0768 c -0.0361,-2.31132 0.50724,-4.61285 1.10154,-6.84675 0.51877,-1.94997 1.04417,-3.96696 2.13536,-5.66424 0.72511,-1.12786 2.09639,-1.73449 2.83534,-2.85334 0.94218,-1.42657 1.45652,-3.1095 1.92688,-4.75314 0.69793,-2.43892 -0.59222,-5.81342 1.30472,-7.49778 9.71731,-8.62839 28.39443,-9.70173 38.92937,-2.09317 1.69097,1.22126 0.80962,4.12634 1.64563,6.03734 0.64222,1.46804 1.65653,2.74478 2.54801,4.07626 0.92548,1.38227 1.89675,2.73466 2.90495,4.0578 1.19398,1.56694 2.80783,2.84611 3.72045,4.59197 1.28501,2.45825 1.76123,5.27471 2.31891,7.99192 0.44926,2.18898 0.89818,4.42042 0.81886,6.65361 -0.0899,2.53136 0.37005,5.70685 -1.46092,7.45712 -6.41101,6.12844 -17.44558,3.90372 -26.31451,3.93394 -7.35497,0.0251 -14.64218,-1.62151 -21.84426,-3.1136 -3.66469,-0.75923 -8.2862,-0.2168 -10.82973,-2.96213 -2.08019,-2.24523 -1.69285,-5.95542 -1.7406,-9.01581 z"
           id="path16"
           sodipodi:nodetypes="aaaaaaaaaaaaaaaaaa" />
        <path
           style="fill:#f8a17a;fill-opacity:1;stroke:none;stroke-width:0.825262px;stroke-linecap:butt;stroke-linejoin:miter;stroke-opacity:1"
           d="m 704.88444,-138.79582 c -1.72375,1.74538 -0.5025,4.88921 -1.00442,7.29041 -0.49301,2.35857 -0.63248,5.80234 -2.84514,7.01592 -4.75442,2.60765 -15.30131,-0.009 -18.34072,3.63531 -4.634,5.55637 1.50904,15.43956 6.44988,20.72495 7.25872,7.764917 19.12134,11.044737 29.74078,11.503617 6.73261,0.29092 14.44135,-1.09156 19.41416,-5.6395 3.36113,-3.07395 3.74088,-8.343217 4.96544,-12.730337 1.1151,-3.99498 4.03555,-8.57136 2.13579,-12.25839 -0.95268,-1.84896 -3.63574,-2.09658 -5.62751,-2.69584 -3.02209,-0.90925 -6.32757,-0.49115 -9.37802,-1.30016 -1.36722,-0.3626 -2.85312,-0.67114 -3.93961,-1.57685 -1.73594,-1.84958 -2.68518,-4.25813 -2.96161,-6.58297 -0.13212,-1.15747 0.25161,-2.34143 0.0819,-3.49398 -0.32654,-2.21723 -0.18123,-5.21409 -2.08861,-6.3908 -4.76295,-2.93839 -12.66976,-1.48323 -16.60228,2.49862 z"
           id="path20"
           sodipodi:nodetypes="asssaaaaaaaccaaaa" />
        <path
           style="fill:#e5735d;fill-opacity:1;stroke:none;stroke-width:0.825262px;stroke-linecap:butt;stroke-linejoin:miter;stroke-opacity:1;filter:url(#filter1553)"
           d="m 703.95479,-135.67272 c 0,0 0.11141,1.70209 0.0704,2.55215 -0.0416,0.86239 -0.3202,2.57031 -0.3202,2.57031 0,0 2.51051,1.49325 3.88337,1.95972 1.93117,0.65618 3.97447,1.03579 6.01131,1.14195 1.56845,0.0817 3.1549,-0.0869 4.69528,-0.39335 1.12743,-0.22431 2.22724,-0.59942 3.28503,-1.04941 0.7257,-0.30872 2.08167,-1.12434 2.08167,-1.12434 0,0 -0.19112,-1.39912 -0.20927,-2.10352 -0.0198,-0.7668 0.10955,-2.29855 0.10955,-2.29855 0,0 -1.60047,0.95823 -2.45471,1.32579 -1.25683,0.54078 -2.55441,1.03124 -3.89961,1.28125 -1.6863,0.31341 -3.44416,0.52028 -5.13909,0.2575 -1.93252,-0.29961 -4.04602,-1.22599 -5.49551,-2.05404 -1.23816,-0.65599 -1.69307,-1.38742 -2.61825,-2.06549 z"
           id="path124"
           sodipodi:nodetypes="cacaaaacacaaaccc" />
        <path
           style="fill:#f8a17a;fill-opacity:1;stroke:none;stroke-width:0.825262px;stroke-linecap:butt;stroke-linejoin:miter;stroke-opacity:1"
           d="m 703.7529,-185.93676 c 0,0 -3.68531,3.44876 -5.43981,5.26133 -1.47635,1.52521 -3.20851,2.88425 -4.27587,4.71908 -1.04158,1.79051 -1.62735,3.85592 -1.9405,5.90354 -0.48487,3.17044 -0.20263,6.4315 0.13525,9.62096 0.32831,3.09915 0.79833,6.22788 1.8302,9.16858 1.24469,3.54724 3.07426,6.90478 5.18695,10.01423 1.48602,2.18713 3.13925,4.33549 5.20481,5.98634 2.00226,1.60026 4.27932,3.04634 6.77231,3.64206 1.90546,0.45533 3.95559,0.24672 5.87559,-0.14279 2.21536,-0.44943 4.43454,-1.2249 6.3077,-2.49025 1.88768,-1.27516 3.29514,-3.16785 4.7012,-4.96016 1.70738,-2.17641 3.43718,-4.42079 4.49095,-6.97842 0.74517,-1.80861 1.04026,-3.79202 1.22223,-5.73964 0.23645,-2.53071 0.21753,-5.11248 -0.17909,-7.62307 -0.37289,-2.36043 -0.53327,-5.02265 -2.04918,-6.86999 -2.59259,-3.15942 -7.18174,-3.907 -10.83932,-5.7306 -2.66932,-1.33088 -5.57682,-2.21138 -8.10077,-3.80077 -2.19098,-1.37972 -4.34214,-2.939 -6.01399,-4.9161 -1.25486,-1.48398 -2.88866,-5.06433 -2.88866,-5.06433 z"
           id="path18"
           sodipodi:nodetypes="caaaaaaaaaaaaaaaaaac" />
        <path
           style="fill:#e5735d;fill-opacity:1;stroke:none;stroke-width:0.825262px;stroke-linecap:butt;stroke-linejoin:miter;stroke-opacity:1;filter:url(#filter1433)"
           d="m 702.7463,-178.91154 c 0,0 -1.70381,1.4537 -2.51777,2.22211 -0.84603,0.79868 -1.62008,1.67087 -2.45636,2.47974 -0.81743,0.79064 -1.59416,1.6346 -2.50248,2.31889 -0.9948,0.74945 -3.19722,1.93377 -3.19722,1.93377 0,0 0.3516,-2.28301 0.72196,-3.37077 0.35915,-1.05486 0.81243,-2.09613 1.44002,-3.01692 0.89893,-1.31888 2.14853,-2.36201 3.26801,-3.49968 1.27703,-1.29777 2.63006,-2.51859 3.93162,-3.79176 0.77835,-0.76137 2.31882,-2.3006 2.31882,-2.3006 0,0 0.71171,1.82498 1.21692,2.65835 0.76638,1.26417 1.6772,2.45545 2.72156,3.50178 1.26383,1.26621 2.7196,2.345 4.23147,3.30146 1.97794,1.25132 4.14913,2.17137 6.27418,3.15229 2.54162,1.17321 5.21612,2.04854 7.73723,3.26518 1.4766,0.71259 2.0822,0.62493 4.31677,2.35771 0.82684,0.64116 1.63213,1.38681 2.12626,2.30908 0.27027,0.50444 0.47889,1.48154 0.65846,2.2233 0.35055,1.44808 0.54396,2.7005 0.54396,2.7005 l 0.529,5.10776 c -0.32382,-2.45906 -0.80789,-4.09385 -2.19394,-6.06018 -1.17931,-1.6087 -2.73317,-2.94017 -4.34714,-4.11225 -0.97071,-0.70495 -2.07397,-1.21325 -3.16092,-1.72095 -1.69666,-0.79249 -3.46686,-1.41949 -5.22666,-2.05963 -1.97638,-0.71893 -4.0255,-1.23314 -5.98419,-1.99893 -1.69198,-0.66151 -3.40371,-1.31639 -4.9697,-2.23729 -1.07924,-0.63467 -2.11422,-1.37133 -3.01232,-2.24369 -0.95098,-0.92372 -2.46754,-3.11927 -2.46754,-3.11927 z"
           id="path122"
           sodipodi:nodetypes="caaacaaaacaaaaassscccaaaaaac" />
        <path
           style="fill:#fa3c5d;fill-opacity:1;stroke:none;stroke-width:0.825262px;stroke-linecap:butt;stroke-linejoin:miter;stroke-opacity:1"
           d="m 643.0724,-45.007363 c -1.17938,-0.98084 -1.00302,-2.9931 -0.86141,-4.5205 0.38833,-4.1885 2.85288,-7.92471 4.60097,-11.75074 4.21342,-9.22193 9.55638,-17.88629 14.15205,-26.92381 3.87236,-7.61512 6.59594,-15.873667 11.30736,-23.000217 1.59492,-2.4125 3.51904,-4.63248 5.66439,-6.57192 1.83866,-1.66218 3.79155,-3.34104 6.09206,-4.26361 1.89587,-0.7603 5.96127,-1.65277 6.05713,-0.92879 0.39662,2.99529 0.90397,8.26346 2.65914,11.94606 1.50581,3.1594 3.85612,5.96163 6.52429,8.22661 2.58187,2.19172 5.65182,3.912907 8.88001,4.936887 3.41069,1.08187 7.13081,1.65027 10.67319,1.14551 3.43988,-0.49015 6.74022,-2.05049 9.64116,-3.962967 2.60882,-1.7199 4.93223,-3.98231 6.69239,-6.56414 1.79228,-2.62895 2.56972,-5.82363 3.7318,-8.7856 0.95481,-2.43366 0.84695,-6.04829 1.9185,-5.9454 2.09089,0.20077 5.1904,1.02961 7.37257,2.41781 2.00775,1.27724 3.51872,3.25626 4.88963,5.20125 3.33438,4.73067 5.33392,10.27378 7.91627,15.453427 3.14351,6.3052 6.05359,12.72544 9.22343,19.01745 3.97525,7.89071 9.12481,15.23714 12.28179,23.48938 0.95443,2.49485 1.84033,5.09862 1.97476,7.76642 0.0561,1.11236 0.4182,2.66515 -0.49369,3.30464 -6.05209,4.24418 -18.05442,2.84851 -22.10119,4.30688 -8.98984,3.23973 -13.19683,-26.58675 -13.19683,-26.58675 0,0 -1.29263,1.09217 -2.45149,7.21538 -1.15886,6.12321 1.65962,33.69071 1.65962,33.69071 l -62.81685,-0.65824 c 0,0 -1.38949,-26.47174 -2.81298,-33.09457 -1.42349,-6.62283 -2.46845,-7.00856 -2.46845,-7.00856 0,0 -6.5353,17.3475 -11.50588,24.91323 -2.88419,4.39003 -10.68675,1.54322 -15.95654,0.77736 -3.23252,-0.46978 -6.60318,-1.04427 -9.2472,-3.24319 z"
           id="path28"
           sodipodi:nodetypes="saaaaaasaaaaaassaaaaaassczcczcsas" />
        <path
           style="fill:#f26575;fill-opacity:1;stroke:none;stroke-width:0.825262px;stroke-linecap:butt;stroke-linejoin:miter;stroke-opacity:1;filter:url(#filter1541)"
           d="m 682.7052,-121.39727 c -0.63416,1.08164 -1.65952,6.59353 -2.47654,9.89347 -1.12515,4.54444 -2.49802,9.03671 -3.34036,13.641967 -0.7244,3.96047 -1.56849,7.96433 -1.46611,11.9892 0.0878,3.45112 0.88472,6.86829 1.77812,10.20292 0.8044,3.00246 2.34593,6.04363 3.20625,8.75653 0.84502,2.66467 1.83089,5.35151 2.78824,8.89283 1.33665,4.94444 2.38469,13.00228 2.38469,13.00228 l 53.89411,2.70128 c 0,0 3.79047,-4.17819 5.32659,-8.93003 1.25414,-3.87957 0.23418,-7.93337 1.43452,-10.8483 0.7722,-1.87523 2.39127,-5.96935 3.19303,-9.07395 0.90986,-3.52317 1.76798,-7.12578 1.81561,-10.76422 0.0478,-3.647 -0.99102,-7.22724 -1.53682,-10.83349 -0.5876,-3.88252 -1.35348,-7.738177 -1.87093,-11.630657 -0.56757,-4.26956 -0.52723,-8.623 -1.352,-12.85041 -0.23791,-1.21941 -0.50108,-3.1084 -1.03195,-3.58151 -0.69155,-0.61632 -4.82974,-1.2926 -5.07023,-1.09298 -0.79999,0.66401 -1.77016,7.89563 -3.91632,11.22825 -2.18636,3.39504 -5.29182,6.30147 -8.7632,8.36446 -3.86099,2.29452 -8.34325,3.923567 -12.83054,4.114077 -3.91348,0.16615 -8.03386,-0.71679 -11.4537,-2.626667 -3.54956,-1.98233 -6.24755,-5.34542 -8.55672,-8.69158 -1.85336,-2.68566 -3.5205,-5.79489 -4.08543,-8.89598 -0.26954,-1.47957 -0.52274,-3.26696 -0.73195,-4.58652 -0.16451,-1.03766 -7.00926,1.0577 -7.33836,1.61903 z"
           id="path120"
           sodipodi:nodetypes="saaaassccssaaaaassaaaaasss" />
        <path
           style="fill:#ffffff;stroke:#000000;stroke-width:0.330105;stroke-linecap:butt;stroke-linejoin:bevel;stroke-miterlimit:4;stroke-dasharray:none;stroke-opacity:1"
           d="m 662.86548,-59.400083 3.02026,84.23339 99.56864,0.74086 5.18438,-84.70232 z"
           id="path80" />
        <path
           style="fill:none;stroke:#7d5550;stroke-width:0.825262px;stroke-linecap:butt;stroke-linejoin:miter;stroke-opacity:1;filter:url(#filter1373)"
           d="m 709.57363,-198.81704 c 0,0 5.069,0.0108 7.57167,0.35854 3.54364,0.49238 7.1534,1.05231 10.45332,2.43447 2.20506,0.92358 4.30125,2.21689 6.05937,3.83685 1.89025,1.74171 3.22479,4.01276 4.64342,6.15614 1.74245,2.63265 3.97727,5.13896 4.73153,8.20458 0.68475,2.78308 -0.41925,5.72594 -0.34909,8.59116 0.0637,2.60084 0.10053,5.24153 0.69818,7.77358 0.37999,1.60991 1.0077,3.17452 1.81302,4.6194 1.03032,1.84856 2.23746,3.66111 3.80653,5.08124 2.50184,2.26435 6.02797,3.12872 8.66511,5.23394 1.31132,1.04683 2.88743,2.06006 3.49247,3.6251 0.72637,1.87889 0.30208,4.0836 -0.17505,6.04069 -0.50389,2.06688 -2.24515,3.68769 -2.77196,5.74885 -0.46973,1.83783 -0.70731,3.83259 -0.29111,5.68328 0.57984,2.57833 2.45608,4.6811 3.75635,6.98182 1.23125,2.17858 2.89688,4.13509 3.82893,6.45747 0.87201,2.17278 1.54718,4.50091 1.58819,6.84178 0.028,1.5975 -0.83562,3.10865 -0.91961,4.70418 -0.0907,1.722657 0.45413,5.155167 0.45413,5.155167"
           id="path1307"
           sodipodi:nodetypes="caaaaaaaaaaaaaaaaaac" />
        <path
           style="fill:none;stroke:#5d3631;stroke-width:0.41263;stroke-linecap:butt;stroke-linejoin:miter;stroke-miterlimit:4;stroke-dasharray:none;stroke-opacity:1"
           d="m 700.39896,-200.17899 c -6.55598,2.87991 -15.70819,6.52535 -19.61016,12.05002 -1.34032,1.92307 -3.4053,5.53585 -4.27112,8.62503 -0.6671,2.38016 -0.9831,4.9395 -0.64232,7.38778 0.31205,2.24187 1.36403,4.34155 2.41324,6.34718 1.12065,2.14217 3.12646,3.77003 4.09905,5.98336 0.71702,1.63171 1.43802,3.44216 1.2055,5.20922 -0.29895,2.27193 -1.60066,4.45706 -3.22975,6.06861 -4.75594,2.25155 -6.27715,3.61726 -8.95801,8.3399 -0.61022,1.43434 -0.66199,3.2602 -0.35968,4.85433 0.45902,2.4205 1.73881,4.68046 3.20673,6.65903 0.93778,1.264 2.0532,2.52403 3.47731,3.19413 0.64893,0.30535 2.13148,0.29305 2.13148,0.29305 v 0"
           id="path1309"
           sodipodi:nodetypes="ccaaaaaccaaacc" />
        <path
           style="fill:none;stroke:#5d3631;stroke-width:0.41263;stroke-linecap:butt;stroke-linejoin:miter;stroke-miterlimit:4;stroke-dasharray:none;stroke-opacity:1"
           d="m 707.45512,-203.53136 c 0,0 1.08765,-2.94313 2.21992,-3.93697 2.41586,-2.1205 5.79886,-2.94021 8.94337,-3.60727 3.2526,-0.69 6.68399,-0.86039 9.96893,-0.34595 4.16547,0.65233 8.25925,2.15889 11.9018,4.28221 2.98868,1.74217 5.69433,4.07597 7.86931,6.76611 2.03843,2.52124 3.71656,5.43668 4.65612,8.53976 0.88682,2.9289 0.66738,6.08776 0.81454,9.14443 0.25299,5.25497 -1.1467,10.67555 0.11636,15.78274 1.01138,4.08952 2.31621,8.86798 5.80822,11.22444 0.85632,0.57786 0.59105,-0.84278 3.0855,0.2908 3.77772,1.56819 8.77329,5.77169 10.62739,10.35771 1.41517,3.50037 0.34883,7.97784 -0.338,11.32181 -0.43678,2.15474 0.0426,3.32631 0.61478,4.85333 0.99955,2.66751 2.24142,2.78821 3.80741,4.64781 1.79751,2.13453 2.02942,8.16541 2.02942,8.16541"
           id="path1311"
           sodipodi:nodetypes="caaaaaaaaacacssc" />
        <path
           style="fill:#c4d0d2;fill-opacity:1;stroke:none;stroke-width:0.825262px;stroke-linecap:butt;stroke-linejoin:miter;stroke-opacity:1;filter:url(#filter2211)"
           d="m 665.89424,17.081277 0.6416,7.70214 101.9017,0.52056 -0.12469,-8.27948 z"
           id="path2037"
           sodipodi:nodetypes="ccccc" />
        <path
           style="fill:#5aaac1;fill-opacity:1;stroke:none;stroke-width:0.825262px;stroke-linecap:butt;stroke-linejoin:miter;stroke-opacity:1"
           d="m 626.77144,-16.190033 c 0,0 -4.5724,-1.03449 -6.89488,-1.00644 -2.41109,0.0291 -4.90666,0.28567 -7.13063,1.21742 -1.73089,0.72517 -3.25534,1.94983 -4.56774,3.29127 -1.35901,1.38908 -2.68522,2.96119 -3.30383,4.80341 -1.15333,3.43458 -1.41571,7.35417996 -0.49369,10.85795 0.8537,3.24418 3.01593,6.11332 5.34639,8.52631 3.1172,3.2276 7.27391,5.2815 11.14907,7.54369 9.45926,5.522 19.32962,10.37291 29.41534,14.64471 4.77874,2.02403 9.77877,3.47996 14.68125,5.18255 8.34393,2.89777 25.07572,8.56581 25.07572,8.56581 l 7.08253,-18.03571 c 0,0 -21.09506,-12.25823 -31.35451,-18.85072 -13.26173,-8.52168 -39.00502,-26.74025 -39.00502,-26.74025 z"
           id="path63"
           sodipodi:nodetypes="caaaaaaaaaccac" />
        <path
           style="fill:#f89f79;fill-opacity:1;stroke:none;stroke-width:0.825262px;stroke-linecap:butt;stroke-linejoin:miter;stroke-opacity:1"
           d="m 732.584,26.649497 6.35037,17.87571 c 0,0 -15.60571,5.59735 -23.72808,7.04799 -2.88063,0.51447 -5.85505,0.21782 -8.76024,0.56791 -3.17623,0.38275 -6.29522,1.14583 -9.45084,1.67214 -1.63981,0.27349 -3.26585,0.8306 -4.92728,0.77195 -4.55816,-0.16088 -10.38203,0.41019 -13.33514,-3.06571 -1.93531,-2.27792 -1.29964,-6.05013 -0.57075,-8.94893 0.67525,-2.68549 1.96409,-5.71388 4.3871,-7.05434 0.54262,-0.30019 1.24248,-0.0457 1.86035,0.007 2.33537,0.19949 4.60959,0.86658 6.93423,1.16622 2.51882,0.32467 5.05063,0.58256 7.5883,0.68292 3.71037,0.14674 7.45429,0.33919 11.13916,-0.11915 1.65146,-0.20542 3.30873,-0.55155 4.85324,-1.17123 3.74633,-1.50306 6.89274,-4.21501 10.47102,-6.08318 2.34337,-1.22344 7.18856,-3.34938 7.18856,-3.34938 z"
           id="path84"
           sodipodi:nodetypes="ccaaaaaaaaaaaaacc" />
        <path
           style="fill:#5aaac1;fill-opacity:1;stroke:none;stroke-width:0.825262px;stroke-linecap:butt;stroke-linejoin:miter;stroke-opacity:1"
           d="m 795.35399,-16.849633 c 0,0 2.22126,-1.09982 3.4284,-1.23615 3.57959,-0.40426 7.35808,0.0325 10.72784,1.30594 1.7555,0.66339 3.28399,1.89046 4.64194,3.18577 1.5001,1.43089 3.0128,3.02122 3.75733,4.95601 1.26127,3.27768 2.074,5.58975 0.90493,10.49699 -0.77743,3.26331 -3.30392,6.20376 -5.65663,8.7638 -3.19328,3.47469 -7.21024,6.14123 -11.20573,8.65252 -9.10474,5.72262 -18.99224,10.13825 -28.83973,14.45932 -4.75232,2.08531 -9.63814,3.86785 -14.55868,5.51751 -8.16787,2.73836 -24.80365,7.25898 -24.80365,7.25898 l -8.27016,-16.65728 c 0,0 25.63394,-14.95302 37.94176,-23.22309 10.96627,-7.36864004 31.93238,-23.48032 31.93238,-23.48032 z"
           id="path63-3"
           sodipodi:nodetypes="caaaasaaaaccac" />
        <path
           style="fill:#000000;stroke:none;stroke-width:0.825262px;stroke-linecap:butt;stroke-linejoin:miter;stroke-opacity:1"
           d="m 688.80415,36.280317 c 0,0 -3.62061,1.81083 -4.62827,3.45014 -1.0011,1.62864 -1.04628,3.7398 -0.98205,5.65044 0.0459,1.36526 0.3407,2.76955 0.97131,3.98131 0.85865,1.64999 2.00362,3.39001 3.68103,4.19378 2.50554,1.20059 8.32718,0.36063 8.32718,0.36063 0,0 -5.31441,2.3329 -8.13985,2.88244 -3.00394,0.58426 -6.11797,0.59946 -9.17186,0.40254 -2.21512,-0.14284 -4.58057,-0.1398 -6.56015,-1.14399 -2.4736,-1.2548 -4.63893,-3.35076 -5.99538,-5.77011 -1.32763,-2.36793 -1.99677,-5.24825 -1.75703,-7.95236 0.15422,-1.73949 0.8346,-3.54778 2.01261,-4.83692 1.41652,-1.55015 3.54494,-2.39658 5.57509,-2.93322 2.44662,-0.64673 5.06756,-0.47469 7.58793,-0.24684 3.08377,0.27879 9.07944,1.96216 9.07944,1.96216 z"
           id="path104"
           sodipodi:nodetypes="caaaacaaaaaaaac" />
      </g>
    </g>
  </g>
</svg>
