<?xml version="1.0" encoding="UTF-8" standalone="no"?>
<svg
   xmlns:dc="http://purl.org/dc/elements/1.1/"
   xmlns:cc="http://creativecommons.org/ns#"
   xmlns:rdf="http://www.w3.org/1999/02/22-rdf-syntax-ns#"
   xmlns:svg="http://www.w3.org/2000/svg"
   xmlns="http://www.w3.org/2000/svg"
   xmlns:sodipodi="http://sodipodi.sourceforge.net/DTD/sodipodi-0.dtd"
   xmlns:inkscape="http://www.inkscape.org/namespaces/inkscape"
   version="1.1"
   width="273.6391"
   height="266.69492"
   id="svg2000"
   viewBox="0 0 273.6391 266.69492"
   sodipodi:docname="geolatinas.svg"
   inkscape:version="1.0.1 (3bc2e813f5, 2020-09-07)">
  <metadata
     id="metadata2006">
    <rdf:RDF>
      <cc:Work
         rdf:about="">
        <dc:format>image/svg+xml</dc:format>
        <dc:type
           rdf:resource="http://purl.org/dc/dcmitype/StillImage" />
        <dc:title></dc:title>
      </cc:Work>
    </rdf:RDF>
  </metadata>
  <defs
     id="defs2004" />
  <sodipodi:namedview
     pagecolor="#ffffff"
     bordercolor="#666666"
     borderopacity="1"
     objecttolerance="10"
     gridtolerance="10"
     guidetolerance="10"
     inkscape:pageopacity="0"
     inkscape:pageshadow="2"
     inkscape:window-width="1920"
     inkscape:window-height="1027"
     id="namedview2002"
     showgrid="false"
     inkscape:zoom="1.4141206"
     inkscape:cx="290.7997"
     inkscape:cy="141.72721"
     inkscape:window-x="0"
     inkscape:window-y="25"
     inkscape:window-maximized="1"
     inkscape:current-layer="svg2000"
     fit-margin-top="0"
     fit-margin-left="0"
     fit-margin-right="0"
     fit-margin-bottom="0"
     inkscape:pagecheckerboard="false" />
  <g
     id="Layer1000"
     transform="translate(-129.11131,-84.696092)">
    <path
       d="M 278.7214,110.0984 A 17.6213,120.2714 0 0 1 296.3427,230.3699 17.6213,120.2714 0 1 1 278.7214,110.0984 Z"
       style="fill:none;fill-opacity:0;stroke:#d0b4cc;stroke-width:1.4173;stroke-linecap:butt;stroke-linejoin:miter;stroke-dasharray:none"
       id="path1896" />
    <path
       d="M 278.7214,110.0984 A 41.2421,120.2714 0 0 1 319.9635,230.3699 41.2421,120.2714 0 1 1 278.7214,110.0984 Z"
       style="fill:none;fill-opacity:0;stroke:#d0b4cc;stroke-width:1.4173;stroke-linecap:butt;stroke-linejoin:miter;stroke-dasharray:none"
       id="path1898" />
  </g>
  <g
     id="Layer1001"
     transform="translate(-129.11131,-84.696092)">
    <path
       d="M 277.3553,107.8684 A 111.2863,120.2714 0 0 1 388.6416,228.1398 111.2863,120.2714 0 1 1 277.3553,107.8684 Z"
       style="fill:none;fill-opacity:0;stroke:#d0b4cc;stroke-width:1.4173;stroke-linecap:butt;stroke-linejoin:miter;stroke-dasharray:none"
       id="path1901" />
    <path
       d="m 277.4137,107.8684 a 90.369,120.2714 0 0 1 90.369,120.2714 90.369,120.2714 0 1 1 -90.369,-120.2714 z"
       style="fill:none;fill-opacity:0;stroke:#d0b4cc;stroke-width:1.4173;stroke-linecap:butt;stroke-linejoin:miter;stroke-dasharray:none"
       id="path1903" />
    <path
       d="M 272.8141,107.8684 A 62.8083,120.2714 0 0 1 335.6224,228.1398 62.8083,120.2714 0 1 1 272.8141,107.8684 Z"
       style="fill:none;fill-opacity:0;stroke:#d0b4cc;stroke-width:1.4173;stroke-linecap:butt;stroke-linejoin:miter;stroke-dasharray:none"
       id="path1905" />
    <g
       id="Layer1002">
      <path
         d="m 355.7187,205.8941 -0.1333,0.275 0.022,3.6883 -0.1353,0.275 0.0175,3.007 -0.1352,0.2731 8e-4,0.2741 2.3248,-0.0156 0.4101,0.1333 4.5088,-0.0273 0.2757,0.1361 4.0986,-0.0255 0.2734,0.1342 3.5539,-0.021 0.2742,0.136 3.4163,-0.0209 0.2739,0.1323 3.0062,-0.018 0.1389,0.1378 3.0051,-0.0183 0.275,0.1342 2.3237,-0.0135 0.2723,0.1352 2.5979,-0.0164 0.2731,0.1341 2.3237,-0.0127 0.2741,0.1334 2.0496,-0.012 0.2741,0.1361 1.9127,-0.0109 0.1345,-0.276 -0.008,-1.2284 0.1368,-0.2742 -0.007,-1.2313 0.1334,-0.2712 -0.008,-1.2332 0.1378,-0.2739 -0.0108,-1.6389 0.1341,-0.2757 -0.0101,-1.7749 0.1353,-0.2741 -0.0146,-2.4589 0.1315,-0.4102 -0.0183,-3.007 0.136,-0.2749 -0.003,-0.4092 -0.1379,8e-4 -3.9607,-0.1132 -2.0588,-1.2156 -2.5833,2.0641 0.1252,-1.6405 0.6814,-0.5517 -1.0924,0.1445 0.9526,-0.6888 -0.6925,-1.4981 -0.6767,0.9582 -0.2805,-1.2257 -0.272,0.4109 0.1349,-0.4109 -0.5461,0.2768 -0.5518,-0.8177 -0.2705,0.5488 -0.005,-0.9561 -0.4056,0.5481 -1.7847,-1.2186 -0.1352,0.4102 -1.2313,-0.4012 -0.8103,1.7794 0.823,0.1333 -0.8185,0.4139 -0.4139,-0.6795 -1.6277,2.0588 0.4001,-1.5063 -2.1832,0.424 3.0017,-0.8379 0.941,-2.4653 -3.6942,-0.6604 -0.9453,1.9175 -0.1415,-0.9548 -0.814,0.9611 -0.006,-1.0926 -0.8129,0.9611 0.8057,-1.9183 2.7183,-2.6124 -0.5454,0.004 0.403,-1.0961 -1.646,-0.8113 -1.1218,-4.6374 -0.5489,-0.4083 -0.1307,0.822 -1.3867,-1.899 -3.5057,-1.931 -0.9253,1.7637 1.1199,3.4145 5.5309,-0.005 -5.5783,-0.1442 -0.9877,2.0551 -0.6896,-0.4823 -2.1463,0.0713 0.0647,1.4222 -2.7167,-0.2585 -2.9311,1.6736 -2.1851,-1.4928 -0.4136,-2.0251 0.8914,-2.4234 -1.3336,-1.1772 -0.0311,-1.4125 -1.2376,-0.1625 -1.3875,-1.4633 0.4831,-1.4925 1.7512,-0.7188 -0.9436,-1.0669 1.838,-1.527 -0.5592,-0.5902 z m -0.4666,-31.7017 v 0 l -0.4091,-0.2704 -1.3684,0.1445 -0.0101,-1.7759 -1.6471,-0.9463 -1.5015,0.1461 -0.2741,-0.4099 -2.8699,0.0183 -0.275,-0.1345 -10.1128,0.0621 -0.4101,-0.135 -4.5106,0.0273 0.2786,0.6833 0.005,0.8201 -1.3628,0.5536 -0.9672,-1.6333 0.2712,-0.4136 -7.7888,0.0483 0.1453,1.0926 -2.723,1.931 0.2813,1.3647 -2.3367,-2.4454 -2.194,-0.9436 -1.5026,-0.1278 -0.6814,0.4139 0.006,0.8211 -0.1345,0.411 0.004,0.6814 2.0434,-1.1051 1.3737,1.3572 0.6841,-0.1389 -0.6777,1.0961 2.3393,2.8553 -0.5141,4.9224 1.095,0.6761 -0.1315,0.5488 -1.3546,2.0581 -1.7719,0.5562 0.1432,1.3674 -1.0895,0.2786 0.1432,1.2295 -2.184,0.5608 0.0411,6.8319 0.2731,-0.276 0.2787,0.8185 -0.5372,1.6441 0.0448,7.2418 2.2052,3.1276 1.6624,3.8181 1.7765,-0.0109 0.4083,-0.1397 9.2924,-0.0568 0.275,0.136 15.0306,-0.092 0.2749,0.135 7.3797,-0.0456 0.2731,0.136 3.4153,-0.0199 -8e-4,-0.2741 0.1352,-0.2731 -0.0175,-3.007 0.1353,-0.275 -0.022,-3.6883 0.1333,-0.275 z m -25.1644,-3.2636 v 0 l 0.9492,-1.3703 -0.8312,-1.773 1.7701,-1.1032 -1.2358,-0.8129 -3.2629,2.4806 -1.9172,-0.1251 -0.2678,0.6833 -1.2303,-0.2639 -0.8166,0.6878 -0.9481,1.3719 0.002,0.2731 z m 3.9443,-3.1661 v 0 l -2.5449,2.4142 0.3763,0.7418 4.5106,-0.0273 0.4101,0.135 10.1128,-0.0621 0.275,0.1345 2.8699,-0.0183 -0.8257,-0.814 2.0451,-0.6942 -4.9198,0.0292 1.2324,0.402 -2.8638,0.8375 -2.4671,-1.214 -3.9615,0.2969 -0.5563,-1.3636 -2.6015,-0.6668 z m -20.715,31.6943 v 0 l -2.7201,1.9292 0.9736,2.9998 -0.6777,0.687 2.469,1.6258 z m -0.009,-1.3673 v 0 l -0.5454,0.003 0.2776,0.5454 0.2696,-0.2749 z m -0.0374,-6.1495 v 0 l -1.0863,1.1009 0.4147,0.5433 -1.361,0.8296 0.1525,2.868 1.3721,0.8111 0.5398,-0.8227 z m -0.009,-1.5017 v 0 l -0.2712,0.1381 0.2776,0.8166 z m 0.0485,7.9251 v 0 l 0.1352,-0.2731 -0.137,-8e-4 z m 62.5549,-5.4376 v 0 l 0.6796,-0.8248 -1.3674,0.1461 z m 0.6796,-0.8248 v 0 l -1.3674,0.1461 0.6878,0.6787 z m 23.5101,23.3621 v 0 l 2.302,-3.4309 0.3937,-2.5986 -0.4303,-3.5498 -0.5526,-0.8166 -2.5986,-0.5335 -2.0681,-2.8555 -2.6098,-2.0332 0.003,0.4092 -0.136,0.2749 0.0183,3.007 -0.1315,0.4102 0.0146,2.4589 -0.1353,0.2741 0.0101,1.7749 -0.1341,0.2757 0.0108,1.6389 -0.1378,0.2739 0.008,1.2332 -0.1334,0.2712 0.007,1.2313 -0.1368,0.2742 0.008,1.2284 -0.1345,0.276 0.2761,0.1334 2.0477,-0.0138 0.276,0.137 1.6377,-0.009 0.4102,0.1334 1.5044,-0.009 z m 2.302,-3.4309 v 0 l 0.3937,-2.5986 -0.4303,-3.5498 -0.5526,-0.8166 -2.5986,-0.5335 -2.0681,-2.8555 -2.6098,-2.0332 5.5637,15.8181 z m -49.7534,42.9389 v 0 l 3.5535,-0.022 0.2731,0.1352 4.3727,-0.0265 0.2731,0.1352 3.8273,-0.0228 0.2747,0.1353 3.2785,-0.0212 0.2749,0.1362 0.411,-0.003 0.9473,-1.3718 2.0406,-1.3793 1.0759,-2.7394 -0.2832,-1.7757 1.0853,-1.3729 -0.547,-0.4049 0.8174,0.1308 1.4944,-1.5127 2.3146,-1.5182 1.6397,-0.009 2.1749,-1.7913 1.3684,0.4028 0.9535,-0.8268 -0.1352,0.6852 1.7777,0.1251 0.2684,-0.9571 1.9063,-0.9702 -0.005,-1.0916 2.4409,-3.1576 0.1333,-0.412 -0.002,-0.2731 0.1352,-0.2731 -10e-4,-0.2741 0.1337,-0.2739 -0.004,-0.6817 0.1361,-0.2758 -0.002,-0.2749 0.1344,-0.2731 -0.002,-0.4102 0.1341,-0.272 -0.003,-0.5465 0.1342,-0.2765 -0.002,-0.4075 0.1352,-0.2768 -0.004,-0.5444 0.1352,-0.412 -0.004,-0.5462 0.1352,-0.275 -0.002,-0.2739 0.1324,-0.4093 -0.004,-0.5462 0.1371,-0.2758 -0.005,-0.6832 0.1342,-0.2723 -0.005,-0.6841 0.136,-0.2731 -0.004,-0.5491 0.1344,-0.4102 -0.003,-0.5443 0.1342,-0.275 -0.004,-0.6832 0.1334,-0.275 -0.004,-0.6833 0.1344,-0.2731 -0.005,-0.9571 0.1352,-0.2752 -0.004,-0.5452 0.1333,-0.412 -0.005,-0.8185 0.135,-0.411 -0.005,-0.8193 0.1334,-0.412 -0.006,-0.9574 0.1352,-0.2731 -0.006,-0.9553 -1.9127,0.0109 -0.2741,-0.1361 -2.0496,0.012 -0.2741,-0.1334 -2.3237,0.0127 -0.2731,-0.1341 -2.5979,0.0164 -0.2723,-0.1352 -2.3237,0.0135 -0.275,-0.1342 -3.0051,0.0183 -0.1389,-0.1378 -3.0062,0.018 -0.2739,-0.1323 -3.4163,0.0209 -0.2742,-0.136 -3.5539,0.021 -0.2734,-0.1342 -4.0986,0.0255 -0.2757,-0.1361 -4.5088,0.0273 -0.4101,-0.1333 -2.3248,0.0156 0.0149,2.459 -0.1318,0.4091 0.013,2.1877 -0.1345,0.273 0.012,1.9138 -0.136,0.275 0.0116,1.9127 -0.136,0.2723 0.0119,1.9146 -0.1341,0.2747 0.009,1.5018 -0.1342,0.4101 0.009,1.5052 -0.1341,0.2734 0.007,1.2295 -0.137,0.2768 0.009,1.2284 -0.1333,0.4112 0.007,1.2303 -0.1349,0.2741 0.007,1.2303 -0.1352,0.2723 0.008,1.2295 -0.1352,0.2768 0.007,1.2276 -0.1344,0.2749 0.006,0.9553 -0.1344,0.2752 0.007,1.2295 -0.1352,0.2731 0.005,0.8219 -0.1333,0.4076 0.005,0.82 -0.1369,0.2779 0.006,0.9545 -0.1344,0.2742 0.006,0.9579 -0.1378,0.2713 0.006,0.8203 -0.1325,0.275 0.005,0.9563 -0.1362,0.2731 0.004,0.5473 -0.1342,0.2731 0.006,0.959 -0.1345,0.275 0.004,0.8203 -0.1353,0.2723 0.004,0.6841 -0.136,0.2739 0.003,0.5454 -0.1334,0.276 0.006,0.8185 -0.1352,0.2731 0.004,0.684 0.548,-0.004 z m -35.3736,-41.3268 v 0 l 1.2467,2.7248 3.1706,4.3553 -0.4038,1.0953 0.9675,1.634 1.6486,1.6288 7.5396,3.9177 2.3364,2.3091 0.2943,3.2793 0.0183,3.007 -1.204,4.242 0.2959,3.6865 -2.2789,7.1204 0.4203,1.9109 -0.1355,0.1389 0.2741,0.136 12.2994,-0.0758 0.1382,0.1344 6.6953,-0.0403 0.2731,0.1334 1.0935,-0.006 -0.004,-0.684 0.1352,-0.2731 -0.006,-0.8185 0.1334,-0.276 -0.003,-0.5454 0.136,-0.2739 -0.004,-0.6841 0.1353,-0.2723 -0.004,-0.8203 0.1345,-0.275 -0.006,-0.959 0.1342,-0.2731 -0.004,-0.5473 0.1362,-0.2731 -0.005,-0.9563 0.1325,-0.275 -0.006,-0.8203 0.1378,-0.2713 -0.006,-0.9579 0.1344,-0.2742 -0.006,-0.9545 0.1369,-0.2779 -0.005,-0.82 0.1333,-0.4076 -0.005,-0.8219 0.1352,-0.2731 -0.007,-1.2295 0.1344,-0.2752 -0.006,-0.9553 0.1344,-0.2749 -0.007,-1.2276 0.1352,-0.2768 -0.008,-1.2295 0.1352,-0.2723 -0.007,-1.2303 0.1349,-0.2741 -0.007,-1.2303 0.1333,-0.4112 -0.009,-1.2284 0.137,-0.2768 -0.007,-1.2295 0.1341,-0.2734 -0.009,-1.5052 0.1342,-0.4101 -0.009,-1.5018 0.1341,-0.2747 -0.0119,-1.9146 0.136,-0.2723 -0.0116,-1.9127 0.136,-0.275 -0.012,-1.9138 0.1345,-0.273 -0.013,-2.1877 0.1318,-0.4091 -0.0149,-2.459 -3.4153,0.0199 -0.2731,-0.136 -7.3797,0.0456 -0.2749,-0.135 -15.0306,0.092 -0.275,-0.136 -9.2924,0.0568 -0.4083,0.1397 z m 73.2468,22.2387 v 0 l 0.5424,-0.6861 0.6677,-2.4645 1.0852,-1.3745 2.123,-10.26 0.2712,-0.4128 0.2776,0.8174 0.8148,-0.6877 3.7963,-5.3517 -0.411,-0.1344 -1.5044,0.009 -0.4102,-0.1334 -1.6377,0.009 -0.276,-0.137 -2.0477,0.0138 -0.2761,-0.1334 0.006,0.9553 -0.1352,0.2731 0.006,0.9574 -0.1334,0.412 0.005,0.8193 -0.135,0.411 0.005,0.8185 -0.1333,0.412 0.004,0.5452 -0.1352,0.2752 0.005,0.9571 -0.1344,0.2731 0.004,0.6833 -0.1334,0.275 0.004,0.6832 -0.1342,0.275 0.003,0.5443 -0.1344,0.4102 0.004,0.5491 -0.136,0.2731 0.005,0.6841 -0.1342,0.2723 0.005,0.6832 -0.1371,0.2758 0.004,0.5462 -0.1324,0.4093 0.002,0.2739 -0.1352,0.275 0.004,0.5462 -0.1352,0.412 0.004,0.5444 -0.1352,0.2768 0.002,0.4075 -0.1342,0.2765 0.003,0.5465 -0.1341,0.272 0.002,0.4102 -0.1344,0.2731 0.002,0.2749 -0.1361,0.2758 0.004,0.6817 -0.1337,0.2739 0.001,0.2741 -0.1352,0.2731 0.002,0.2731 z m -63.6267,53.8188 v 0 l 0.1371,-8e-4 z m -0.8839,-10.5174 v 0 l 0.8174,-0.4128 -0.0146,-2.3229 -0.8193,0.005 -0.2686,0.8203 -0.3993,1.6415 z m 1.5171,2.3147 v 0 l 0.1334,-0.6841 -0.8185,0.4147 z m 2.2818,-6.8462 v 0 l 0.8238,0.5417 -0.8193,0.1407 z m -1.9074,0.9693 v 0 l -0.005,-0.6832 0.5488,0.5424 z m -1.5773,10.3949 v 0 l 0.8245,0.6785 -0.684,-0.1323 0.4139,0.5406 -1.7794,-0.3964 1.0969,0.5391 -0.8174,0.4165 0.5469,0.1315 -0.5395,1.0988 0.5443,-0.4147 0.5507,0.8166 -0.9563,-0.1304 0.2757,0.5443 1.0934,-0.007 2.5971,-0.0154 0.411,0.1342 3.5524,-0.021 -0.1398,-0.4102 0.2768,0.4084 0.6833,-0.004 0.6732,-1.5082 2.8598,-1.655 0.1307,-1.2332 -1.3702,-0.264 -1.1025,-1.4962 1.2213,-1.3737 2.185,-0.5592 0.5324,-2.0543 1.7711,-1.1025 -0.9616,-0.5425 0.9563,-0.2794 0.4137,0.6822 0.8166,-0.5507 -0.1424,-0.8204 -1.2249,0.5518 -0.8257,-0.6761 0.3964,-2.3264 1.9191,0.8092 2.3192,-0.4239 0.5308,-2.7384 0.4099,0.136 -0.2794,-1.0916 1.9145,0.3993 1.9136,-0.2877 -0.003,-0.5462 0.1323,-0.2731 -0.002,-0.4112 0.1361,-0.2731 -0.004,-0.5462 0.1361,-0.2749 -0.005,-0.547 0.136,-0.2742 -0.003,-0.4083 0.1342,-0.2731 -0.003,-0.5472 0.1361,-0.2731 -0.002,-0.275 0.1315,-0.2739 -0.004,-0.5472 0.1378,-0.1368 -0.003,-0.5473 0.1341,-0.2723 -0.003,-0.548 0.136,-0.2731 -0.006,-0.8204 0.1353,-0.2749 -0.005,-0.547 0.136,-0.2742 -0.003,-0.4091 0.1352,-0.2731 -0.004,-0.548 0.1361,-0.2753 -0.005,-0.5451 0.1361,-0.276 -0.004,-0.5443 0.1344,-0.2758 -0.005,-0.8193 0.136,-0.2733 z m -0.2753,-0.5462 v 0 l -0.8174,0.4155 0.9564,-0.006 z m 25.5226,-27.7587 v 0 l 0.1251,-1.5045 0.1371,-0.2757 -0.003,-0.5454 0.1334,-0.2757 -8e-4,-0.1353 -1.0935,0.006 -0.2731,-0.1334 -6.6953,0.0403 -0.1382,-0.1344 -12.2994,0.0758 -0.2741,-0.136 -0.8119,1.2332 0.0366,5.739 -2.8328,6.439 -0.9545,0.4183 0.8442,3.8192 -1.3493,2.7428 0.8249,0.9508 -0.5444,0.2779 1.3637,-0.4184 0.5472,0.1323 0.5454,-0.2776 -0.9511,0.9638 0.823,0.4038 -0.2701,0.5481 -0.5491,-0.4057 0.5491,0.5425 -0.5473,-0.1342 -0.3982,1.6423 0.5507,0.6806 -0.9553,0.4155 1.0979,0.6796 -1.4972,1.1008 1.2331,0.2657 -1.0942,0.1445 -0.1334,0.5489 0.5454,-0.2795 -0.938,3.1496 z m -25.5615,21.4722 v 0 l 0.8174,-0.4128 -0.0146,-2.3229 -0.8193,0.005 -0.2686,0.8203 -0.3993,1.6415 z m 1.5171,2.3147 v 0 l 0.1334,-0.6841 -0.8185,0.4147 z m 2.2818,-6.8462 v 0 l 0.8238,0.5417 -0.8193,0.1407 z m -1.9074,0.9693 v 0 l -0.005,-0.6832 0.5488,0.5424 z m 24.0619,-20.6466 v 0 l -0.3919,2.7366 -0.136,0.2733 0.005,0.8193 -0.1344,0.2758 0.004,0.5443 -0.1361,0.276 0.005,0.5451 -0.1361,0.2753 0.004,0.548 -0.1352,0.2731 0.003,0.4091 -0.136,0.2742 0.005,0.547 -0.1353,0.2749 0.006,0.8204 -0.136,0.2731 0.003,0.548 -0.1341,0.2723 0.003,0.5473 -0.1378,0.1368 0.004,0.5472 -0.1315,0.2739 0.002,0.275 -0.1361,0.2731 0.003,0.5472 -0.1342,0.2731 0.003,0.4083 -0.136,0.2742 0.005,0.547 -0.1361,0.2749 0.004,0.5462 -0.1361,0.2731 0.002,0.4112 -0.1323,0.2731 0.003,0.5462 2.4562,-0.4229 1.6352,-0.8312 1.9,-2.0599 0.1307,-1.0924 -0.9611,-0.6806 0.675,-1.2339 -2.0596,-1.6277 0.6676,-2.599 -0.2622,1.6397 0.8259,1.0889 2.6024,0.9399 3.4145,-0.4303 3.2599,-3.0245 1.2157,-2.3337 2.5787,-2.7466 -0.276,-0.6825 1.0982,0.95 -3.2601,3.1642 2.584,-1.9292 1.6296,-2.0599 -0.411,0.003 -0.2749,-0.1362 -3.2785,0.0212 -0.2747,-0.1353 -3.8273,0.0228 -0.2731,-0.1352 -4.3727,0.0265 -0.2731,-0.1352 -4.4486,0.0273 z m -24.9324,34.7254 v 0 l 1.6415,0.2638 -1.3647,0.2813 0.004,0.5483 -0.4176,-1.0926 z m 7.6968,7.3322 v 0 l 2.0461,-0.5581 -3.0117,-1.0736 -1.1054,-1.909 -2.1858,0.4248 0.005,0.8195 1.3684,0.1268 -1.087,0.8296 1.3692,0.5361 -0.5444,0.4136 -0.003,-0.5462 -0.4076,0.2742 -1.507,-0.5364 0.9598,0.5409 -0.683,0.1416 -0.14,-0.4083 z m -7.5295,-2.5477 v 0 l 0.6841,0.4019 -0.2768,-0.4046 1.5007,-0.6944 -1.5044,0.009 z m 2.6005,1.077 v 0 l 0.8238,0.4038 -0.2794,-0.9537 z m -0.1325,0.4091 v 0 l -0.822,-0.4036 8e-4,0.4092 z m 3.9251,-6.1738 v 0 l 0.1368,0.137 0.5465,-0.1407 z m -7.6483,0.5936 v 0 l 0.003,0.6833 0.5427,-0.687 0.4129,0.4094 -1.2276,0.4184 0.684,0.2638 -0.4038,0.6896 0.8212,0.6769 -0.003,-0.6814 0.2787,0.6806 -0.2787,-0.8185 0.959,0.4039 -1.0961,-0.5391 0.6796,-0.4173 -0.2694,0.5507 0.822,0.4046 -0.5399,0.9601 0.2686,-0.6851 -0.4065,0.5517 -0.002,-0.411 -0.9582,0.005 0.008,1.0927 1.0908,-0.4176 -0.6788,0.6896 0.5481,0.1315 0.1307,-0.8211 1.7764,-0.0101 0.1408,0.8177 -0.8156,0.6915 0.2702,-0.5472 -0.8193,0.276 1.3711,0.675 0.6742,-1.6444 2.32,-0.6978 1.0908,0.1333 -0.688,-1.0924 -0.8212,0.005 0.8212,-0.005 -0.5499,-0.6824 1.6317,-1.3729 -0.276,-0.2721 -3.5524,0.021 -0.411,-0.1342 -2.46,0.0146 1.6415,0.2638 -1.3647,0.2813 0.004,0.5483 -0.4176,-1.0926 -1.0934,0.007 0.276,0.5443 z m 8.7847,6.6418 v 0 l 2.0461,-0.5581 -3.0117,-1.0736 -1.1054,-1.909 -2.1858,0.4248 0.005,0.8195 1.3684,0.1268 -1.087,0.8296 1.3692,0.5361 -0.5444,0.4136 -0.003,-0.5462 -0.4076,0.2742 -1.507,-0.5364 0.9598,0.5409 -0.683,0.1416 -0.14,-0.4083 z m -7.5295,-2.5477 v 0 l 0.6841,0.4019 -0.2768,-0.4046 1.5007,-0.6944 -1.5044,0.009 z m 2.6005,1.077 v 0 l 0.8238,0.4038 -0.2794,-0.9537 z m -0.1325,0.4091 v 0 l -0.822,-0.4036 8e-4,0.4092 z"
         style="fill:#d0b4cc;fill-rule:evenodd"
         id="path1907" />
      <path
         d="m 274.6596,133.7389 -2.2551,1.7317 -1.3832,-0.8063 -0.1249,-1.6418 -0.5738,-0.8246 -1.2156,-1.2726 -2.714,0.0803 -0.5918,0.8219 -3.904,0.2437 -4.7025,-1.8541 -3.1396,0.4756 -0.167,4.2161 1.3665,-0.008 0.2731,-0.1376 0.2731,-0.002 0.6631,-3.284 2.1922,1.0794 -0.1241,2.0511 0.8204,-0.005 0.4091,-0.14 z m 33.0141,14.5065 v 0 l 0.9564,-0.2787 -0.2776,-0.5454 -0.5473,-0.1328 z m 6.1311,-3.0436 v 0 l -2.1895,-0.3966 -5.7318,0.9916 -0.6759,1.3703 -1.2268,0.2802 1.7757,-0.0103 2.5869,-1.6556 1.7765,-0.0106 0.4139,0.4089 -1.0943,0.1434 0.686,0.4059 3.5568,0.66 z m 18.6369,8.632 v 0 l 4.2412,0.5202 0.5416,-0.8227 -2.6023,-0.9402 0.9553,-0.4166 -1.2321,0.008 -0.551,-0.8156 z m 9.5737,1.0348 v 0 l 0.6777,-0.8232 -3.279,0.0196 0.1432,0.8187 z m 9.1811,4.044 v 0 l 0.8174,-0.5505 -0.6878,-0.5422 -0.6803,0.4115 z m -23.8389,-9.9667 v 0 l 0.2683,-0.6865 -1.3626,0.5558 z m -13.6753,-1.5569 v 0 l 2.4627,0.3956 1.2395,1.6314 1.7767,0.1254 0.2787,0.6825 -1.2242,0.9648 5.4651,-0.171 1.7712,-0.6933 -3.2846,-0.801 0.1342,-0.8196 -2.4645,-0.3964 -5.6194,-2.9709 -0.4129,-0.1347 z m 18.7594,6.4448 v 0 l 4.2412,0.5202 0.5416,-0.8227 -2.6023,-0.9402 0.9553,-0.4166 -1.2321,0.008 -0.551,-0.8156 -5.6669,-0.4117 -1.0661,0.5478 1.1823,0.2707 -0.1745,0.745 0.7771,1.2451 -3.5367,-0.2293 -0.3919,0.381 1.1518,0.7045 3.5086,-0.432 1.4869,1.2258 z m 9.5737,1.0348 v 0 l 0.6777,-0.8232 -3.279,0.0196 0.1432,0.8187 z m 9.1811,4.044 v 0 l 0.8174,-0.5505 -0.6878,-0.5422 -0.6803,0.4115 z m -23.8389,-9.9667 v 0 l 0.2683,-0.6865 -1.3626,0.5558 z m 5.0859,4.8879 v 0 l 4.2394,0.5202 0.5416,-0.8227 -2.6023,-0.9402 0.9553,-0.4166 -1.2321,0.008 -0.551,-0.8156 -3.7268,-0.3012 z m -18.7612,-6.4448 v 0 l 0.1215,-2.1866 z m 28.3331,7.4796 v 0 l 0.6777,-0.8232 -3.279,0.0196 0.1424,0.8187 z m 9.1811,4.044 v 0 l 0.8166,-0.5515 -0.6878,-0.5414 -0.6795,0.4117 z m -23.8389,-9.9667 v 0 l 0.2683,-0.6865 -1.3626,0.5558 z m -73.4695,-14.0371 v 0 l 0.002,0.4104 1.6543,2.175 -0.8122,1.0984 0.4113,0.4084 -1.5036,0.008 1.3774,1.6327 0.8166,-0.5523 0.9664,1.6338 -0.6705,2.3274 2.3375,2.1718 0.1434,1.229 1.0906,-0.6897 -0.148,-1.5012 -1.2313,-0.5404 -0.0247,-3.9628 -1.2432,-2.0421 0.1299,-1.2313 -1.383,-2.7233 z m 4.6439,-0.3015 v 0 l 0.0109,1.7756 0.9673,1.7704 0.9582,-0.006 -0.4054,1.0956 1.7884,1.7661 -0.813,1.0982 1.7831,1.0823 0.005,0.6836 2.4783,3.1286 0.8365,2.7257 -0.9481,1.3734 0.5499,0.2699 -0.9564,0.4166 0.2787,0.6819 2.89,3.2618 2.7358,0.529 1.3758,1.3591 1.9164,0.6718 z m -0.3982,1.7775 v 0 l 0.1397,0.4096 0.2676,-0.8208 z m 0.1397,0.4096 v 0 l 0.2676,-0.8208 -0.4073,0.4112 z m 1.488,-2.3319 v 0 l -0.4091,0.14 -0.8204,0.005 0.0109,1.7756 0.9673,1.7704 0.9582,-0.006 -0.4054,1.0956 1.7884,1.7661 -0.813,1.0982 1.7831,1.0823 0.005,0.6836 2.4783,3.1286 0.8365,2.7257 -0.9481,1.3734 0.5499,0.2699 -0.9564,0.4166 0.2787,0.6819 2.89,3.2618 2.7358,0.529 1.3758,1.3591 1.9164,0.6718 -0.004,-0.4109 0.1352,-0.2737 3.4344,-19.6992 -0.002,-0.2731 0.1333,-0.2749 -0.003,-0.5462 0.1341,-0.2742 -3.4198,-1.9798 0.1353,-0.2736 -0.003,-0.2726 0.135,-0.2742 z m -5.8734,0.4463 v 0 l 0.002,0.4104 1.6543,2.175 -0.8122,1.0984 0.4113,0.4084 -1.5036,0.008 1.3774,1.6327 0.8166,-0.5523 0.9664,1.6338 -0.6705,2.3274 2.3375,2.1718 0.1434,1.229 1.0906,-0.6897 -0.148,-1.5012 -1.2313,-0.5404 -0.0247,-3.9628 -1.2432,-2.0421 0.1299,-1.2313 -1.383,-2.7233 -0.2731,0.002 -0.2731,0.1376 z m 4.2457,1.476 v 0 l 0.1397,0.4096 0.2676,-0.8208 z m 44.6239,34.85 v 0 l -0.548,-0.5444 0.959,0.5417 3.8265,-0.0238 -1.7924,-2.722 1.5996,-6.1584 -0.4194,-1.912 -3.2891,-1.3458 -6.2809,0.7212 -1.5063,-0.4012 -0.5955,0.007 0.5372,-3.8459 1.064,-1.2655 0.5581,0.0594 0.5865,-0.8437 0.2813,1.2289 1.0778,-2.7413 -0.6859,-0.1315 2.1675,-3.2928 -2.5997,-0.3942 -4.2301,1.1191 -1.2074,3.423 -1.7667,1.7868 -1.5054,-0.4012 -4.0912,1.3926 -1.3734,-1.2213 -1.2287,0.007 -2.7734,-6.4063 -0.005,-0.9548 0.6613,-3.6948 0.2633,-1.3678 0.8182,-0.2787 -0.2694,0.6843 0.9474,-1.7812 -3.1425,-0.6994 -0.5032,-2.1259 -2.0817,-3.6227 -1.5502,-0.2906 -0.135,0.2742 0.003,0.2726 -0.1353,0.2736 3.4198,1.9798 -0.1341,0.2742 0.003,0.5462 -0.1333,0.2749 0.002,0.2731 -3.4344,19.6992 -0.1352,0.2737 0.004,0.4109 6.1638,2.1472 4.5013,-1.12 5.6276,4.2012 5.612,1.4707 -0.5488,-0.272 2.732,-0.4258 0.1424,1.0926 -0.8193,0.005 3.9835,3.6648 -0.5425,0.4128 0.548,0.2705 0.008,1.5044 z m 10.4169,4.9907 v 0 l -0.9646,-1.4959 0.9527,-0.5536 -0.004,-0.6814 0.1345,-0.411 -0.006,-0.8211 -2.3155,1.3819 -1.7812,-0.8092 0.2768,0.5424 -0.9564,-0.1288 -1.5163,-2.0405 -3.8265,0.0238 0.1371,0.1342 2.3348,1.9 0.008,1.2284 0.6825,-0.005 -0.2768,-0.6796 1.1027,1.4962 0.2694,-0.684 2.0496,0.2603 0.5554,1.0879 0.9519,-0.551 0.2832,1.4997 0.9571,-0.005 z m -11.7834,-4.9825 v 0 l 0.003,0.2731 1.0964,0.6758 0.5443,-0.5499 -0.2768,-0.4072 z"
         style="fill:#d0b4cc;fill-rule:evenodd"
         id="path1909" />
    </g>
    <g
       id="Layer1003">
      <path
         d="m 356.3417,315.0403 c -15.074,15.4685 -34.5153,26.7253 -55.5464,32.3735 -10.5277,2.791 -21.4584,4.1332 -32.3867,3.9628 -10.9305,-0.162 -21.8456,-1.931 -32.3175,-5.1554 -20.9655,-6.4156 -40.0427,-18.949 -54.3477,-35.6545 -14.3351,-16.7002 -23.7617,-37.4533 -27.3563,-59.1334 -3.572,-21.6999 -1.2822,-44.3094 6.4996,-64.8432 7.7789,-20.4928 20.7816,-39.0821 37.6999,-53.0058 8.4329,-6.9774 17.7614,-12.8687 27.7114,-17.3809 9.9466,-4.5138 20.478,-7.711 31.2364,-9.4221 21.5197,-3.393 43.9054,-0.718 63.7547,7.8188 -10.1363,-3.7035 -20.6849,-6.2161 -31.3812,-7.1592 -10.6907,-0.9524 -21.4861,-0.3956 -31.9855,1.5922 -21.0295,3.8811 -40.8514,13.5024 -56.9927,27.3336 -8.0659,6.9243 -15.2235,14.8834 -21.276,23.6007 -6.0415,8.7191 -10.9717,18.2154 -14.6327,28.1676 -7.3894,19.871 -9.5486,41.652 -6.0377,62.5401 3.3774,20.8969 12.4314,40.8725 26.113,57.0411 6.8106,8.1015 14.7693,15.2428 23.5737,21.1428 8.8114,5.8866 18.4256,10.6062 28.5178,13.9091 20.1923,6.6176 42.2643,7.4169 63.0549,2.4426 10.4085,-2.4317 20.5095,-6.2737 29.9556,-11.3755 4.7249,-2.5479 9.2822,-5.4167 13.6456,-8.5629 4.3772,-3.1291 8.5532,-6.5504 12.4978,-10.232 z"
         style="fill:#67306c;fill-rule:evenodd"
         id="path1912" />
    </g>
    <g
       id="Layer1004">
      <path
         d="m 174.2612,148.2653 c 0.7244,-0.802 1.4085,-1.5919 2.0504,-2.3788 1.3054,-1.5914 2.2871,-2.8788 2.9333,-3.851 0.4397,-0.685 0.8543,-1.431 1.2224,-2.2417 l -2.3638,-3.207 0.6562,-0.8092 c 1.4354,1.5221 2.7953,2.9071 4.097,4.1655 -0.5029,0.862 -1.2935,1.9505 -2.378,3.2728 l -5.0307,5.9667 c -0.6752,0.8115 -1.6574,2.1103 -2.9792,3.9028 l -0.6752,-0.55 c 0.2608,-0.913 0.2682,-1.5718 0.0307,-1.9687 -0.2423,-0.4006 -1.529,-1.5554 -3.8695,-3.462 l -6.9695,-5.691 c -2.5393,-2.0689 -3.9958,-3.16 -4.3869,-3.2797 -0.3893,-0.1134 -0.8166,0.1083 -1.2822,0.6723 l -1.1326,1.3863 -0.8052,-0.6551 c 1.6978,-1.9783 2.8167,-3.2853 3.3576,-3.9467 0.7199,-0.8847 1.6664,-2.0911 2.8395,-3.6457 l 0.8057,0.6615 -1.2819,1.5681 c -0.3636,0.446 -0.4667,0.8419 -0.3055,1.1659 0.1625,0.3284 1.1818,1.2655 3.0659,2.8016 l 8.0773,6.5953 3.6115,2.8854 z"
         style="fill:#67306c;fill-rule:evenodd;stroke:#67306c;stroke-width:0.7087;stroke-linecap:butt;stroke-linejoin:miter;stroke-dasharray:none"
         id="path1915" />
      <path
         d="m 177.7235,128.9329 -0.7314,-0.8213 -0.7838,-0.8211 0.6263,-1.9584 c 0.2854,-0.8858 0.594,-1.595 0.9206,-2.1349 0.3317,-0.5375 0.7466,-1.0414 1.2492,-1.5079 1.1043,-1.0266 2.225,-1.6027 3.3685,-1.7324 1.1402,-0.1298 2.1291,0.1305 2.9816,0.7713 0.6244,0.4926 2.0086,1.8741 4.1435,4.1396 2.006,2.1376 3.1528,3.2773 3.4409,3.4367 0.2859,0.1498 0.5871,0.0777 0.9103,-0.2196 l 0.9323,-0.8663 0.7265,0.7915 c -0.9582,0.7965 -1.6215,1.3591 -1.9775,1.6928 -0.4582,0.4181 -1.0377,1.001 -1.7459,1.7438 l -0.973,-1.0813 c -0.3182,-0.338 -0.6429,-0.6871 -0.9772,-1.0306 l -0.736,4.2109 c -0.0652,0.3718 -0.1786,0.6979 -0.3369,0.9638 -0.1488,0.2642 -0.4228,0.579 -0.8039,0.9222 -1.0395,0.9659 -2.0638,1.4397 -3.0849,1.4339 -1.0131,-0.002 -1.9209,-0.4382 -2.711,-1.3015 -0.7415,-0.8083 -1.2076,-1.6965 -1.3789,-2.6573 -0.1733,-0.9688 -0.0309,-1.9333 0.4239,-2.8794 0.4492,-0.9558 1.7647,-2.8767 3.9564,-5.7539 -0.9502,-1.0021 -1.8817,-1.5517 -2.7747,-1.6606 -1.132,-0.1274 -2.2068,0.2748 -3.217,1.2071 -0.3819,0.3536 -0.7037,0.7384 -0.9577,1.139 -0.2481,0.4064 -0.4318,0.8401 -0.5483,1.2972 0.3018,0.787 0.5983,1.5364 0.8929,2.2383 z m 8.0997,-3.9456 v 0 c -1.7842,2.5432 -2.7881,4.3005 -2.9953,5.2764 -0.2162,0.9788 0.0811,1.9074 0.9027,2.795 0.5467,0.5962 1.1596,0.9104 1.8318,0.9526 0.6733,0.0365 1.2832,-0.1992 1.8258,-0.7018 0.6109,-0.5513 1.0295,-1.2587 1.2713,-2.0953 0.2323,-0.8435 0.2941,-1.8321 0.1784,-2.9634 l -2.4869,-2.6478 z"
         style="fill:#67306c;fill-rule:evenodd;stroke:#67306c;stroke-width:0.7087;stroke-linecap:butt;stroke-linejoin:miter;stroke-dasharray:none"
         id="path1917" />
      <path
         d="m 193.1841,113.5851 3.8798,5.134 c 1.0137,1.335 1.6997,2.1526 2.0683,2.4637 0.3729,0.3102 0.7764,0.4669 1.1958,0.4777 0.422,0.0106 0.8385,-0.1424 1.2486,-0.4524 0.2532,-0.1926 0.468,-0.431 0.626,-0.7013 0.1686,-0.2814 0.2939,-0.6102 0.3814,-0.9865 l 0.7245,0.1713 -0.1392,2.4684 c -0.2112,0.3018 -0.4316,0.5795 -0.6551,0.8303 -0.2252,0.2494 -0.4677,0.4762 -0.7095,0.654 -0.6488,0.4847 -1.2782,0.7843 -1.9093,0.9014 -0.6152,0.106 -1.177,0.0486 -1.6563,-0.1757 -0.4799,-0.2122 -1.0119,-0.6961 -1.57,-1.449 l -1.8593,-2.5672 -3.7654,-4.9818 c -0.6741,0.5064 -1.3511,1.0584 -2.0252,1.6551 l -0.4144,-0.5476 c 0.5449,-0.8435 1.019,-1.6669 1.4307,-2.4464 -0.9463,-1.2402 -2.0118,-2.5625 -3.1727,-3.9734 0.6887,-1.1955 1.1723,-2.099 1.4188,-2.6999 l 0.5433,0.006 c 0.445,0.7294 1.5872,2.3876 3.4298,4.9921 1.0655,-0.8073 1.9219,-1.4743 2.571,-2.0036 l 1.0155,-0.8348 0.8498,1.4164 -0.5417,0.3893 -2.5041,1.9071 z"
         style="fill:#67306c;fill-rule:evenodd;stroke:#67306c;stroke-width:0.7087;stroke-linecap:butt;stroke-linejoin:miter;stroke-dasharray:none"
         id="path1919" />
      <path
         d="m 196.9796,98.4784 c 0.4284,-0.2576 0.8953,-0.3285 1.3892,-0.2072 0.4963,0.1248 0.8776,0.4067 1.1397,0.8446 0.2683,0.4418 0.3388,0.9016 0.2136,1.3947 -0.1253,0.4953 -0.4091,0.8708 -0.8322,1.1276 -0.441,0.263 -0.9138,0.3425 -1.4013,0.2217 -0.499,-0.1189 -0.8745,-0.3985 -1.1363,-0.84 -0.2648,-0.4324 -0.3396,-0.8959 -0.2106,-1.4011 0.1146,-0.4908 0.4006,-0.8713 0.8379,-1.1403 z m 4.8259,5.5193 v 0 l 0.4658,0.0108 c 0.3631,0.732 0.7896,1.534 1.2809,2.3873 1.5868,2.7633 2.772,4.7941 3.5556,6.0972 0.7415,1.2153 1.4119,2.234 2.0046,3.0429 0.2458,0.3115 0.4783,0.4902 0.6955,0.5367 0.2175,0.0457 0.6099,-0.0568 1.1849,-0.3126 l 1.0322,-0.4461 0.4857,0.8047 c -1.4087,0.7721 -2.6729,1.4893 -3.7971,2.1735 -1.108,0.6646 -2.2128,1.372 -3.3016,2.1085 l -0.4862,-0.8028 1.1313,-0.8605 c 0.4534,-0.3237 0.6886,-0.5826 0.7182,-0.7925 0.0206,-0.1908 -0.1797,-0.6849 -0.6186,-1.4719 -0.6715,-1.2208 -1.6363,-2.8761 -2.8968,-4.9664 -0.8749,-1.4592 -1.5773,-2.5649 -2.1043,-3.3265 -0.1902,-0.2753 -0.3905,-0.431 -0.6146,-0.4637 -0.2204,-0.0352 -0.5848,0.1009 -1.0961,0.4032 l -1.0484,0.6382 -0.4907,-0.7996 c 1.0393,-0.8581 1.7859,-1.5192 2.2438,-1.9867 0.4506,-0.4675 1.0042,-1.1226 1.6559,-1.9737 z"
         style="fill:#67306c;fill-rule:evenodd;stroke:#67306c;stroke-width:0.7087;stroke-linecap:butt;stroke-linejoin:miter;stroke-dasharray:none"
         id="path1921" />
      <path
         d="m 212.849,101.3221 1.3078,-3.0509 c 0.1466,-0.3554 0.3472,-0.6646 0.5903,-0.9098 0.5523,-0.5238 1.1548,-0.9381 1.7986,-1.241 1.0646,-0.4991 2.0762,-0.7134 3.0442,-0.6397 0.9714,0.069 1.7882,0.3723 2.4512,0.899 0.6546,0.5269 1.3221,1.5279 2.0121,2.9945 l 2.128,4.7004 c 0.7592,1.6214 1.2608,2.5114 1.5103,2.6925 0.3445,0.2312 0.7761,0.2211 1.3284,-0.0296 l 1.0636,-0.5085 0.3974,0.8541 c -1.0903,0.4331 -2.021,0.8348 -2.7889,1.1984 -0.7524,0.347 -1.5486,0.7605 -2.3812,1.2277 -0.7133,-2.017 -1.8453,-4.6657 -3.3785,-7.9504 -0.6245,-1.3138 -1.1815,-2.2009 -1.6635,-2.646 -0.4902,-0.4394 -1.0948,-0.7023 -1.7941,-0.7848 -0.705,-0.0801 -1.4346,0.0647 -2.2068,0.4196 -0.9481,0.4461 -1.6476,1.0661 -2.0897,1.8591 -0.4403,0.8065 -0.6017,1.5232 -0.4794,2.1841 0.083,0.4296 0.5029,1.4621 1.2661,3.0949 0.8464,1.8057 1.6518,3.4853 2.41,5.0198 0.2217,0.4596 0.4276,0.7127 0.6152,0.7759 0.3591,0.1131 0.8205,0.0267 1.3879,-0.2378 l 1.0681,-0.4963 0.3972,0.8498 c -1.7122,0.7294 -3.0691,1.3216 -4.0609,1.7922 -1.0607,0.4939 -2.2496,1.0866 -3.5661,1.7756 l -0.3982,-0.8467 1.0742,-0.5074 c 0.7375,-0.347 1.0905,-0.7182 1.0546,-1.1075 -0.0367,-0.3974 -0.9339,-2.488 -2.6983,-6.2407 -0.7862,-1.6888 -1.4288,-3.003 -1.9151,-3.9453 -0.1707,-0.3063 -0.3448,-0.486 -0.5433,-0.5346 -0.1939,-0.0558 -0.6136,0.0732 -1.2674,0.375 l -1.0678,0.4994 -0.4001,-0.8527 c 0.8047,-0.4934 1.5002,-0.9881 2.0974,-1.4738 0.5954,-0.4894 1.2322,-1.0993 1.9124,-1.8469 0.0751,-0.0882 0.1464,-0.1443 0.2307,-0.1807 0.1557,-0.0708 0.2899,0.0018 0.3951,0.2286 l 0.2481,0.5745 z"
         style="fill:#67306c;fill-rule:evenodd;stroke:#67306c;stroke-width:0.7087;stroke-linecap:butt;stroke-linejoin:miter;stroke-dasharray:none"
         id="path1923" />
      <path
         d="m 229.5164,95.3409 -0.2944,-1.0615 -0.3443,-1.0824 1.4344,-1.4735 c 0.6408,-0.6757 1.2327,-1.1759 1.7657,-1.5155 0.5312,-0.3391 1.1239,-0.6104 1.783,-0.7983 1.4428,-0.4289 2.7078,-0.4561 3.7836,-0.0695 1.0829,0.3839 1.8622,1.0591 2.3368,2.0112 0.3414,0.7122 0.9793,2.5601 1.895,5.5304 0.8596,2.8056 1.3865,4.3425 1.5742,4.6078 0.1889,0.2571 0.4941,0.3256 0.9185,0.1977 l 1.2145,-0.3539 0.3055,1.0277 c -1.215,0.292 -2.054,0.5063 -2.5265,0.6437 -0.5949,0.1763 -1.3641,0.4411 -2.3316,0.8007 l -0.3977,-1.4024 c -0.135,-0.4436 -0.2753,-0.899 -0.4228,-1.3569 l -2.5181,3.4522 c -0.2204,0.2994 -0.4709,0.5457 -0.7298,0.7156 -0.2458,0.1731 -0.6335,0.3351 -1.1334,0.4781 -1.3491,0.4104 -2.4803,0.3837 -3.3947,-0.073 -0.9074,-0.4521 -1.53,-1.2454 -1.8627,-2.3635 -0.3116,-1.0578 -0.3377,-2.0577 -0.0629,-3.0046 0.2772,-0.941 0.8284,-1.7388 1.6537,-2.3915 0.8203,-0.6556 2.8511,-1.7948 6.0908,-3.4224 -0.4151,-1.3123 -1.0049,-2.2195 -1.7692,-2.7118 -0.9563,-0.6077 -2.0884,-0.7261 -3.4102,-0.3342 -0.5071,0.1487 -0.9611,0.3493 -1.363,0.6003 -0.4025,0.2609 -0.7547,0.5645 -1.0605,0.9252 -0.0806,0.8414 -0.1474,1.6437 -0.1939,2.4005 z m 9.009,0.0351 v 0 c -2.725,1.4944 -4.3967,2.6291 -5.0174,3.4116 -0.6268,0.7814 -0.7679,1.7525 -0.4215,2.9079 0.2257,0.7668 0.6453,1.3281 1.2304,1.6682 0.5858,0.3309 1.2343,0.3877 1.9468,0.171 0.789,-0.2297 1.4758,-0.676 2.0643,-1.3258 0.5835,-0.6614 1.0711,-1.5076 1.4667,-2.5775 l -1.0674,-3.4763 z"
         style="fill:#67306c;fill-rule:evenodd;stroke:#67306c;stroke-width:0.7087;stroke-linecap:butt;stroke-linejoin:miter;stroke-dasharray:none"
         id="path1925" />
      <path
         d="m 248.0992,96.7985 0.1945,1.0499 c 0.1545,0.8382 0.3226,1.3443 0.5142,1.5208 0.3433,0.2904 0.955,0.5259 1.8276,0.6961 0.8757,0.1781 1.7348,0.1807 2.6056,0.0219 1.1075,-0.2016 1.9568,-0.6672 2.549,-1.3992 0.5909,-0.7201 0.8123,-1.4963 0.6611,-2.3276 -0.1234,-0.6517 -0.4199,-1.1379 -0.905,-1.4666 -0.4752,-0.3163 -1.3166,-0.4908 -2.5099,-0.514 -2.2137,-0.0341 -3.6906,-0.1546 -4.4321,-0.3573 -0.7526,-0.1892 -1.3493,-0.5325 -1.7914,-1.0005 -0.4456,-0.4788 -0.7341,-1.0942 -0.8771,-1.8593 -0.2603,-1.4275 0.0513,-2.6856 0.9249,-3.7704 0.8786,-1.0829 2.2721,-1.8067 4.171,-2.1523 1.5158,-0.277 3.0738,-0.2529 4.6847,0.0866 0.0452,0.7466 0.1908,1.9791 0.4429,3.712 l -0.9547,0.1737 c -0.1964,-0.9371 -0.4167,-1.5359 -0.6607,-1.8078 -0.3107,-0.3517 -0.8279,-0.6308 -1.5511,-0.8348 -0.7133,-0.2022 -1.4344,-0.2294 -2.1786,-0.0959 -0.9909,0.1828 -1.7253,0.5776 -2.2205,1.1807 -0.4939,0.6099 -0.6702,1.2903 -0.5367,2.0392 0.1311,0.7188 0.4638,1.2222 0.9991,1.5018 0.5254,0.2949 1.8829,0.4551 4.0553,0.4918 1.607,0.0243 2.6775,0.1252 3.2197,0.2989 0.5483,0.1826 1.02,0.5153 1.4212,1.0062 0.3977,0.4902 0.6704,1.0925 0.7983,1.7991 0.2664,1.459 -0.1266,2.818 -1.168,4.0968 -1.0528,1.2795 -2.6114,2.1116 -4.685,2.4961 -1.3295,0.2431 -2.8408,0.3055 -4.5645,0.1863 -0.301,-0.0166 -0.4725,-0.0993 -0.5026,-0.2505 l 0.0127,-0.2394 c 0.014,-0.163 0.001,-0.4585 -0.0386,-0.8726 -0.0957,-1.0633 -0.2009,-1.8817 -0.3,-2.4631 l -0.1598,-0.7613 z"
         style="fill:#67306c;fill-rule:evenodd;stroke:#67306c;stroke-width:0.7087;stroke-linecap:butt;stroke-linejoin:miter;stroke-dasharray:none"
         id="path1927" />
      <path
         d="m 174.2612,148.2653 c 0.7244,-0.802 1.4085,-1.5919 2.0504,-2.3788 1.3054,-1.5914 2.2871,-2.8788 2.9333,-3.851 0.4397,-0.685 0.8543,-1.431 1.2224,-2.2417 l -2.3638,-3.207 0.6562,-0.8092 c 1.4354,1.5221 2.7953,2.9071 4.097,4.1655 -0.5029,0.862 -1.2935,1.9505 -2.378,3.2728 l -5.0307,5.9667 c -0.6752,0.8115 -1.6574,2.1103 -2.9792,3.9028 l -0.6752,-0.55 c 0.2608,-0.913 0.2682,-1.5718 0.0307,-1.9687 -0.2423,-0.4006 -1.529,-1.5554 -3.8695,-3.462 l -6.9695,-5.691 c -2.5393,-2.0689 -3.9958,-3.16 -4.3869,-3.2797 -0.3893,-0.1134 -0.8166,0.1083 -1.2822,0.6723 l -1.1326,1.3863 -0.8052,-0.6551 c 1.6978,-1.9783 2.8167,-3.2853 3.3576,-3.9467 0.7199,-0.8847 1.6664,-2.0911 2.8395,-3.6457 l 0.8057,0.6615 -1.2819,1.5681 c -0.3636,0.446 -0.4667,0.8419 -0.3055,1.1659 0.1625,0.3284 1.1818,1.2655 3.0659,2.8016 l 8.0773,6.5953 3.6115,2.8854 z"
         style="fill:#67306c;fill-rule:evenodd;stroke:#67306c;stroke-width:0.7087;stroke-linecap:butt;stroke-linejoin:miter;stroke-dasharray:none"
         id="path1929" />
      <path
         d="m 177.7235,128.9329 -0.7314,-0.8213 -0.7838,-0.8211 0.6263,-1.9584 c 0.2854,-0.8858 0.594,-1.595 0.9206,-2.1349 0.3317,-0.5375 0.7466,-1.0414 1.2492,-1.5079 1.1043,-1.0266 2.225,-1.6027 3.3685,-1.7324 1.1402,-0.1298 2.1291,0.1305 2.9816,0.7713 0.6244,0.4926 2.0086,1.8741 4.1435,4.1396 2.006,2.1376 3.1528,3.2773 3.4409,3.4367 0.2859,0.1498 0.5871,0.0777 0.9103,-0.2196 l 0.9323,-0.8663 0.7265,0.7915 c -0.9582,0.7965 -1.6215,1.3591 -1.9775,1.6928 -0.4582,0.4181 -1.0377,1.001 -1.7459,1.7438 l -0.973,-1.0813 c -0.3182,-0.338 -0.6429,-0.6871 -0.9772,-1.0306 l -0.736,4.2109 c -0.0652,0.3718 -0.1786,0.6979 -0.3369,0.9638 -0.1488,0.2642 -0.4228,0.579 -0.8039,0.9222 -1.0395,0.9659 -2.0638,1.4397 -3.0849,1.4339 -1.0131,-0.002 -1.9209,-0.4382 -2.711,-1.3015 -0.7415,-0.8083 -1.2076,-1.6965 -1.3789,-2.6573 -0.1733,-0.9688 -0.0309,-1.9333 0.4239,-2.8794 0.4492,-0.9558 1.7647,-2.8767 3.9564,-5.7539 -0.9502,-1.0021 -1.8817,-1.5517 -2.7747,-1.6606 -1.132,-0.1274 -2.2068,0.2748 -3.217,1.2071 -0.3819,0.3536 -0.7037,0.7384 -0.9577,1.139 -0.2481,0.4064 -0.4318,0.8401 -0.5483,1.2972 0.3018,0.787 0.5983,1.5364 0.8929,2.2383 z m 8.0997,-3.9456 v 0 c -1.7842,2.5432 -2.7881,4.3005 -2.9953,5.2764 -0.2162,0.9788 0.0811,1.9074 0.9027,2.795 0.5467,0.5962 1.1596,0.9104 1.8318,0.9526 0.6733,0.0365 1.2832,-0.1992 1.8258,-0.7018 0.6109,-0.5513 1.0295,-1.2587 1.2713,-2.0953 0.2323,-0.8435 0.2941,-1.8321 0.1784,-2.9634 l -2.4869,-2.6478 z"
         style="fill:#67306c;fill-rule:evenodd;stroke:#67306c;stroke-width:0.7087;stroke-linecap:butt;stroke-linejoin:miter;stroke-dasharray:none"
         id="path1931" />
      <path
         d="m 193.1841,113.5851 3.8798,5.134 c 1.0137,1.335 1.6997,2.1526 2.0683,2.4637 0.3729,0.3102 0.7764,0.4669 1.1958,0.4777 0.422,0.0106 0.8385,-0.1424 1.2486,-0.4524 0.2532,-0.1926 0.468,-0.431 0.626,-0.7013 0.1686,-0.2814 0.2939,-0.6102 0.3814,-0.9865 l 0.7245,0.1713 -0.1392,2.4684 c -0.2112,0.3018 -0.4316,0.5795 -0.6551,0.8303 -0.2252,0.2494 -0.4677,0.4762 -0.7095,0.654 -0.6488,0.4847 -1.2782,0.7843 -1.9093,0.9014 -0.6152,0.106 -1.177,0.0486 -1.6563,-0.1757 -0.4799,-0.2122 -1.0119,-0.6961 -1.57,-1.449 l -1.8593,-2.5672 -3.7654,-4.9818 c -0.6741,0.5064 -1.3511,1.0584 -2.0252,1.6551 l -0.4144,-0.5476 c 0.5449,-0.8435 1.019,-1.6669 1.4307,-2.4464 -0.9463,-1.2402 -2.0118,-2.5625 -3.1727,-3.9734 0.6887,-1.1955 1.1723,-2.099 1.4188,-2.6999 l 0.5433,0.006 c 0.445,0.7294 1.5872,2.3876 3.4298,4.9921 1.0655,-0.8073 1.9219,-1.4743 2.571,-2.0036 l 1.0155,-0.8348 0.8498,1.4164 -0.5417,0.3893 -2.5041,1.9071 z"
         style="fill:#67306c;fill-rule:evenodd;stroke:#67306c;stroke-width:0.7087;stroke-linecap:butt;stroke-linejoin:miter;stroke-dasharray:none"
         id="path1933" />
      <path
         d="m 196.9796,98.4784 c 0.4284,-0.2576 0.8953,-0.3285 1.3892,-0.2072 0.4963,0.1248 0.8776,0.4067 1.1397,0.8446 0.2683,0.4418 0.3388,0.9016 0.2136,1.3947 -0.1253,0.4953 -0.4091,0.8708 -0.8322,1.1276 -0.441,0.263 -0.9138,0.3425 -1.4013,0.2217 -0.499,-0.1189 -0.8745,-0.3985 -1.1363,-0.84 -0.2648,-0.4324 -0.3396,-0.8959 -0.2106,-1.4011 0.1146,-0.4908 0.4006,-0.8713 0.8379,-1.1403 z m 4.8259,5.5193 v 0 l 0.4658,0.0108 c 0.3631,0.732 0.7896,1.534 1.2809,2.3873 1.5868,2.7633 2.772,4.7941 3.5556,6.0972 0.7415,1.2153 1.4119,2.234 2.0046,3.0429 0.2458,0.3115 0.4783,0.4902 0.6955,0.5367 0.2175,0.0457 0.6099,-0.0568 1.1849,-0.3126 l 1.0322,-0.4461 0.4857,0.8047 c -1.4087,0.7721 -2.6729,1.4893 -3.7971,2.1735 -1.108,0.6646 -2.2128,1.372 -3.3016,2.1085 l -0.4862,-0.8028 1.1313,-0.8605 c 0.4534,-0.3237 0.6886,-0.5826 0.7182,-0.7925 0.0206,-0.1908 -0.1797,-0.6849 -0.6186,-1.4719 -0.6715,-1.2208 -1.6363,-2.8761 -2.8968,-4.9664 -0.8749,-1.4592 -1.5773,-2.5649 -2.1043,-3.3265 -0.1902,-0.2753 -0.3905,-0.431 -0.6146,-0.4637 -0.2204,-0.0352 -0.5848,0.1009 -1.0961,0.4032 l -1.0484,0.6382 -0.4907,-0.7996 c 1.0393,-0.8581 1.7859,-1.5192 2.2438,-1.9867 0.4506,-0.4675 1.0042,-1.1226 1.6559,-1.9737 z"
         style="fill:#67306c;fill-rule:evenodd;stroke:#67306c;stroke-width:0.7087;stroke-linecap:butt;stroke-linejoin:miter;stroke-dasharray:none"
         id="path1935" />
      <path
         d="m 212.849,101.3221 1.3078,-3.0509 c 0.1466,-0.3554 0.3472,-0.6646 0.5903,-0.9098 0.5523,-0.5238 1.1548,-0.9381 1.7986,-1.241 1.0646,-0.4991 2.0762,-0.7134 3.0442,-0.6397 0.9714,0.069 1.7882,0.3723 2.4512,0.899 0.6546,0.5269 1.3221,1.5279 2.0121,2.9945 l 2.128,4.7004 c 0.7592,1.6214 1.2608,2.5114 1.5103,2.6925 0.3445,0.2312 0.7761,0.2211 1.3284,-0.0296 l 1.0636,-0.5085 0.3974,0.8541 c -1.0903,0.4331 -2.021,0.8348 -2.7889,1.1984 -0.7524,0.347 -1.5486,0.7605 -2.3812,1.2277 -0.7133,-2.017 -1.8453,-4.6657 -3.3785,-7.9504 -0.6245,-1.3138 -1.1815,-2.2009 -1.6635,-2.646 -0.4902,-0.4394 -1.0948,-0.7023 -1.7941,-0.7848 -0.705,-0.0801 -1.4346,0.0647 -2.2068,0.4196 -0.9481,0.4461 -1.6476,1.0661 -2.0897,1.8591 -0.4403,0.8065 -0.6017,1.5232 -0.4794,2.1841 0.083,0.4296 0.5029,1.4621 1.2661,3.0949 0.8464,1.8057 1.6518,3.4853 2.41,5.0198 0.2217,0.4596 0.4276,0.7127 0.6152,0.7759 0.3591,0.1131 0.8205,0.0267 1.3879,-0.2378 l 1.0681,-0.4963 0.3972,0.8498 c -1.7122,0.7294 -3.0691,1.3216 -4.0609,1.7922 -1.0607,0.4939 -2.2496,1.0866 -3.5661,1.7756 l -0.3982,-0.8467 1.0742,-0.5074 c 0.7375,-0.347 1.0905,-0.7182 1.0546,-1.1075 -0.0367,-0.3974 -0.9339,-2.488 -2.6983,-6.2407 -0.7862,-1.6888 -1.4288,-3.003 -1.9151,-3.9453 -0.1707,-0.3063 -0.3448,-0.486 -0.5433,-0.5346 -0.1939,-0.0558 -0.6136,0.0732 -1.2674,0.375 l -1.0678,0.4994 -0.4001,-0.8527 c 0.8047,-0.4934 1.5002,-0.9881 2.0974,-1.4738 0.5954,-0.4894 1.2322,-1.0993 1.9124,-1.8469 0.0751,-0.0882 0.1464,-0.1443 0.2307,-0.1807 0.1557,-0.0708 0.2899,0.0018 0.3951,0.2286 l 0.2481,0.5745 z"
         style="fill:#67306c;fill-rule:evenodd;stroke:#67306c;stroke-width:0.7087;stroke-linecap:butt;stroke-linejoin:miter;stroke-dasharray:none"
         id="path1937" />
      <path
         d="m 229.5164,95.3409 -0.2944,-1.0615 -0.3443,-1.0824 1.4344,-1.4735 c 0.6408,-0.6757 1.2327,-1.1759 1.7657,-1.5155 0.5312,-0.3391 1.1239,-0.6104 1.783,-0.7983 1.4428,-0.4289 2.7078,-0.4561 3.7836,-0.0695 1.0829,0.3839 1.8622,1.0591 2.3368,2.0112 0.3414,0.7122 0.9793,2.5601 1.895,5.5304 0.8596,2.8056 1.3865,4.3425 1.5742,4.6078 0.1889,0.2571 0.4941,0.3256 0.9185,0.1977 l 1.2145,-0.3539 0.3055,1.0277 c -1.215,0.292 -2.054,0.5063 -2.5265,0.6437 -0.5949,0.1763 -1.3641,0.4411 -2.3316,0.8007 l -0.3977,-1.4024 c -0.135,-0.4436 -0.2753,-0.899 -0.4228,-1.3569 l -2.5181,3.4522 c -0.2204,0.2994 -0.4709,0.5457 -0.7298,0.7156 -0.2458,0.1731 -0.6335,0.3351 -1.1334,0.4781 -1.3491,0.4104 -2.4803,0.3837 -3.3947,-0.073 -0.9074,-0.4521 -1.53,-1.2454 -1.8627,-2.3635 -0.3116,-1.0578 -0.3377,-2.0577 -0.0629,-3.0046 0.2772,-0.941 0.8284,-1.7388 1.6537,-2.3915 0.8203,-0.6556 2.8511,-1.7948 6.0908,-3.4224 -0.4151,-1.3123 -1.0049,-2.2195 -1.7692,-2.7118 -0.9563,-0.6077 -2.0884,-0.7261 -3.4102,-0.3342 -0.5071,0.1487 -0.9611,0.3493 -1.363,0.6003 -0.4025,0.2609 -0.7547,0.5645 -1.0605,0.9252 -0.0806,0.8414 -0.1474,1.6437 -0.1939,2.4005 z m 9.009,0.0351 v 0 c -2.725,1.4944 -4.3967,2.6291 -5.0174,3.4116 -0.6268,0.7814 -0.7679,1.7525 -0.4215,2.9079 0.2257,0.7668 0.6453,1.3281 1.2304,1.6682 0.5858,0.3309 1.2343,0.3877 1.9468,0.171 0.789,-0.2297 1.4758,-0.676 2.0643,-1.3258 0.5835,-0.6614 1.0711,-1.5076 1.4667,-2.5775 l -1.0674,-3.4763 z"
         style="fill:#67306c;fill-rule:evenodd;stroke:#67306c;stroke-width:0.7087;stroke-linecap:butt;stroke-linejoin:miter;stroke-dasharray:none"
         id="path1939" />
      <path
         d="m 248.0992,96.7985 0.1945,1.0499 c 0.1545,0.8382 0.3226,1.3443 0.5142,1.5208 0.3433,0.2904 0.955,0.5259 1.8276,0.6961 0.8757,0.1781 1.7348,0.1807 2.6056,0.0219 1.1075,-0.2016 1.9568,-0.6672 2.549,-1.3992 0.5909,-0.7201 0.8123,-1.4963 0.6611,-2.3276 -0.1234,-0.6517 -0.4199,-1.1379 -0.905,-1.4666 -0.4752,-0.3163 -1.3166,-0.4908 -2.5099,-0.514 -2.2137,-0.0341 -3.6906,-0.1546 -4.4321,-0.3573 -0.7526,-0.1892 -1.3493,-0.5325 -1.7914,-1.0005 -0.4456,-0.4788 -0.7341,-1.0942 -0.8771,-1.8593 -0.2603,-1.4275 0.0513,-2.6856 0.9249,-3.7704 0.8786,-1.0829 2.2721,-1.8067 4.171,-2.1523 1.5158,-0.277 3.0738,-0.2529 4.6847,0.0866 0.0452,0.7466 0.1908,1.9791 0.4429,3.712 l -0.9547,0.1737 c -0.1964,-0.9371 -0.4167,-1.5359 -0.6607,-1.8078 -0.3107,-0.3517 -0.8279,-0.6308 -1.5511,-0.8348 -0.7133,-0.2022 -1.4344,-0.2294 -2.1786,-0.0959 -0.9909,0.1828 -1.7253,0.5776 -2.2205,1.1807 -0.4939,0.6099 -0.6702,1.2903 -0.5367,2.0392 0.1311,0.7188 0.4638,1.2222 0.9991,1.5018 0.5254,0.2949 1.8829,0.4551 4.0553,0.4918 1.607,0.0243 2.6775,0.1252 3.2197,0.2989 0.5483,0.1826 1.02,0.5153 1.4212,1.0062 0.3977,0.4902 0.6704,1.0925 0.7983,1.7991 0.2664,1.459 -0.1266,2.818 -1.168,4.0968 -1.0528,1.2795 -2.6114,2.1116 -4.685,2.4961 -1.3295,0.2431 -2.8408,0.3055 -4.5645,0.1863 -0.301,-0.0166 -0.4725,-0.0993 -0.5026,-0.2505 l 0.0127,-0.2394 c 0.014,-0.163 0.001,-0.4585 -0.0386,-0.8726 -0.0957,-1.0633 -0.2009,-1.8817 -0.3,-2.4631 l -0.1598,-0.7613 z"
         style="fill:#67306c;fill-rule:evenodd;stroke:#67306c;stroke-width:0.7087;stroke-linecap:butt;stroke-linejoin:miter;stroke-dasharray:none"
         id="path1941" />
      <path
         d="m 147.3431,186.6929 c 0.8712,0.3478 1.771,0.621 2.7051,0.8203 0.9847,0.2103 2.1112,0.367 3.3767,0.4743 0.2571,1.5433 0.3618,3.2393 0.319,5.1028 -0.0405,1.8617 -0.2331,3.6023 -0.5716,5.241 -0.5378,2.5173 -1.4968,4.6321 -2.891,6.3228 -1.3889,1.7016 -3.0754,2.8778 -5.0536,3.5294 -1.9761,0.6483 -4.0698,0.7384 -6.3107,0.2685 -2.3056,-0.4907 -4.2466,-1.4785 -5.8084,-2.9596 -1.5731,-1.4801 -2.6433,-3.3083 -3.2297,-5.4812 -0.5774,-2.177 -0.5515,-4.7707 0.0912,-7.785 0.2576,-1.2225 0.5758,-2.3405 0.9545,-3.3474 0.3747,-1.0004 0.9877,-2.2786 1.8194,-3.8446 l 0.6469,-1.2899 c 1.0752,0.5389 2.6076,1.1015 4.597,1.695 l -0.2143,1.0224 -1.0565,-0.2257 c -1.0462,-0.2204 -1.6794,-0.2677 -1.8985,-0.1292 -0.4051,0.2384 -1.0057,1.0068 -1.8011,2.2676 -0.801,1.2711 -1.3892,2.7903 -1.7605,4.5621 -0.6625,3.1325 -0.3298,5.7127 1.0068,7.7327 1.4505,2.1959 3.6917,3.6197 6.7137,4.2661 2.9073,0.6099 5.5282,0.3113 7.8629,-0.9059 2.7539,-1.4211 4.481,-3.8008 5.1921,-7.1309 0.3618,-1.7272 0.3782,-3.689 0.0458,-5.8649 -0.8853,-0.2521 -1.8398,-0.4942 -2.8566,-0.7127 -1.3216,-0.2759 -2.0808,-0.4152 -2.2906,-0.4115 -0.2127,-0.004 -0.3488,0.0492 -0.4374,0.1438 -0.0824,0.1039 -0.2737,0.649 -0.5665,1.6323 l -0.5703,1.8672 -1.0182,-0.2095 c 0.629,-2.4306 1.0761,-4.245 1.3242,-5.4257 0.2199,-1.0333 0.3541,-1.9257 0.3977,-2.6857 l 0.7867,0.1647 z"
         style="fill:#67306c;fill-rule:evenodd;stroke:#67306c;stroke-width:0.7087;stroke-linecap:butt;stroke-linejoin:miter;stroke-dasharray:none"
         id="path1943" />
      <path
         d="m 150.127,179.4882 c 2.011,0.7674 3.7339,0.8903 5.1691,0.3467 1.4307,-0.5351 2.4753,-1.5884 3.128,-3.1581 0.2923,-0.7074 0.4672,-1.4592 0.5187,-2.2448 0.0532,-0.7939 -5e-4,-1.6353 -0.1923,-2.5118 l 0.3424,-0.1578 1.0637,1.0127 c 0.1361,1.0332 0.1358,2.0482 0.0142,3.0297 -0.1234,0.9896 -0.3815,1.9592 -0.7716,2.8949 -0.8512,2.0485 -2.1909,3.425 -4.0053,4.1433 -1.8215,0.7092 -3.8375,0.608 -6.0626,-0.3097 -1.6907,-0.7019 -3.0125,-1.6659 -3.958,-2.8931 -0.6281,-0.8057 -1.02,-1.9737 -1.1984,-3.5141 -0.185,-1.5329 -0.0209,-2.8986 0.472,-4.0759 0.7362,-1.7853 1.8527,-2.976 3.3357,-3.5822 1.4869,-0.6054 3.1657,-0.518 5.0626,0.2666 l 0.8852,0.4017 c -0.1236,0.7364 -0.2817,1.4108 -0.4746,2.0318 -0.3797,1.1152 -0.9632,2.6283 -1.7567,4.5392 z m -1.0938,-0.5034 v 0 c 0.7104,-1.5332 1.4614,-3.2474 2.2409,-5.1392 0.315,-0.751 0.5885,-1.5013 0.8042,-2.2414 l -0.8412,-0.3478 c -0.8934,-0.3705 -1.8069,-0.5462 -2.7461,-0.5206 -0.5949,0.018 -1.1585,0.2294 -1.7256,0.6461 -0.5491,0.4207 -0.9846,0.9971 -1.2927,1.7227 -0.4691,1.1297 -0.4308,2.202 0.121,3.2337 0.547,1.014 1.6886,1.9026 3.4395,2.6465 z"
         style="fill:#67306c;fill-rule:evenodd;stroke:#67306c;stroke-width:0.7087;stroke-linecap:butt;stroke-linejoin:miter;stroke-dasharray:none"
         id="path1945" />
      <path
         d="m 155.6925,166.6964 c -1.33,-0.7148 -2.3675,-1.6624 -3.1108,-2.8524 -0.7418,-1.1905 -1.117,-2.5073 -1.1316,-3.9416 -0.009,-1.4384 0.3557,-2.864 1.1186,-4.2807 1.0977,-2.0483 2.5807,-3.3717 4.4572,-3.9533 1.8744,-0.5795 3.8172,-0.3382 5.8483,0.7505 2.3852,1.2732 3.8528,3.0981 4.3967,5.4513 0.4939,2.1183 0.2061,4.1753 -0.8633,6.1765 -1.0367,1.9233 -2.5224,3.1457 -4.4546,3.661 -1.9521,0.5108 -4.0312,0.1768 -6.2605,-1.0113 z m 0.4389,-3.2691 v 0 c 1.9851,1.0604 3.9036,1.5612 5.7463,1.502 1.8506,-0.0565 3.1795,-0.8512 4.0013,-2.3846 0.6221,-1.1612 0.681,-2.3355 0.1816,-3.5323 -0.5045,-1.1895 -1.6498,-2.2708 -3.4562,-3.2301 -1.45,-0.7851 -2.8233,-1.2449 -4.1174,-1.3878 -1.2933,-0.1451 -2.3669,-0.005 -3.2186,0.4275 -0.8568,0.431 -1.5208,1.0808 -1.9788,1.9312 -0.4075,0.7677 -0.5808,1.556 -0.5253,2.3767 0.056,0.8142 0.3414,1.5391 0.8289,2.1762 0.6565,0.8675 1.5113,1.5765 2.5382,2.1212 z"
         style="fill:#67306c;fill-rule:evenodd;stroke:#67306c;stroke-width:0.7087;stroke-linecap:butt;stroke-linejoin:miter;stroke-dasharray:none"
         id="path1947" />
      <path
         d="m 147.3431,186.6929 c 0.8712,0.3478 1.771,0.621 2.7051,0.8203 0.9847,0.2103 2.1112,0.367 3.3767,0.4743 0.2571,1.5433 0.3618,3.2393 0.319,5.1028 -0.0405,1.8617 -0.2331,3.6023 -0.5716,5.241 -0.5378,2.5173 -1.4968,4.6321 -2.891,6.3228 -1.3889,1.7016 -3.0754,2.8778 -5.0536,3.5294 -1.9761,0.6483 -4.0698,0.7384 -6.3107,0.2685 -2.3056,-0.4907 -4.2466,-1.4785 -5.8084,-2.9596 -1.5731,-1.4801 -2.6433,-3.3083 -3.2297,-5.4812 -0.5774,-2.177 -0.5515,-4.7707 0.0912,-7.785 0.2576,-1.2225 0.5758,-2.3405 0.9545,-3.3474 0.3747,-1.0004 0.9877,-2.2786 1.8194,-3.8446 l 0.6469,-1.2899 c 1.0752,0.5389 2.6076,1.1015 4.597,1.695 l -0.2143,1.0224 -1.0565,-0.2257 c -1.0462,-0.2204 -1.6794,-0.2677 -1.8985,-0.1292 -0.4051,0.2384 -1.0057,1.0068 -1.8011,2.2676 -0.801,1.2711 -1.3892,2.7903 -1.7605,4.5621 -0.6625,3.1325 -0.3298,5.7127 1.0068,7.7327 1.4505,2.1959 3.6917,3.6197 6.7137,4.2661 2.9073,0.6099 5.5282,0.3113 7.8629,-0.9059 2.7539,-1.4211 4.481,-3.8008 5.1921,-7.1309 0.3618,-1.7272 0.3782,-3.689 0.0458,-5.8649 -0.8853,-0.2521 -1.8398,-0.4942 -2.8566,-0.7127 -1.3216,-0.2759 -2.0808,-0.4152 -2.2906,-0.4115 -0.2127,-0.004 -0.3488,0.0492 -0.4374,0.1438 -0.0824,0.1039 -0.2737,0.649 -0.5665,1.6323 l -0.5703,1.8672 -1.0182,-0.2095 c 0.629,-2.4306 1.0761,-4.245 1.3242,-5.4257 0.2199,-1.0333 0.3541,-1.9257 0.3977,-2.6857 l 0.7867,0.1647 z"
         style="fill:#67306c;fill-rule:evenodd;stroke:#67306c;stroke-width:0.7087;stroke-linecap:butt;stroke-linejoin:miter;stroke-dasharray:none"
         id="path1949" />
      <path
         d="m 150.127,179.4882 c 2.011,0.7674 3.7339,0.8903 5.1691,0.3467 1.4307,-0.5351 2.4753,-1.5884 3.128,-3.1581 0.2923,-0.7074 0.4672,-1.4592 0.5187,-2.2448 0.0532,-0.7939 -5e-4,-1.6353 -0.1923,-2.5118 l 0.3424,-0.1578 1.0637,1.0127 c 0.1361,1.0332 0.1358,2.0482 0.0142,3.0297 -0.1234,0.9896 -0.3815,1.9592 -0.7716,2.8949 -0.8512,2.0485 -2.1909,3.425 -4.0053,4.1433 -1.8215,0.7092 -3.8375,0.608 -6.0626,-0.3097 -1.6907,-0.7019 -3.0125,-1.6659 -3.958,-2.8931 -0.6281,-0.8057 -1.02,-1.9737 -1.1984,-3.5141 -0.185,-1.5329 -0.0209,-2.8986 0.472,-4.0759 0.7362,-1.7853 1.8527,-2.976 3.3357,-3.5822 1.4869,-0.6054 3.1657,-0.518 5.0626,0.2666 l 0.8852,0.4017 c -0.1236,0.7364 -0.2817,1.4108 -0.4746,2.0318 -0.3797,1.1152 -0.9632,2.6283 -1.7567,4.5392 z m -1.0938,-0.5034 v 0 c 0.7104,-1.5332 1.4614,-3.2474 2.2409,-5.1392 0.315,-0.751 0.5885,-1.5013 0.8042,-2.2414 l -0.8412,-0.3478 c -0.8934,-0.3705 -1.8069,-0.5462 -2.7461,-0.5206 -0.5949,0.018 -1.1585,0.2294 -1.7256,0.6461 -0.5491,0.4207 -0.9846,0.9971 -1.2927,1.7227 -0.4691,1.1297 -0.4308,2.202 0.121,3.2337 0.547,1.014 1.6886,1.9026 3.4395,2.6465 z"
         style="fill:#67306c;fill-rule:evenodd;stroke:#67306c;stroke-width:0.7087;stroke-linecap:butt;stroke-linejoin:miter;stroke-dasharray:none"
         id="path1951" />
      <path
         d="m 155.6925,166.6964 c -1.33,-0.7148 -2.3675,-1.6624 -3.1108,-2.8524 -0.7418,-1.1905 -1.117,-2.5073 -1.1316,-3.9416 -0.009,-1.4384 0.3557,-2.864 1.1186,-4.2807 1.0977,-2.0483 2.5807,-3.3717 4.4572,-3.9533 1.8744,-0.5795 3.8172,-0.3382 5.8483,0.7505 2.3852,1.2732 3.8528,3.0981 4.3967,5.4513 0.4939,2.1183 0.2061,4.1753 -0.8633,6.1765 -1.0367,1.9233 -2.5224,3.1457 -4.4546,3.661 -1.9521,0.5108 -4.0312,0.1768 -6.2605,-1.0113 z m 0.4389,-3.2691 v 0 c 1.9851,1.0604 3.9036,1.5612 5.7463,1.502 1.8506,-0.0565 3.1795,-0.8512 4.0013,-2.3846 0.6221,-1.1612 0.681,-2.3355 0.1816,-3.5323 -0.5045,-1.1895 -1.6498,-2.2708 -3.4562,-3.2301 -1.45,-0.7851 -2.8233,-1.2449 -4.1174,-1.3878 -1.2933,-0.1451 -2.3669,-0.005 -3.2186,0.4275 -0.8568,0.431 -1.5208,1.0808 -1.9788,1.9312 -0.4075,0.7677 -0.5808,1.556 -0.5253,2.3767 0.056,0.8142 0.3414,1.5391 0.8289,2.1762 0.6565,0.8675 1.5113,1.5765 2.5382,2.1212 z"
         style="fill:#67306c;fill-rule:evenodd;stroke:#67306c;stroke-width:0.7087;stroke-linecap:butt;stroke-linejoin:miter;stroke-dasharray:none"
         id="path1953" />
    </g>
    <g
       id="Layer1005">
      <g
         id="Layer1006">
        <path
           d="m 294.3151,318.5603 c -0.066,-0.041 -0.0687,-0.0903 0.002,-0.1488 0.0226,-0.0201 0.0602,-0.0393 0.1088,-0.057 z m -49.1242,-102.135 v 0 c -4.3677,0.2927 -5.3269,0.0444 -9.8859,0.8629 -10.5943,1.9018 -15.0246,9.993 -17.0902,10.979 -3.1963,1.5253 -5.5972,13.8631 -4.7539,16.8426 0.6017,2.1266 0.8384,4.4638 -0.4605,6.0241 -3.456,4.1502 -2.1581,-0.9758 -6.3081,7.0545 -0.8937,1.7312 -8.9046,5.5268 -4.4849,13.1131 3.6276,6.2282 1.7493,5.1427 7.7492,9.7236 3.12,2.3826 1.6139,10.1376 12.9637,10.4078 4.3748,0.1036 8.7097,-2.2528 12.0184,-4.9813 1.5122,-1.2469 2.4924,-6.2016 5.9979,-1.7353 1.0221,1.3037 5.2265,1.9115 6.5333,4.7313 0.0241,0.051 1.178,1.461 1.4542,1.9351 1.7312,2.972 4.7474,11.6244 1.5438,13.8145 -3.2897,2.2497 -5.8219,4.8085 -10.0461,7.0111 -0.007,0.003 -1.9545,1.3054 -0.804,1.1238 1.8773,3.2228 3.7383,-0.5879 8.4801,-0.685 6.0792,-0.1235 14.0087,-2.2583 20.4292,0.8222 0.1828,0.0878 0.2877,-0.1498 0.578,0.1966 1.6615,0.4405 3.2776,0.1874 5.6714,0.8762 3.4303,0.9884 4.1745,1.394 8.0111,1.5445 2.5387,0.1005 5.0442,2.0948 8.6366,2.0807 0.0702,0 1.7914,0.1403 3.2412,0.2658 -2.9827,-0.5896 7.4676,-9.9461 4.6939,-12.2441 -2.2496,-2.2938 -12.4807,-2.522 -17.0215,-7.6113 -2.1392,-2.3975 -7.6072,-9.5675 -5.4255,-12.9182 1.6374,-2.5154 -0.0117,-6.9991 8.9568,-9.9068 2.3406,-0.7593 10.5976,-1.3472 5.6228,-6.3846 -2.0229,-2.0489 -4.324,-2.7472 -1.684,-6.7527 2.4132,-3.6626 -9.3107,-1.2433 -3.6017,-4.569 4.4896,-2.6159 1.5319,-3.8468 -0.7804,-5.2733 -0.9942,-1.0637 -3.0186,0.6304 0.276,-7.1824 1.3933,-3.3031 -4.8718,-1.4659 -8.44,-4.7942 -1.419,-1.3229 -2.3147,-1.235 -3.6106,-3.4611 0.0335,-1.0981 -7.6048,-14.1833 -9.4022,-16.0683 -1.8135,-1.9016 -2.6341,-2.0261 -5.9263,-3.8692 z"
           style="fill:#d0b4cc;fill-rule:evenodd"
           id="path1956" />
        <path
           d="m 294.3151,318.5603 c -0.066,-0.041 -0.0687,-0.0903 0.002,-0.1488 0.0226,-0.0201 0.0602,-0.0393 0.1088,-0.057"
           style="fill:none;stroke:#d0b4cc;stroke-width:0.5;stroke-linecap:butt;stroke-linejoin:miter;stroke-dasharray:none"
           id="path1958" />
        <path
           d="m 245.1909,216.4253 c -4.3677,0.2927 -5.3269,0.0444 -9.8859,0.8629 -10.5943,1.9018 -15.0246,9.993 -17.0902,10.979 -3.1963,1.5253 -5.5972,13.8631 -4.7539,16.8426 0.6017,2.1266 0.8384,4.4638 -0.4605,6.0241 -3.456,4.1502 -2.1581,-0.9758 -6.3081,7.0545 -0.8937,1.7312 -8.9046,5.5268 -4.4849,13.1131 3.6276,6.2282 1.7493,5.1427 7.7492,9.7236 3.12,2.3826 1.6139,10.1376 12.9637,10.4078 4.3748,0.1036 8.7097,-2.2528 12.0184,-4.9813 1.5122,-1.2469 2.4924,-6.2016 5.9979,-1.7353 1.0221,1.3037 5.2265,1.9115 6.5333,4.7313 0.0241,0.051 1.178,1.461 1.4542,1.9351 1.7312,2.972 4.7474,11.6244 1.5438,13.8145 -3.2897,2.2497 -5.8219,4.8085 -10.0461,7.0111 -0.007,0.003 -1.9545,1.3054 -0.804,1.1238 1.8773,3.2228 3.7383,-0.5879 8.4801,-0.685 6.0792,-0.1235 14.0087,-2.2583 20.4292,0.8222 0.1828,0.0878 0.2877,-0.1498 0.578,0.1966 1.6615,0.4405 3.2776,0.1874 5.6714,0.8762 3.4303,0.9884 4.1745,1.394 8.0111,1.5445 2.5387,0.1005 5.0442,2.0948 8.6366,2.0807 0.0702,0 1.7914,0.1403 3.2412,0.2658 -2.9827,-0.5896 7.4676,-9.9461 4.6939,-12.2441 -2.2496,-2.2938 -12.4807,-2.522 -17.0215,-7.6113 -2.1392,-2.3975 -7.6072,-9.5675 -5.4255,-12.9182 1.6374,-2.5154 -0.0117,-6.9991 8.9568,-9.9068 2.3406,-0.7593 10.5976,-1.3472 5.6228,-6.3846 -2.0229,-2.0489 -4.324,-2.7472 -1.684,-6.7527 2.4132,-3.6626 -9.3107,-1.2433 -3.6017,-4.569 4.4896,-2.6159 1.5319,-3.8468 -0.7804,-5.2733 -1.1187,-1.0998 -3.0186,0.6304 0.276,-7.1824 1.3933,-3.3031 -4.8718,-1.4659 -8.44,-4.7942 -1.419,-1.3229 -2.3147,-1.235 -3.6106,-3.4611 0.0335,-1.0981 -7.3601,-13.2109 -9.4022,-16.0683 -1.2501,-1.7494 -3.7488,-2.7002 -5.9263,-3.8692"
           style="fill:none;stroke:#d0b4cc;stroke-width:0.5;stroke-linecap:butt;stroke-linejoin:miter;stroke-dasharray:none"
           id="path1960" />
        <g
           id="Layer1007">
          <path
             d="m 262.4295,231.9341 c 3.4958,2.089 4.0764,5.5819 1.6569,9.8166 2.9576,2.8071 2.9147,6.3578 -0.1003,9.9886 2.3489,3.4329 1.7263,6.9492 -1.7394,9.8811 1.6821,3.9604 0.5204,7.3404 -3.2613,9.5046 0.9619,4.3651 -0.6974,7.5152 -4.6651,8.8515 0.1971,4.6352 -1.9166,7.4567 -5.9525,7.9276 -0.6044,4.7497 -3.1317,7.1472 -7.1191,6.7275 -1.4374,4.6944 -4.3361,6.5717 -8.1691,5.2581 -2.2935,4.4497 -5.3772,5.6362 -8.675,3.3676 -2.8324,3.9094 -5.8782,4.3643 -8.5706,1.3027 -3.2851,3.2774 -6.2165,3.0388 -8.2455,-0.6573 -3.6415,2.5599 -6.3814,1.6608 -7.7036,-2.5195 -3.8876,1.7627 -6.3591,0.2408 -6.9431,-4.2816 -4.0114,0.8957 -6.1357,-1.2124 -5.9661,-5.9347 -3.9961,-0.0425 -5.6974,-2.7002 -4.7711,-7.4934 -3.8274,-1.0394 -5.0296,-4.2128 -3.3565,-8.9468 -3.4968,-2.0924 -4.0769,-5.5836 -1.6571,-9.82 -2.9574,-2.8062 -2.9152,-6.3568 0.099,-9.9871 -2.3482,-3.4327 -1.7256,-6.9489 1.7406,-9.8826 -1.6816,-3.9594 -0.5206,-7.3387 3.2614,-9.5012 -0.9622,-4.3677 0.6969,-7.5162 4.6646,-8.8532 -0.1971,-4.6344 1.917,-7.4559 5.9522,-7.9283 0.6049,-4.7481 3.1317,-7.1448 7.1196,-6.7258 1.4379,-4.6947 4.3359,-6.5727 8.1693,-5.26 2.2938,-4.4478 5.377,-5.6353 8.6755,-3.3657 2.8314,-3.9087 5.8777,-4.3643 8.5696,-1.303 3.2856,-3.2771 6.2166,-3.038 8.2461,0.6573 3.6417,-2.5606 6.3804,-1.6625 7.7033,2.5195 3.8873,-1.7627 6.3593,-0.2417 6.9428,4.2799 4.0107,-0.8957 6.1363,1.2124 5.9661,5.9357 3.9964,0.0425 5.6977,2.7002 4.7716,7.4927 3.8267,1.0401 5.0297,4.2138 3.3568,8.9492 z"
             style="fill:#d0b4cc;fill-rule:evenodd"
             id="path1962" />
        </g>
      </g>
      <g
         id="Layer1008">
        <path
           d="m 280.5826,322.6644 c -0.0653,-0.04 -0.0687,-0.0893 10e-4,-0.1488 0.0225,-0.0192 0.0602,-0.0393 0.1087,-0.0568 z m 0.3503,-0.1262 v 0 c -2.9829,-0.5903 7.4676,-9.9469 4.6937,-12.2448 -2.2494,-2.2931 -12.4805,-2.5223 -17.0213,-7.6114 -2.139,-2.3967 -7.6072,-9.5675 -5.4255,-12.9174 1.6372,-2.5161 -0.0119,-6.9991 8.957,-9.9076 2.3404,-0.7585 10.5974,-1.3464 5.6226,-6.3848 -2.0229,-2.0479 -4.3245,-2.746 -1.6843,-6.7515 2.4135,-3.6638 -9.3102,-1.2445 -3.6012,-4.5694 4.4894,-2.6157 1.5312,-3.8466 -0.7803,-5.2741 -1.6448,-1.2928 -3.0184,0.6306 0.2759,-7.1815 1.3931,-3.303 -4.8713,-1.4658 -8.44,-4.7941 -1.4192,-1.3237 -2.3144,-1.2351 -3.6108,-3.4621 0.0335,-1.0979 -6.93,-15.2486 -9.4022,-16.0674 -2.0409,-0.6765 -10.7331,-5.4012 -19.0583,-4.8425 -4.3675,0.2935 -5.3268,0.0452 -9.886,0.8639 -10.5942,1.9016 -15.0246,9.9928 -17.09,10.9788 -3.1965,1.5253 -5.5973,13.8621 -4.7536,16.8426 0.6015,2.1266 0.8379,4.4638 -0.4607,6.0234 -3.456,4.1509 -2.1584,-0.9761 -6.3076,7.0545 -0.8945,1.7309 -8.9051,5.5274 -4.4857,13.1138 3.6276,6.2272 1.7494,5.142 7.7494,9.7235 3.1201,2.3824 1.614,10.137 12.9638,10.4079 4.3748,0.1036 8.7097,-2.2528 12.0186,-4.9814 1.512,-1.2476 2.4921,-6.2025 5.9977,-1.736 1.0221,1.3035 5.2267,1.9125 6.5333,4.7321 0.0238,0.0502 1.1778,1.461 1.4542,1.935 1.7309,2.9713 4.7474,11.6247 1.5438,13.8146 -3.2897,2.2496 -5.8219,4.8083 -10.0462,7.011 -0.006,0.003 -1.9547,1.3054 -0.8041,1.1232 1.8775,3.2237 3.7385,-0.5872 8.4803,-0.685 6.0789,-0.1238 14.0085,-2.2586 20.4292,0.8228 0.183,0.0869 0.2876,-0.1497 0.5779,0.1966 1.6615,0.4406 3.2776,0.1865 5.6712,0.8763 3.4308,0.9877 4.175,1.394 8.0116,1.5445 2.5392,0.1005 5.044,2.094 8.6364,2.0807 0.0701,0 1.7911,0.1403 3.2412,0.2658 z"
           style="fill:#ffffff;fill-rule:evenodd"
           id="path1966" />
        <path
           d="m 280.5826,322.6644 c -0.0653,-0.04 -0.0687,-0.0893 10e-4,-0.1488 0.0225,-0.0192 0.0602,-0.0393 0.1087,-0.0568"
           style="fill:none;stroke:#b082b1;stroke-width:0.5;stroke-linecap:butt;stroke-linejoin:miter;stroke-dasharray:none"
           id="path1968" />
        <path
           d="m 280.9329,322.5382 c -2.9829,-0.5903 7.4676,-9.9469 4.6937,-12.2448 -2.2494,-2.2931 -12.4805,-2.5223 -17.0213,-7.6114 -2.139,-2.3967 -7.6072,-9.5675 -5.4255,-12.9174 1.6372,-2.5161 -0.0119,-6.9991 8.957,-9.9076 2.3404,-0.7585 10.5974,-1.3464 5.6226,-6.3848 -2.0229,-2.0479 -4.3245,-2.746 -1.6843,-6.7515 2.4135,-3.6638 -9.3102,-1.2445 -3.6012,-4.5694 4.4894,-2.6157 1.2902,-3.8056 -0.7803,-5.2741 -1.578,-1.1188 -3.0184,0.6306 0.2759,-7.1815 1.3931,-3.303 -4.8713,-1.4658 -8.44,-4.7941 -1.4192,-1.3237 -2.3144,-1.2351 -3.6108,-3.4621 0.0335,-1.0979 -6.93,-15.2486 -9.4022,-16.0674 -2.0409,-0.6765 -10.7331,-5.4012 -19.0583,-4.8425 -4.3675,0.2935 -5.3268,0.0452 -9.886,0.8639 -10.5942,1.9016 -15.0246,9.9928 -17.09,10.9788 -3.1965,1.5253 -5.5973,13.8621 -4.7536,16.8426 0.6015,2.1266 0.8379,4.4638 -0.4607,6.0234 -3.456,4.1509 -2.1584,-0.9761 -6.3076,7.0545 -0.8945,1.7309 -8.9051,5.5274 -4.4857,13.1138 3.6276,6.2272 1.7494,5.142 7.7494,9.7235 3.1201,2.3824 1.614,10.137 12.9638,10.4079 4.3748,0.1036 8.7097,-2.2528 12.0186,-4.9814 1.512,-1.2476 2.4921,-6.2025 5.9977,-1.736 1.0221,1.3035 5.2267,1.9125 6.5333,4.7321 0.0238,0.0502 1.1778,1.461 1.4542,1.935 1.7309,2.9713 4.7474,11.6247 1.5438,13.8146 -3.2897,2.2496 -5.8219,4.8083 -10.0462,7.011 -0.006,0.003 -1.9547,1.3054 -0.8041,1.1232 1.8775,3.2237 3.7385,-0.5872 8.4803,-0.685 6.0789,-0.1238 14.0085,-2.2586 20.4292,0.8228 0.183,0.0869 0.2876,-0.1497 0.5779,0.1966 1.6615,0.4406 3.2776,0.1865 5.6712,0.8763 3.4308,0.9877 4.175,1.394 8.0116,1.5445 2.5392,0.1005 5.044,2.094 8.6364,2.0807 0.0701,0 1.7911,0.1403 3.2412,0.2658 z"
           style="fill:none;stroke:#b082b1;stroke-width:0.5;stroke-linecap:butt;stroke-linejoin:miter;stroke-dasharray:none"
           id="path1970" />
      </g>
      <g
         id="Layer1009">
        <path
           d="m 261.8197,330.4231 c -0.0655,-0.0413 -0.0684,-0.0903 0.002,-0.1498 0.0231,-0.0192 0.0595,-0.0393 0.1085,-0.057 z m 0.3505,-0.1275 v 0 c -2.9831,-0.59 7.4674,-9.9466 4.6937,-12.2448 -2.2494,-2.2928 -12.4812,-2.522 -17.0217,-7.6103 -2.139,-2.3975 -7.607,-9.5675 -5.4258,-12.918 1.6375,-2.5156 -0.0117,-6.9994 8.9575,-9.908 2.3407,-0.7583 10.5976,-1.3469 5.6224,-6.3846 -2.0229,-2.0479 -4.3248,-2.746 -1.6846,-6.7525 2.4142,-3.6623 -9.3099,-1.2435 -3.6009,-4.5692 4.4898,-2.6149 1.5316,-3.8458 -0.7809,-5.2733 -0.2274,-0.3287 -0.4099,-0.4532 -0.5366,-0.586 -0.7336,-0.7687 -0.8894,0.8683 1.8134,-5.8622 1.5008,-3.3749 -5.8326,-2.2256 -9.4408,-5.5275 -1.4183,-1.3228 -2.3142,-1.235 -3.6104,-3.4611 0.033,-1.0988 -6.9302,-15.2493 -9.4022,-16.0683 -2.0406,-0.6765 -4.5029,-1.679 -3.3574,-3.8698 1.1085,-2.1176 0.5364,-3.1051 -0.0442,-3.9621 -0.9292,-1.3691 -2.5824,-1.8674 -2.7074,-2.0312 -6.1773,3.5982 -4.6245,4.4621 -12.949,5.0206 -4.3682,0.2935 -5.3275,0.0452 -9.8862,0.8642 -10.5945,1.9013 -15.0248,9.9927 -17.0897,10.9784 -3.1966,1.5254 -5.5977,13.8622 -4.7542,16.8427 0.6017,2.1266 0.8384,4.4641 -0.46,6.0234 -3.4567,4.1509 -2.1586,-0.9758 -6.3083,7.0545 -0.894,1.7309 -8.9044,5.5274 -4.4852,13.1138 3.6276,6.2272 1.7496,5.1427 7.749,9.7228 3.12,2.3834 1.6144,10.1377 12.964,10.4086 4.3745,0.1029 8.7099,-2.2528 12.0184,-4.9814 1.5124,-1.2469 2.4923,-6.2025 5.9974,-1.736 1.0223,1.3037 5.2269,1.9123 6.534,4.7321 0.0238,0.0502 1.1778,1.461 1.4545,1.9353 1.7307,2.9707 4.7466,11.6244 1.543,13.8143 -3.2897,2.2496 -5.8221,4.8082 -10.0456,7.011 -0.007,0.004 -1.9548,1.3054 -0.8047,1.1231 1.8775,3.2238 3.7385,-0.5878 8.4808,-0.684 6.0789,-0.1245 14.008,-2.2596 20.429,0.8214 0.1832,0.0874 0.2871,-0.1492 0.5777,0.1971 1.6615,0.4408 3.2776,0.1865 5.6716,0.8763 3.4306,0.9877 4.1745,1.3933 8.0111,1.5445 2.5393,0.1005 5.0442,2.094 8.6371,2.0807 0.0697,0 1.7912,0.1396 3.2412,0.2655 z"
           style="fill:#67306c;fill-rule:evenodd"
           id="path1973" />
        <path
           d="m 261.8197,330.4231 c -0.0655,-0.0411 -0.0684,-0.0903 0.002,-0.1498 0.0231,-0.0192 0.0597,-0.0393 0.1088,-0.0568"
           style="fill:none;stroke:#67306c;stroke-width:0.5;stroke-linecap:butt;stroke-linejoin:miter;stroke-dasharray:none"
           id="path1975" />
        <path
           d="m 262.1702,330.2956 c -2.9831,-0.59 7.4674,-9.9466 4.6937,-12.2448 -2.2494,-2.2928 -12.4812,-2.522 -17.0217,-7.6103 -2.139,-2.3975 -7.607,-9.5675 -5.4258,-12.918 1.6375,-2.5156 -0.0117,-6.9994 8.9575,-9.908 2.3407,-0.7583 10.5976,-1.3469 5.6224,-6.3846 -2.0229,-2.0479 -4.3248,-2.746 -1.6846,-6.7525 2.4142,-3.6623 -9.3099,-1.2435 -3.6009,-4.5692 4.4898,-2.6149 1.5316,-3.8458 -0.7809,-5.2733 -0.1352,-0.3644 -0.3259,-0.5525 -0.4347,-0.7005 -0.5724,-0.7785 -0.616,0.6182 0.8209,-3.7298 0.2894,-0.8763 0.1063,-0.3455 1.0151,-2.2822 1.3695,-3.4203 -5.9966,-1.9348 -9.5653,-5.2632 -1.4183,-1.3228 -2.3142,-1.235 -3.6104,-3.4611 0.033,-1.0988 -6.9302,-15.2493 -9.4022,-16.0683 -2.0406,-0.6765 -4.5029,-1.679 -3.3574,-3.8698 1.1085,-2.1176 0.5364,-3.1051 -0.0442,-3.9621 -0.9292,-1.3691 -2.5824,-1.8674 -2.7074,-2.0312 -6.1773,3.5982 -4.6245,4.4621 -12.949,5.0206 -4.3682,0.2935 -5.3275,0.0452 -9.8862,0.8642 -10.5945,1.9013 -15.0248,9.9927 -17.0897,10.9784 -3.1966,1.5254 -5.5977,13.8622 -4.7542,16.8427 0.6017,2.1266 0.8384,4.4641 -0.46,6.0234 -3.4567,4.1509 -2.1586,-0.9758 -6.3083,7.0545 -0.894,1.7309 -8.9044,5.5274 -4.4852,13.1138 3.6276,6.2272 1.7496,5.1427 7.749,9.7228 3.12,2.3834 1.6144,10.1377 12.964,10.4086 4.3745,0.1029 8.7099,-2.2528 12.0184,-4.9814 1.5124,-1.2469 2.4923,-6.2025 5.9974,-1.736 1.0223,1.3037 5.2269,1.9123 6.534,4.7321 0.0238,0.0502 1.1778,1.461 1.4545,1.9353 1.7307,2.9707 4.7466,11.6244 1.543,13.8143 -3.2897,2.2496 -5.8221,4.8082 -10.0456,7.011 -0.007,0.004 -1.9548,1.3054 -0.8047,1.1231 1.8775,3.2238 3.7385,-0.5878 8.4808,-0.684 6.0789,-0.1245 14.008,-2.2596 20.429,0.8214 0.1832,0.0874 0.2871,-0.1492 0.5777,0.1971 1.6615,0.4408 3.2776,0.1865 5.6716,0.8763 3.4306,0.9877 4.1745,1.3933 8.0111,1.5445 2.5393,0.1005 5.0442,2.094 8.6371,2.0807 0.0697,0 1.7912,0.1396 3.2412,0.2655 z"
           style="fill:none;stroke:#67306c;stroke-width:0.5;stroke-linecap:butt;stroke-linejoin:miter;stroke-dasharray:none"
           id="path1977" />
      </g>
    </g>
    <defs
       id="defs1986">
      <linearGradient
         id="grad1"
         gradientTransform="scale(1.1794865,0.84782656)"
         x1="295.4772"
         y1="341.90472"
         x2="323.45535"
         y2="341.90472"
         gradientUnits="userSpaceOnUse">
        <stop
           offset="0%"
           stop-color="#67306c"
           stop-opacity="1.0000"
           id="stop1981" />
        <stop
           offset="100%"
           stop-color="#f2e8f2"
           stop-opacity="1.0000"
           id="stop1983" />
      </linearGradient>
    </defs>
    <path
       d="m 375.2295,302.6632 c 0.6276,-3.7029 -0.8948,-7.6008 -4.2119,-9.8374 -3.3164,-2.2359 -7.5007,-2.1837 -10.6975,-0.2129 -5.7143,-2.7356 -10.3083,-3.5824 -11.5095,-1.7986 -1.4946,2.2181 2.742,7.7667 9.7543,13.1433 0.0106,0.007 0.0211,0.0159 0.0319,0.0239 0.2321,0.1773 0.4671,0.3536 0.7038,0.5309 0.0337,0.0249 0.0656,0.0496 0.0993,0.0746 0.2129,0.1577 0.429,0.3139 0.6472,0.4734 0.0584,0.0399 0.1153,0.0832 0.1719,0.1249 0.2074,0.1482 0.4166,0.2961 0.6268,0.4433 0.07,0.0479 0.1367,0.0965 0.2064,0.1454 0.2784,0.1951 0.5605,0.3865 0.8458,0.5798 0.2854,0.1924 0.5718,0.3821 0.8564,0.5681 0.0569,0.0366 0.1117,0.071 0.1686,0.1084 0.2305,0.1497 0.4608,0.2987 0.6922,0.4438 0.0452,0.0294 0.0913,0.0569 0.1374,0.0862 0.2421,0.1516 0.4825,0.3014 0.7236,0.4486 0.0301,0.0185 0.0602,0.0355 0.0903,0.054 0.257,0.1559 0.5141,0.3103 0.7686,0.4611 0.0116,0.008 0.0239,0.0142 0.0353,0.0211 7.6142,4.4849 14.3473,6.3289 15.8418,4.1136 1.2022,-1.7848 -1.3064,-5.7244 -5.9827,-9.9955 z m -21.0972,-8.9093 v 0 c 0.4655,-0.6888 2.0833,-0.5097 4.3333,0.3387 -0.4158,0.4238 -0.8005,0.889 -1.1446,1.3998 -0.4876,0.7223 -0.8633,1.4884 -1.1373,2.2747 -1.7092,-1.8244 -2.5275,-3.3066 -2.0514,-4.0132 z m 22.3578,15.0732 v 0 c -0.4771,0.7067 -2.1569,0.5026 -4.4893,-0.3955 0.6266,-0.5496 1.195,-1.186 1.6824,-1.9093 0.3448,-0.5098 0.6312,-1.0409 0.8687,-1.5843 1.6286,1.7678 2.4034,3.2003 1.9382,3.8891 z"
       style="fill:url(#grad1)"
       id="path1988" />
    <defs
       id="defs1995">
      <linearGradient
         id="grad2"
         gradientTransform="scale(1.1971379,0.83532568)"
         x1="297.5983"
         y1="362.02802"
         x2="307.72113"
         y2="362.02802"
         gradientUnits="userSpaceOnUse">
        <stop
           offset="0%"
           stop-color="#67306c"
           stop-opacity="1.0000"
           id="stop1990" />
        <stop
           offset="100%"
           stop-color="#f2e8f2"
           stop-opacity="1.0000"
           id="stop1992" />
      </linearGradient>
    </defs>
    <path
       d="m 356.2662,302.4113 c 0.3847,2.6587 1.8473,5.1496 4.2499,6.7684 2.4024,1.6206 5.2605,2.0416 7.8685,1.4016 -2.0177,-1.047 -4.1417,-2.3051 -6.2854,-3.751 -2.1435,-1.4441 -4.1061,-2.9422 -5.833,-4.419 z"
       style="fill:url(#grad2)"
       id="path1997" />
  </g>
</svg>
